<?xml version="1.0" encoding="utf-8"?>
<!-- Generator: Adobe Illustrator 19.0.0, SVG Export Plug-In . SVG Version: 6.00 Build 0)  -->
<svg version="1.1" id="Layer_1" xmlns="http://www.w3.org/2000/svg" xmlns:xlink="http://www.w3.org/1999/xlink" x="0px" y="0px"
	 viewBox="0 0 858 229" style="enable-background:new 0 0 858 229;" xml:space="preserve">
<style type="text/css">
	.st0{fill:#61AF2E;}
	.st1{opacity:0.7;}
	.st2{fill:#3058A0;}
	.st3{font-family:'NotoSans-Regular';}
	.st4{font-size:30.7636px;}
	.st5{fill:#FFFFFF;}
</style>
<g id="XMLID_52_">
	<g id="XMLID_26_">
		<path id="XMLID_27_" class="st0" d="M37.9,205.1l-10.8-10.8l123-123l-42.7-42.7L117,19l96.2,96.2l-9.6,9.6l-42.7-42.7L37.9,205.1z
			"/>
	</g>
	<g id="XMLID_23_" class="st1">
		<path id="XMLID_25_" class="st0" d="M206.9,194.3l-10.8,10.8l-123-123l-42.7,42.7l-9.6-9.6L117,19l9.6,9.6L84,71.4L206.9,194.3z"
			/>
	</g>
	<polygon id="XMLID_22_" class="st0" points="156.4,165.3 77.5,165.3 83.3,159.6 150.6,159.6 	"/>
</g>
<text id="XMLID_20_" transform="matrix(1 0 0 1 269.97 193.832)"><tspan x="0" y="0" class="st2 st3 st4">ΔΟΜΗΣΗ </tspan><tspan x="140.9" y="0" class="st2 st3 st4">-</tspan><tspan x="150.8" y="0" class="st2 st3 st4"> ΑΝΑΚΑΙΝΙΣΗ </tspan><tspan x="352.8" y="0" class="st2 st3 st4">-</tspan><tspan x="362.7" y="0" class="st2 st3 st4"> ΔΙΑΚΟΣΜΗΣΗ</tspan></text>
<path id="XMLID_45_" class="st5" d="M561,48.8c-10-1.1-18.7,6.7-23.1,14.9c-3.1,5.8-4.4,12.7-7.6,18.4c-3.4,6.1-3.5,12.8-1.3,17.9
	c4.4,10.7,11.2,19.4,24.1,22.3c14.8,3.3,28.1-1.9,34.2-15.8c6.6-14.9,4.5-29.3-3.5-43.1C578.8,54.8,572.1,48.5,561,48.8z
	 M466.1,122.5c0.7,0.1,1.4,0.2,2.1,0.3c0.8-1.4,2.1-2.7,2.3-4.2c0.9-7.6,1.4-15.2,2.1-22.7c0.6-6.5,0.8-13.1,1.9-19.6
	c1.3-8,10.9-12.4,18.2-8.6c1.5,0.8,3.3,2.4,3.6,3.9c1,4.8,1.7,9.7,1.8,14.6c0.2,10.7-0.1,21.4,0.2,32.1c0,1.6,2.1,3.2,3.2,4.7
	c1-1.6,2.9-3.2,3-4.9c0.8-16.2,6.3-31.1,12-46c2.1-5.6,4.3-11.2,6.2-16.9c1.7-5.1-1.7-9.9-7-9.4c-3.6,0.3-7,1.9-10.5,2.6
	c-11,2.4-22.2,4.2-33.1,7.2c-13,3.6-13.4,5.3-10.7,18.6c1.5,7.4,2.3,15,2.9,22.6c0.4,5.8-0.2,11.8,0,17.6
	C464.4,117.3,465.5,119.9,466.1,122.5z M454.4,118.4c-2.9-10.7-5.6-21.1-8.4-31.4c-2.8-10.3-5.6-20.6-8.8-30.8
	c-0.9-2.7-3-6.3-5.3-6.9c-2.2-0.6-5.6,1.7-8,3.5c-1.7,1.3-2.8,3.6-3.8,5.7c-5.2,11.2-10.3,22.4-15.4,33.6c-3.8,8.3-7.5,16.7-11.3,25
	c-1.5,3.2-1.4,6.5,1.8,7.8c1.6,0.6,4.8-1.1,6.5-2.6c4.1-3.6,7.7-7.8,11.8-11.4c8.7-7.7,21-5.6,26.9,4.2c1.4,2.4,3.1,4.7,5.2,6.5
	c1.6,1.3,4.2,2.3,6,2C452.8,123.3,453.4,120.3,454.4,118.4z M369.7,115.1c0-0.2,0-0.4,0-0.6c-4.6,0-9.3,0.2-13.8-0.1
	c-1.7-0.1-4.1-1.5-4.6-2.8c-0.4-1.2,1.4-3.2,2.4-4.7c0.6-0.9,1.6-1.4,2.3-2.1c4.2-3.8,8.6-7.3,12.4-11.4c4.5-4.8,4.2-7.7-0.5-12.2
	c-3.6-3.5-7.4-6.9-11-10.4c-3.2-3-3.1-5.5,0.8-7c2.6-1,5.8-1.5,8.6-1.1c6.4,1,12.7,2.8,19.1,4c1.2,0.2,3.2-0.6,3.8-1.6
	c2.4-4.2-2.4-12.3-7.3-12c-12.2,0.7-24.4,1.5-36.6,2.8c-2.7,0.3-6.5,2.8-7.1,5c-0.7,2.6,0.8,6.6,2.8,8.8c4.6,5,9.9,9.4,15.1,13.9
	c2.6,2.3,2.8,4.1,0,6.4c-4.5,3.7-9,7.4-13.1,11.5c-4.2,4.3-8.1,8.9-11.5,13.8c-3,4.4-1.6,7,3.7,8.1c1.5,0.3,3.2,0.2,4.8,0.1
	c13.4-1.2,26.8-2.5,40.1-3.8c0.9-0.1,1.9,0.2,2.6-0.1c1.1-0.5,2.1-1.4,3.1-2.1c-1-0.7-1.9-2-3-2.1
	C378.6,115,374.1,115.1,369.7,115.1z M289.7,123.3c0.6,0,1.2,0,1.8,0c0.5-1,1.2-2,1.4-3.1c2.9-16.2,5.7-32.4,8.7-48.5
	c0.8-4.2,2.1-8.5,7-9.7c3.9-1,8-1.5,12-2c3.5-0.5,8.2-0.5,8-4.9c-0.2-4.2-4.7-3.9-8.1-3.9c-1.2,0-2.5-0.1-3.7,0
	c-15.1,0.8-30.1,1.6-45.2,2.6c-2.1,0.1-4.3,0.7-6.1,1.6c-4.5,2.3-4.2,6.9-3.4,10.7c0.3,1.3,4,2.5,6.2,2.6c5,0.2,9.9-0.4,14.9-0.5
	c2.8-0.1,4.6,0.9,4.4,4.4c-0.5,12.2-0.9,24.5-0.7,36.7C287,113.9,288.7,118.6,289.7,123.3z"/>
<path id="XMLID_42_" class="st2" d="M561,48.8c11.1-0.3,17.8,6,22.8,14.7c7.9,13.8,10,28.2,3.5,43.1c-6.1,13.9-19.4,19.1-34.2,15.8
	c-12.9-2.8-19.7-11.6-24.1-22.3c-2.1-5.2-2.1-11.9,1.3-17.9c3.2-5.7,4.5-12.6,7.6-18.4C542.3,55.5,551.1,47.7,561,48.8z M544.1,83.2
	c-0.8,6.8,2.2,12.3,6.2,17c2.9,3.4,6.7,7.3,10.8,8.3c7.6,2,16.3-6.8,17.1-16.2c1-12.6-3-23.7-11-33.2c-2.3-2.7-5.7-4.5-9.9-2
	C547.3,63.1,545.1,72.8,544.1,83.2z"/>
<path id="XMLID_12_" class="st2" d="M467.2,122.7c-0.6-0.1-1.2-0.5-1.3-1.2c-1-2.3-1.4-4.6-1.5-6.9c-0.2-5.9,0.4-11.8,0-17.6
	c-0.6-7.6-1.4-15.2-2.9-22.6c-2.7-13.3-2.3-15,10.7-18.6c10.9-3,22.1-4.8,33.1-7.2c3.5-0.8,7-2.3,10.5-2.6c5.2-0.4,8.7,4.4,7,9.4
	c-1.9,5.7-4.1,11.3-6.2,16.9c-5.7,14.9-11.2,29.8-12,46c-0.1,1.1-1,2.2-1.9,3.4c-0.6,0.8-1.7,0.8-2.4,0.1c-1-1.1-2-2.2-2-3.3
	c-0.3-10.7,0.1-21.4-0.2-32.1c-0.1-4.9-0.9-9.8-1.8-14.6c-0.3-1.5-2.1-3.2-3.6-3.9c-7.4-3.8-16.9,0.6-18.2,8.6
	c-1.1,6.4-1.3,13-1.9,19.6c-0.7,7.6-1.2,15.2-2.1,22.7c-0.1,1.2-1,2.3-1.8,3.4C468.4,122.5,467.8,122.7,467.2,122.7L467.2,122.7z"/>
<path id="XMLID_38_" class="st2" d="M453.4,114.8c0.7,2.5,0.5,5.2-0.7,7.5c-0.3,0.7-0.7,1.1-1.1,1.2c-1.9,0.3-4.4-0.7-6-2
	c-2.1-1.7-3.8-4.1-5.2-6.5c-5.9-9.8-18.2-11.9-26.9-4.2c-4.1,3.6-7.6,7.9-11.8,11.4c-1.7,1.5-4.9,3.2-6.5,2.6
	c-3.2-1.3-3.2-4.6-1.8-7.8c3.8-8.3,7.5-16.7,11.3-25c5.1-11.2,10.2-22.5,15.4-33.6c1-2.1,2.1-4.4,3.8-5.7c2.3-1.8,5.7-4.1,8-3.5
	c2.3,0.6,4.4,4.2,5.3,6.9c3.2,10.2,6,20.5,8.8,30.8C448.5,96.2,450.9,105.4,453.4,114.8z M424.2,100.5c9.4-0.1,12-2.5,11-11.9
	C434.6,83.3,433,78,431,73c-2.1-5.4-5.6-5.8-8.7-0.9c-3,4.7-5,10-7.1,15.2C411.6,96.2,414.8,100.6,424.2,100.5z"/>
<path id="XMLID_35_" class="st2" d="M743.8,114.8c0.7,2.5,0.5,5.2-0.7,7.5c-0.3,0.7-0.7,1.1-1.1,1.2c-1.9,0.3-4.4-0.7-6-2
	c-2.1-1.7-3.8-4.1-5.2-6.5c-5.9-9.8-18.2-11.9-26.9-4.2c-4.1,3.6-7.6,7.9-11.8,11.4c-1.7,1.5-4.9,3.2-6.5,2.6
	c-3.2-1.3-3.2-4.6-1.8-7.8c3.8-8.3,7.5-16.7,11.3-25c5.1-11.2,10.2-22.5,15.4-33.6c1-2.1,2.1-4.4,3.8-5.7c2.3-1.8,5.7-4.1,8-3.5
	c2.3,0.6,4.4,4.2,5.3,6.9c3.2,10.2,6,20.5,8.8,30.8C738.9,96.2,741.3,105.4,743.8,114.8z M714.6,100.5c9.4-0.1,12-2.5,11-11.9
	c-0.6-5.3-2.2-10.6-4.2-15.7c-2.1-5.4-5.6-5.8-8.7-0.9c-3,4.7-5,10-7.1,15.2C702,96.2,705.2,100.6,714.6,100.5z"/>
<path id="XMLID_33_" class="st2" d="M814.2,115.9c0.7,2.5,0.5,5.2-0.7,7.5c-0.3,0.7-0.7,1.1-1.1,1.2c-1.9,0.3-4.4-0.7-6-2
	c-2.1-1.7-4.3-4.7-5.2-7.6c-2.9-9.4-3-11.4-5.3-19.9c-1.3-4.7-4.1-23.8-6.5-23.5c-8,1-19.2,37.1-19.8,38.7
	c-1.7,5.2-2.9,9.6-7.1,13.1c-1.7,1.5-4.9,3.2-6.5,2.6c-3.2-1.3-3.2-4.6-1.8-7.8c3.8-8.3,7.5-16.7,11.3-25
	c5.1-11.2,10.2-22.5,15.4-33.6c1-2.1,2.1-4.4,3.8-5.7c2.3-1.8,5.7-4.1,8-3.5c2.3,0.6,4.4,4.2,5.3,6.9c3.2,10.2,6,20.5,8.8,30.8
	C809.2,97.3,811.7,106.5,814.2,115.9z"/>
<path id="XMLID_6_" class="st2" d="M369.7,115.1c4.4,0,8.9-0.1,13.3,0.1c0.2,0,0.4,0.1,0.6,0.2c1.4,0.7,1.4,2.7,0,3.6
	c-0.3,0.2-0.5,0.3-0.8,0.4c-0.8,0.3-1.8,0.1-2.6,0.1c-13.4,1.3-26.8,2.5-40.1,3.8c-1.6,0.1-3.2,0.3-4.8-0.1
	c-5.4-1.1-6.8-3.6-3.7-8.1c3.4-4.9,7.3-9.5,11.5-13.8c4-4.2,8.6-7.9,13.1-11.5c2.8-2.3,2.6-4.1,0-6.4c-5.1-4.5-10.5-8.8-15.1-13.9
	c-2-2.2-3.5-6.2-2.8-8.8c0.6-2.2,4.5-4.7,7.1-5c12.1-1.4,24.4-2.1,36.6-2.8c4.9-0.3,9.7,7.8,7.3,12c-0.6,1-2.6,1.8-3.8,1.6
	c-6.4-1.2-12.7-3-19.1-4c-2.8-0.4-6,0-8.6,1.1c-3.9,1.5-4,4-0.8,7c3.7,3.5,7.4,6.9,11,10.4c4.6,4.5,4.9,7.4,0.5,12.2
	c-3.8,4.1-8.3,7.6-12.4,11.4c-0.8,0.7-1.8,1.3-2.3,2.1c-1,1.5-2.8,3.5-2.4,4.7c0.4,1.3,2.9,2.7,4.6,2.8"/>
<path id="XMLID_5_" class="st2" d="M630.9,115.1c4.4,0,8.9-0.1,13.3,0.1c0.2,0,0.4,0.1,0.6,0.2c1.4,0.7,1.4,2.7,0,3.6
	c-0.3,0.2-0.5,0.3-0.8,0.4c-0.8,0.3-1.8,0.1-2.6,0.1c-13.4,1.3-26.8,2.5-40.1,3.8c-1.6,0.1-3.2,0.3-4.8-0.1
	c-5.4-1.1-6.8-3.6-3.7-8.1c3.4-4.9,7.3-9.5,11.5-13.8c4-4.2,8.6-7.9,13.1-11.5c2.8-2.3,2.6-4.1,0-6.4c-5.1-4.5-10.5-8.8-15.1-13.9
	c-2-2.2-3.5-6.2-2.8-8.8c0.6-2.2,4.5-4.7,7.1-5c12.1-1.4,24.4-2.1,36.6-2.8c4.9-0.3,9.7,7.8,7.3,12c-0.6,1-2.6,1.8-3.8,1.6
	c-6.4-1.2-12.7-3-19.1-4c-2.8-0.4-6,0-8.6,1.1c-3.9,1.5-4,4-0.8,7c3.7,3.5,7.4,6.9,11,10.4c4.6,4.5,4.9,7.4,0.5,12.2
	c-3.8,4.1-8.3,7.6-12.4,11.4c-0.8,0.7-1.8,1.3-2.3,2.1c-1,1.5-2.8,3.5-2.4,4.7c0.4,1.3,2.9,2.7,4.6,2.8"/>
<path id="XMLID_4_" class="st2" d="M289.7,123.3c-0.6-0.4-2.7-9.4-2.8-14.2c-0.2-12.2,0.3-24.5,0.7-36.7c0.1-3.5-1.6-4.5-4.4-4.4
	c-5,0.1-10,0.7-14.9,0.5c-2.2-0.1-5.9-1.3-6.2-2.6c-0.8-3.8-1.1-8.4,3.4-10.7c1.8-0.9,4-1.5,6.1-1.6c15.1-0.9,30.1-1.7,45.2-2.6
	c1.2-0.1,2.5,0,3.7,0c3.4,0,7.9-0.3,8.1,3.9c0.2,4.5-4.5,4.5-8,4.9c-4,0.5-8.1,1-12,2c-4.9,1.2-6.2,5.5-7,9.7
	c-3,16.1-5.8,32.3-8.7,48.5c-0.2,1.1-1.1,2.9-1.4,3.1S290.2,123.7,289.7,123.3z"/>
<path id="XMLID_3_" class="st5" d="M544.1,83.2c1-10.3,3.1-20.1,13.2-26.1c4.1-2.5,7.6-0.7,9.9,2c8,9.5,12,20.7,11,33.2
	c-0.7,9.4-9.5,18.1-17.1,16.2c-4.1-1.1-7.9-4.9-10.8-8.3C546.3,95.5,543.3,90,544.1,83.2z"/>
<path id="XMLID_2_" class="st5" d="M424.2,100.5c-9.5,0.1-12.6-4.3-9-13.2c2.1-5.2,4.1-10.5,7.1-15.2c3.1-4.9,6.6-4.5,8.7,0.9
	c1.9,5,3.6,10.3,4.2,15.7C436.2,98,433.6,100.4,424.2,100.5z"/>
<path id="XMLID_1_" class="st2" d="M822.6,116.9c1.2-1.2,4.7-2.1,5.9-2.1c1.2,0,4.3,2.1,4.6,4.2c0.3,2.1-2.6,5.6-5.3,5.6
	s-4.6-0.8-5.3-2.1C822,121.1,821.4,118,822.6,116.9z"/>
</svg>
