<?xml version="1.0" encoding="utf-8"?>
<!-- Generator: Adobe Illustrator 19.0.0, SVG Export Plug-In . SVG Version: 6.00 Build 0)  -->
<svg version="1.1" id="Layer_1" xmlns="http://www.w3.org/2000/svg" xmlns:xlink="http://www.w3.org/1999/xlink" x="0px" y="0px"
	 viewBox="-240 0 799 800" style="enable-background:new -240 0 799 800;" xml:space="preserve">
<style type="text/css">
	.st0{fill:#070707;}
	.st1{fill:#828282;}
	.st2{fill:#D5BA45;}
	.st3{fill:#5DA52F;}
	.st4{fill:#3058A0;}
	.st5{display:none;}
	.st6{fill:#F9EADC;}
	.st7{opacity:0.7;}
	.st8{fill:#61AF2E;}
	.st9{fill:#330C0C;}
	.st10{opacity:0.5;}
	.st11{fill:#4C4C4C;}
	.st12{fill:#636363;}
	.st13{fill:#FFFFFF;}
</style>
<rect id="XMLID_279_" x="1713.9" class="st0" width="799" height="800"/>
<rect id="XMLID_380_" x="753.9" class="st1" width="799" height="800"/>
<circle id="XMLID_20_" class="st2" cx="2863.3" cy="3783.7" r="161.7"/>
<circle id="XMLID_39_" class="st3" cx="2893.3" cy="4641.7" r="161.7"/>
<circle id="XMLID_40_" class="st4" cx="3298.3" cy="4641.7" r="161.7"/>
<g id="Layer_2" class="st5">
	
		<image style="display:inline;overflow:visible;opacity:0.31;enable-background:new    ;" width="350" height="350" id="XMLID_21_" xlink:href="901F43D2.png"  transform="matrix(0.8229 0 0 0.8229 -1407.5128 268.8172)">
	</image>
</g>
<rect x="-242" y="2329.1" class="st6" width="1092.2" height="624.1"/>
<g>
	<g id="XMLID_31_">
		<path id="XMLID_32_" class="st2" d="M-105.1,2727.8l-10-10l114.4-114.4l-39.8-39.8l9-9l89.5,89.6l-9,9l-39.8-39.8L-105.1,2727.8z"
			/>
	</g>
	<g id="XMLID_29_" class="st7">
		<path id="XMLID_30_" class="st2" d="M52.2,2717.8l-10,10l-114.4-114.4l-39.8,39.8l-9-9l89.5-89.6l9,9l-39.8,39.8L52.2,2717.8z"/>
	</g>
	<polygon id="XMLID_28_" class="st2" points="5,2690.8 -68.3,2690.8 -62.9,2685.4 -0.4,2685.4 	"/>
</g>
<g>
	<g id="XMLID_26_">
		<path id="XMLID_27_" class="st8" d="M-17.8,4380.8l-12.1-12.1l138.4-138.4l-48.1-48.1l10.9-10.9l108.3,108.3l-10.9,10.9
			l-48.1-48.1L-17.8,4380.8z"/>
	</g>
	<g id="XMLID_23_" class="st7">
		<path id="XMLID_25_" class="st8" d="M172.5,4368.7l-12.1,12.1L22,4242.3l-48.1,48.1l-10.9-10.9l108.3-108.3l10.9,10.9l-48.1,48.1
			L172.5,4368.7z"/>
	</g>
	<polygon id="XMLID_22_" class="st8" points="115.7,4336 26.8,4336 33.4,4329.5 109.2,4329.5 	"/>
</g>
<text transform="matrix(1 0 0 1 96.9561 2641.1777)" class="st12" style="font-family:'NotoSans-Light'; font-size:72px;">ΑΛΕΞΑΝΤΕΡ ΤΣΑΠΟ</text>
<text transform="matrix(1 0 0 1 92.9563 2694.1973)" class="st2" style="font-family:'NotoSans-Light'; font-size:34.7758px;">ΔΟΜΗΣΗ - ΑΝΑΚΑΙΝΙΣΗ - ΔΙΑΚΟΣΜΗΣΗ</text>
<text transform="matrix(1 0 0 1 243.5313 4368.0908)"><tspan x="0" y="0" class="st4" style="font-family:'NotoSans-Regular'; font-size:34.6395px;">ΔΟΜΗΣΗ </tspan><tspan x="158.7" y="0" class="st4" style="font-family:'NotoSans-Regular'; font-size:34.6395px;">-</tspan><tspan x="169.8" y="0" class="st4" style="font-family:'NotoSans-Regular'; font-size:34.6395px;"> ΑΝΑΚΑΙΝΙΣΗ </tspan><tspan x="397.2" y="0" class="st4" style="font-family:'NotoSans-Regular'; font-size:34.6395px;">-</tspan><tspan x="408.4" y="0" class="st4" style="font-family:'NotoSans-Regular'; font-size:34.6395px;"> ΔΙΑΚΟΣΜΗΣΗ</tspan></text>
<text transform="matrix(1 0 0 1 96.9561 2791.0078)" class="st12" style="font-family:'NotoSans-Light'; font-size:21px;">693-652-7160</text>
<text transform="matrix(1 0 0 1 546.4421 2791.0078)" class="st12" style="font-family:'NotoSans-Light'; font-size:21px;">tsapoalexanter.gr</text>
<rect x="917.5" y="2329.1" class="st9" width="1092.2" height="624.1"/>
<g>
	<g id="XMLID_36_">
		<path id="XMLID_37_" class="st2" d="M1054.4,2727.8l-10-10l114.4-114.4l-39.8-39.8l9-9l89.6,89.6l-9,9l-39.8-39.8L1054.4,2727.8z"
			/>
	</g>
	<g id="XMLID_34_" class="st7">
		<path id="XMLID_35_" class="st2" d="M1211.7,2717.8l-10,10l-114.4-114.4l-39.8,39.8l-9-9l89.5-89.6l9,9l-39.8,39.8L1211.7,2717.8z
			"/>
	</g>
	<polygon id="XMLID_33_" class="st2" points="1164.5,2690.8 1091.2,2690.8 1096.6,2685.4 1159.1,2685.4 	"/>
</g>
<text transform="matrix(1 0 0 1 1256.4128 2641.1777)" class="st13" style="font-family:'NotoSans-Light'; font-size:72px;">ΑΛΕΞΑΝΤΕΡ ΤΣΑΠΟ</text>
<text transform="matrix(1 0 0 1 1252.4131 2694.1973)" class="st2" style="font-family:'NotoSans-Light'; font-size:34.7758px;">ΔΟΜΗΣΗ - ΑΝΑΚΑΙΝΙΣΗ - ΔΙΑΚΟΣΜΗΣΗ</text>
<text transform="matrix(1 0 0 1 1256.4128 2791.0078)" class="st13" style="font-family:'NotoSans-Light'; font-size:21px;">693-652-7160</text>
<text transform="matrix(1 0 0 1 1705.8989 2791.0078)" class="st13" style="font-family:'NotoSans-Light'; font-size:21px;">tsapoalexanter.gr</text>
<path class="st6" d="M848.2,2257.8H-240c-1.1,0-2-0.9-2-2v-620.1c0-1.1,0.9-2,2-2H848.2c1.1,0,2,0.9,2,2v620.1
	C850.2,2256.9,849.4,2257.8,848.2,2257.8z"/>
<g>
	<g id="XMLID_13_">
		<path id="XMLID_14_" class="st2" d="M227.6,1913.5l-10-10L332,1789l-39.8-39.8l9-9l89.5,89.5l-9,9L342,1799L227.6,1913.5z"/>
	</g>
	<g id="XMLID_11_" class="st7">
		<path id="XMLID_12_" class="st2" d="M384.8,1903.4l-10,10L260.4,1799l-39.8,39.8l-9-9l89.5-89.5l9,9l-39.8,39.8L384.8,1903.4z"/>
	</g>
	<polygon id="XMLID_10_" class="st2" points="337.6,1876.5 264.4,1876.5 269.8,1871.1 332.2,1871.1 	"/>
</g>
<text transform="matrix(1 0 0 1 6.4423 2014.0339)" class="st12" style="font-family:'NotoSans-Light'; font-size:72px;">ΑΛΕΞΑΝΤΕΡ ΤΣΑΠΟ</text>
<text transform="matrix(1 0 0 1 2.4423 2067.0535)" class="st2" style="font-family:'NotoSans-Light'; font-size:34.7758px;">ΔΟΜΗΣΗ - ΑΝΑΚΑΙΝΙΣΗ - ΔΙΑΚΟΣΜΗΣΗ</text>
<text transform="matrix(1 0 0 1 6.4423 2160.5647)" class="st12" style="font-family:'NotoSans-Light'; font-size:21px;">693-652-7160</text>
<text transform="matrix(1 0 0 1 462.4422 2160.5647)" class="st12" style="font-family:'NotoSans-Light'; font-size:21px;">tsapoalexanter.gr</text>
<path class="st9" d="M2010.8,2257.8H922.6c-1.1,0-2-0.9-2-2v-620.1c0-1.1,0.9-2,2-2h1088.2c1.1,0,2,0.9,2,2v620.1
	C2012.8,2256.9,2012,2257.8,2010.8,2257.8z"/>
<g>
	<g id="XMLID_18_">
		<path id="XMLID_19_" class="st2" d="M1390.2,1913.5l-10-10l114.4-114.4l-39.8-39.8l9-9l89.6,89.5l-9,9l-39.8-39.8L1390.2,1913.5z"
			/>
	</g>
	<g id="XMLID_16_" class="st7">
		<path id="XMLID_17_" class="st2" d="M1547.4,1903.4l-10,10L1423,1799l-39.8,39.8l-9-9l89.5-89.5l9,9L1433,1789L1547.4,1903.4z"/>
	</g>
	<polygon id="XMLID_15_" class="st2" points="1500.2,1876.5 1427,1876.5 1432.4,1871.1 1494.8,1871.1 	"/>
</g>
<text transform="matrix(1 0 0 1 1169.0424 2014.0339)" class="st13" style="font-family:'NotoSans-Light'; font-size:72px;">ΑΛΕΞΑΝΤΕΡ ΤΣΑΠΟ</text>
<text transform="matrix(1 0 0 1 1165.0424 2067.0535)" class="st2" style="font-family:'NotoSans-Light'; font-size:34.7758px;">ΔΟΜΗΣΗ - ΑΝΑΚΑΙΝΙΣΗ - ΔΙΑΚΟΣΜΗΣΗ</text>
<text transform="matrix(1 0 0 1 1169.0424 2160.5647)" class="st13" style="font-family:'NotoSans-Light'; font-size:21px;">693-652-7160</text>
<text transform="matrix(1 0 0 1 1625.0421 2160.5647)" class="st13" style="font-family:'NotoSans-Light'; font-size:21px;">tsapoalexanter.gr</text>
<path class="st6" d="M-245.8,3748.5H842.4c1.1,0,2-0.9,2-2v-620.1c0-1.1-0.9-2-2-2H-245.8c-1.1,0-2,0.9-2,2v620.1
	C-247.8,3747.6-246.9,3748.5-245.8,3748.5z"/>
<g class="st10">
	<g id="XMLID_8_">
		<path id="XMLID_9_" class="st2" d="M-338.4,3795.7l-41.5-41.5l474.8-474.8l-165-165l37.3-37.3l371.5,371.5l-37.3,37.3l-165-165
			L-338.4,3795.7z"/>
	</g>
	<g id="XMLID_5_" class="st7">
		<path id="XMLID_7_" class="st2" d="M314.2,3754.2l-41.5,41.5l-474.8-474.8l-165,165l-37.3-37.3l371.5-371.5l37.3,37.3l-165,165
			L314.2,3754.2z"/>
	</g>
	<polygon id="XMLID_1_" class="st2" points="118.3,3642.2 -185.6,3642.2 -163.3,3619.9 95.9,3619.9 	"/>
</g>
<rect x="-247.8" y="3748.5" class="st11" width="1129.1" height="91.5"/>
<rect x="-247.8" y="3002.5" class="st11" width="1092.2" height="121.8"/>
<rect x="-404.4" y="3002.5" class="st11" width="156.6" height="867.8"/>
<text transform="matrix(1 0 0 1 20.6343 3463.396)" class="st12" style="font-family:'NotoSans-Light'; font-size:72px;">ΑΛΕΞΑΝΤΕΡ ΤΣΑΠΟ</text>
<text transform="matrix(1 0 0 1 199.1253 3719.8257)" class="st12" style="font-family:'NotoSans-Light'; font-size:34.7758px;">ΔΟΜΗΣΗ - ΑΝΑΚΑΙΝΙΣΗ - ΔΙΑΚΟΣΜΗΣΗ</text>
<text transform="matrix(1 0 0 1 -209.8503 3169.3545)" class="st12" style="font-family:'NotoSans-Light'; font-size:24px;">tsapoalexanter.gr</text>
<text transform="matrix(1 0 0 1 251.7921 3535.1685)" class="st12" style="font-family:'NotoSans-Light'; font-size:25px;">693 6527160</text>
<circle class="st12" cx="3298.3" cy="3783.7" r="161.7"/>
<path class="st13" d="M571.3,4204.8c-11.2-1.3-21.1,7.6-26,16.8c-3.5,6.5-4.9,14.3-8.6,20.8c-3.8,6.8-3.9,14.4-1.5,20.2
	c4.9,12,12.6,21.9,27.1,25.1c16.7,3.7,31.6-2.2,38.5-17.8c7.4-16.7,5-33-3.9-48.5C591.3,4211.5,583.7,4204.4,571.3,4204.8z
	 M464.4,4287.8c0.8,0.1,1.5,0.2,2.3,0.3c0.9-1.6,2.4-3,2.6-4.7c1-8.5,1.6-17.1,2.4-25.6c0.7-7.3,0.9-14.8,2.1-22
	c1.5-9,12.2-14,20.5-9.7c1.7,0.9,3.7,2.7,4,4.4c1.1,5.4,1.9,10.9,2.1,16.5c0.3,12-0.1,24.1,0.2,36.1c0,1.8,2.4,3.6,3.6,5.3
	c1.2-1.8,3.3-3.6,3.4-5.5c0.9-18.2,7.1-35,13.5-51.7c2.4-6.3,4.9-12.6,7-19c1.9-5.7-1.9-11.1-7.8-10.6c-4,0.3-7.9,2.1-11.8,3
	c-12.4,2.7-25,4.8-37.2,8.1c-14.6,4-15.1,6-12,21c1.7,8.4,2.6,16.9,3.3,25.4c0.5,6.6-0.3,13.2,0,19.8
	C462.5,4281.9,463.7,4284.8,464.4,4287.8z M451.2,4283.2c-3.2-12-6.3-23.7-9.5-35.4c-3.2-11.6-6.3-23.2-9.9-34.6
	c-1-3.1-3.4-7.1-6-7.8c-2.5-0.7-6.3,1.9-9,3.9c-1.9,1.5-3.2,4.1-4.3,6.4c-5.8,12.6-11.6,25.2-17.3,37.9c-4.3,9.4-8.4,18.8-12.7,28.2
	c-1.6,3.6-1.6,7.3,2,8.7c1.8,0.7,5.4-1.2,7.3-2.9c4.7-4,8.7-8.8,13.3-12.9c9.8-8.7,23.6-6.3,30.3,4.8c1.6,2.7,3.5,5.3,5.9,7.3
	c1.8,1.5,4.7,2.6,6.8,2.3C449.4,4288.7,450.1,4285.3,451.2,4283.2z M355.8,4279.5c0-0.2,0-0.4,0-0.6c-5.2,0-10.4,0.3-15.6-0.1
	c-1.9-0.2-4.7-1.6-5.2-3.1c-0.4-1.3,1.6-3.6,2.7-5.3c0.6-1,1.7-1.6,2.6-2.4c4.7-4.3,9.7-8.2,14-12.9c5-5.4,4.7-8.7-0.5-13.8
	c-4.1-4-8.3-7.8-12.4-11.8c-3.6-3.4-3.5-6.2,1-7.9c3-1.1,6.6-1.7,9.7-1.2c7.2,1.1,14.3,3.2,21.5,4.5c1.3,0.2,3.6-0.7,4.3-1.8
	c2.7-4.7-2.7-13.9-8.2-13.6c-13.7,0.8-27.5,1.7-41.2,3.2c-3,0.3-7.3,3.1-8,5.6c-0.8,2.9,0.9,7.5,3.1,9.9c5.2,5.7,11.2,10.6,17,15.6
	c2.9,2.6,3.1,4.6-0.1,7.2c-5.1,4.1-10.2,8.3-14.7,13c-4.7,4.8-9.1,10-12.9,15.5c-3.4,5-1.8,7.9,4.2,9.1c1.7,0.3,3.6,0.2,5.4,0.1
	c15.1-1.4,30.1-2.8,45.2-4.3c1-0.1,2.1,0.2,3-0.2c1.3-0.5,2.3-1.5,3.5-2.3c-1.1-0.8-2.2-2.3-3.3-2.4
	C365.8,4279.3,360.8,4279.5,355.8,4279.5z M265.7,4288.7c0.7,0,1.4,0,2.1,0c0.6-1.2,1.4-2.3,1.6-3.5c3.3-18.2,6.5-36.4,9.8-54.6
	c0.9-4.7,2.4-9.6,7.9-11c4.4-1.1,9-1.7,13.5-2.3c4-0.5,9.2-0.5,9-5.6c-0.2-4.8-5.3-4.4-9.1-4.4c-1.4,0-2.8-0.1-4.2,0
	c-17,0.9-33.9,1.8-50.9,2.9c-2.3,0.1-4.8,0.8-6.9,1.8c-5.1,2.6-4.7,7.7-3.9,12c0.3,1.4,4.5,2.9,6.9,3c5.6,0.2,11.2-0.5,16.8-0.6
	c3.2-0.1,5.1,1,5,5c-0.5,13.8-1,27.5-0.8,41.3C262.7,4278.1,264.6,4283.4,265.7,4288.7z"/>
<path class="st4" d="M571.3,4204.8c12.5-0.4,20,6.8,25.7,16.5c8.9,15.5,11.3,31.8,3.9,48.5c-6.9,15.6-21.8,21.5-38.5,17.8
	c-14.5-3.2-22.2-13.1-27.1-25.1c-2.4-5.8-2.4-13.4,1.5-20.2c3.6-6.5,5-14.2,8.6-20.8C550.2,4212.4,560,4203.5,571.3,4204.8z
	 M552.2,4243.5c-0.9,7.6,2.5,13.9,6.9,19.2c3.3,3.9,7.6,8.2,12.2,9.4c8.5,2.2,18.4-7.7,19.2-18.2c1.1-14.1-3.4-26.7-12.4-37.4
	c-2.5-3-6.4-5-11.1-2.2C555.7,4220.9,553.3,4231.9,552.2,4243.5z"/>
<path class="st4" d="M465.6,4288c-0.7-0.1-1.3-0.6-1.5-1.3c-1.1-2.6-1.6-5.2-1.7-7.8c-0.2-6.6,0.5-13.3,0-19.8
	c-0.6-8.5-1.6-17.1-3.3-25.4c-3-15-2.6-16.9,12-21c12.2-3.4,24.8-5.4,37.2-8.1c4-0.9,7.8-2.6,11.8-3c5.9-0.5,9.8,4.9,7.8,10.6
	c-2.1,6.4-4.6,12.7-7,19c-6.4,16.8-12.6,33.5-13.5,51.7c-0.1,1.3-1.1,2.5-2.1,3.8c-0.7,0.8-2,0.9-2.7,0.1c-1.1-1.2-2.2-2.4-2.3-3.7
	c-0.3-12,0.1-24.1-0.2-36.1c-0.1-5.5-1-11-2.1-16.5c-0.3-1.7-2.3-3.6-4-4.4c-8.3-4.3-19.1,0.6-20.5,9.7c-1.2,7.3-1.4,14.7-2.1,22
	c-0.8,8.5-1.4,17.1-2.4,25.6c-0.2,1.3-1.2,2.5-2,3.8C466.9,4287.7,466.3,4288,465.6,4288L465.6,4288z"/>
<path class="st4" d="M450.1,4279.2c0.7,2.8,0.5,5.8-0.8,8.4c-0.4,0.7-0.8,1.3-1.3,1.4c-2.1,0.4-5-0.8-6.8-2.3
	c-2.4-1.9-4.3-4.6-5.9-7.3c-6.7-11.1-20.5-13.4-30.3-4.8c-4.6,4.1-8.6,8.9-13.3,12.9c-2,1.7-5.5,3.6-7.3,2.9c-3.6-1.4-3.6-5.2-2-8.7
	c4.3-9.4,8.5-18.8,12.7-28.2c5.7-12.6,11.4-25.3,17.3-37.9c1.1-2.3,2.3-4.9,4.3-6.4c2.6-2,6.5-4.6,9-3.9c2.6,0.7,5,4.7,6,7.8
	c3.6,11.4,6.7,23.1,9.9,34.6C444.6,4258.1,447.3,4268.5,450.1,4279.2z M417.2,4263c10.5-0.1,13.5-2.8,12.3-13.4
	c-0.7-6-2.5-12-4.7-17.6c-2.3-6-6.3-6.5-9.8-1c-3.4,5.3-5.7,11.3-8,17.2C403,4258.1,406.6,4263.1,417.2,4263z"/>
<path class="st4" d="M777.1,4279.2c0.7,2.8,0.5,5.8-0.8,8.4c-0.4,0.7-0.8,1.3-1.3,1.4c-2.1,0.4-5-0.8-6.8-2.3
	c-2.4-1.9-4.3-4.6-5.9-7.3c-6.7-11.1-20.5-13.4-30.3-4.8c-4.6,4.1-8.6,8.9-13.3,12.9c-2,1.7-5.5,3.6-7.3,2.9c-3.6-1.4-3.6-5.2-2-8.7
	c4.3-9.4,8.5-18.8,12.7-28.2c5.7-12.6,11.4-25.3,17.3-37.9c1.1-2.3,2.3-4.9,4.3-6.4c2.6-2,6.5-4.6,9-3.9c2.6,0.7,5,4.7,6,7.8
	c3.6,11.4,6.7,23.1,9.9,34.6C771.5,4258.1,774.3,4268.5,777.1,4279.2z M744.2,4263c10.5-0.1,13.5-2.8,12.3-13.4
	c-0.7-6-2.5-12-4.7-17.6c-2.3-6-6.3-6.5-9.8-1c-3.4,5.3-5.7,11.3-8,17.2C730,4258.1,733.5,4263.1,744.2,4263z"/>
<path class="st4" d="M856.3,4280.4c0.7,2.8,0.5,5.8-0.8,8.4c-0.4,0.7-0.8,1.3-1.3,1.4c-2.1,0.4-5-0.8-6.8-2.3
	c-2.4-1.9-4.8-5.3-5.8-8.5c-3.3-10.6-3.4-12.9-6-22.5c-1.4-5.3-4.6-26.8-7.4-26.5c-9,1.1-21.7,41.8-22.3,43.6
	c-2,5.8-3.3,10.8-8,14.8c-2,1.7-5.5,3.6-7.3,2.9c-3.6-1.4-3.6-5.2-2-8.7c4.3-9.4,8.5-18.8,12.7-28.2c5.7-12.6,11.4-25.3,17.3-37.9
	c1.1-2.3,2.3-4.9,4.3-6.4c2.6-2,6.5-4.6,9-3.9c2.6,0.7,5,4.7,6,7.8c3.6,11.4,6.7,23.1,9.9,34.6
	C850.7,4259.3,853.5,4269.7,856.3,4280.4z"/>
<path class="st4" d="M355.8,4279.5c5,0,10-0.1,15,0.1c0.2,0,0.5,0.1,0.7,0.2c1.6,0.8,1.6,3.1,0.1,4c-0.3,0.2-0.6,0.3-0.9,0.5
	c-0.9,0.4-2,0.1-3,0.2c-15.1,1.4-30.1,2.9-45.2,4.3c-1.8,0.2-3.7,0.3-5.4-0.1c-6-1.2-7.6-4.1-4.2-9.1c3.8-5.5,8.2-10.7,12.9-15.5
	c4.5-4.7,9.6-8.9,14.7-13c3.2-2.6,3-4.6,0.1-7.2c-5.8-5.1-11.8-10-17-15.6c-2.2-2.4-3.9-7-3.1-9.9c0.7-2.5,5-5.3,8-5.6
	c13.7-1.5,27.4-2.4,41.2-3.2c5.5-0.3,11,8.8,8.2,13.6c-0.6,1.1-2.9,2.1-4.3,1.8c-7.2-1.3-14.3-3.4-21.5-4.5c-3.1-0.5-6.7,0-9.7,1.2
	c-4.4,1.7-4.5,4.5-1,7.9c4.1,3.9,8.4,7.8,12.4,11.8c5.2,5.1,5.6,8.4,0.5,13.8c-4.3,4.6-9.3,8.6-14,12.9c-0.9,0.8-2,1.4-2.6,2.4
	c-1.2,1.7-3.2,4-2.7,5.3c0.5,1.5,3.3,3,5.2,3.1"/>
<path class="st4" d="M650,4279.5c5,0,10-0.1,15,0.1c0.2,0,0.5,0.1,0.7,0.2c1.6,0.8,1.6,3.1,0.1,4c-0.3,0.2-0.6,0.3-0.9,0.5
	c-0.9,0.4-2,0.1-3,0.2c-15.1,1.4-30.1,2.9-45.2,4.3c-1.8,0.2-3.7,0.3-5.4-0.1c-6-1.2-7.6-4.1-4.2-9.1c3.8-5.5,8.2-10.7,12.9-15.5
	c4.5-4.7,9.6-8.9,14.7-13c3.2-2.6,3-4.6,0.1-7.2c-5.8-5.1-11.8-10-17-15.6c-2.2-2.4-3.9-7-3.1-9.9c0.7-2.5,5-5.3,8-5.6
	c13.7-1.5,27.4-2.4,41.2-3.2c5.5-0.3,11,8.8,8.2,13.6c-0.6,1.1-2.9,2.1-4.3,1.8c-7.2-1.3-14.3-3.4-21.5-4.5c-3.1-0.5-6.7,0-9.7,1.2
	c-4.4,1.7-4.5,4.5-1,7.9c4.1,3.9,8.4,7.8,12.4,11.8c5.2,5.1,5.6,8.4,0.5,13.8c-4.3,4.6-9.3,8.6-14,12.9c-0.9,0.8-2,1.4-2.6,2.4
	c-1.2,1.7-3.2,4-2.7,5.3c0.5,1.5,3.3,3,5.2,3.1"/>
<path class="st4" d="M265.7,4288.7c-0.7-0.4-3-10.6-3.1-15.9c-0.2-13.8,0.3-27.5,0.8-41.3c0.2-4-1.8-5-5-5
	c-5.6,0.1-11.2,0.8-16.8,0.6c-2.5-0.1-6.7-1.5-6.9-3c-0.9-4.3-1.3-9.4,3.9-12c2.1-1.1,4.6-1.7,6.9-1.8c17-1.1,33.9-2,50.9-2.9
	c1.4-0.1,2.8,0,4.2,0c3.8,0,8.9-0.3,9.1,4.4c0.2,5-5,5-9,5.6c-4.5,0.6-9.1,1.2-13.5,2.3c-5.5,1.4-7,6.2-7.9,11
	c-3.4,18.2-6.5,36.4-9.8,54.6c-0.2,1.2-1.2,3.3-1.6,3.5C267.4,4288.9,266.3,4289.1,265.7,4288.7z"/>
<path class="st13" d="M552.2,4243.5c1.1-11.6,3.5-22.6,14.8-29.3c4.7-2.8,8.6-0.8,11.1,2.2c9,10.7,13.6,23.3,12.4,37.4
	c-0.8,10.5-10.7,20.4-19.2,18.2c-4.6-1.2-8.9-5.5-12.2-9.4C554.7,4257.4,551.3,4251.2,552.2,4243.5z"/>
<path class="st13" d="M417.2,4263c-10.7,0.1-14.2-4.9-10.2-14.8c2.4-5.9,4.7-11.9,8-17.2c3.5-5.6,7.5-5.1,9.8,1
	c2.2,5.7,4,11.6,4.7,17.6C430.7,4260.2,427.8,4262.9,417.2,4263z"/>
<path class="st4" d="M865.8,4281.4c1.4-1.3,5.3-2.4,6.7-2.4c1.3,0,4.8,2.3,5.2,4.7c0.4,2.4-2.9,6.3-5.9,6.3c-3,0-5.2-0.9-5.9-2.4
	S864.4,4282.7,865.8,4281.4z"/>
<g>
	<g id="XMLID_6_">
		<path id="XMLID_24_" class="st8" d="M-16.2,602.5l-23.9-23.9l273-273l-94.9-94.9l21.4-21.4l213.7,213.7l-21.4,21.4l-94.9-94.9
			L-16.2,602.5z"/>
	</g>
	<g id="XMLID_3_" class="st7">
		<path id="XMLID_4_" class="st8" d="M359.1,578.6l-23.9,23.9l-273-273l-94.9,94.9l-21.4-21.4l213.7-213.7l21.4,21.4L86,305.6
			L359.1,578.6z"/>
	</g>
	<polygon id="XMLID_2_" class="st8" points="247,514.2 71.7,514.2 84.6,501.4 234.1,501.4 	"/>
</g>
<g>
	<g id="XMLID_44_">
		<path id="XMLID_45_" class="st8" d="M977.7,602.5l-23.9-23.9l273-273l-94.9-94.9l21.4-21.4L1367,402.9l-21.4,21.4l-94.9-94.9
			L977.7,602.5z"/>
	</g>
	<g id="XMLID_41_" class="st7">
		<path id="XMLID_43_" class="st8" d="M1353,578.6l-23.9,23.9l-273-273l-94.9,94.9l-21.4-21.4l213.7-213.7l21.4,21.4l-94.9,94.9
			L1353,578.6z"/>
	</g>
	<polygon id="XMLID_38_" class="st8" points="1240.9,514.2 1065.6,514.2 1078.5,501.4 1228,501.4 	"/>
</g>
<g>
	<g id="XMLID_49_">
		<path id="XMLID_50_" class="st8" d="M1937.7,602.5l-23.9-23.9l273-273l-94.9-94.9l21.4-21.4L2327,402.9l-21.4,21.4l-94.9-94.9
			L1937.7,602.5z"/>
	</g>
	<g id="XMLID_47_" class="st7">
		<path id="XMLID_48_" class="st8" d="M2313,578.6l-23.9,23.9l-273-273l-94.9,94.9l-21.4-21.4l213.7-213.7l21.4,21.4l-94.9,94.9
			L2313,578.6z"/>
	</g>
	<polygon id="XMLID_46_" class="st8" points="2200.9,514.2 2025.6,514.2 2038.5,501.4 2188,501.4 	"/>
</g>
</svg>
