<?xml version="1.0" encoding="utf-8"?>
<!-- Generator: Adobe Illustrator 19.0.0, SVG Export Plug-In . SVG Version: 6.00 Build 0)  -->
<svg version="1.1" id="Layer_1" xmlns="http://www.w3.org/2000/svg" xmlns:xlink="http://www.w3.org/1999/xlink" x="0px" y="0px"
	 viewBox="0 0 381.3 381.3" style="enable-background:new 0 0 381.3 381.3;" xml:space="preserve">
<style type="text/css">
	.st0{fill:#BF5004;}
</style>
<image style="display:none;overflow:visible;opacity:0.58;" width="800" height="800" xlink:href="../../../../../FORMAT/Stuff/Logos/bell.jpg"  transform="matrix(0.5925 0 0 0.5925 -23.3333 -30.6667)">
</image>
<rect x="124.5" y="93.5" class="st0" width="134" height="6"/>
<g>
	<line class="st0" x1="147.7" y1="185.5" x2="234.3" y2="185.5"/>
	<rect x="147.7" y="182.5" class="st0" width="86.7" height="6"/>
</g>
<rect x="48" y="109.5" class="st0" width="133.3" height="6"/>
<polygon class="st0" points="181.3,273.5 175.3,273 175.3,109.5 181.3,109.5 "/>
<path class="st0" d="M181.3,273.5l-12.6-1c-9.2-0.7-18.2-2.5-27-5.2l-13.2-4.1v-6l13.2,4.1c8.8,2.7,17.9,4.5,27,5.2l12.6,1V273.5z"
	/>
<g>
	<line class="st0" x1="330.3" y1="112.5" x2="203" y2="112.5"/>
	<rect x="200" y="109.5" class="st0" width="133.3" height="6"/>
</g>
<polygon class="st0" points="200,273.5 206,273 206,109.5 200,109.5 "/>
<path class="st0" d="M200,273.5l12.6-1c9.2-0.7,18.2-2.5,27-5.2l13.2-4.1v-6l-13.2,4.1c-8.8,2.7-17.9,4.5-27,5.2l-12.6,1V273.5z"/>
<path class="st0" d="M191.5,305.7c-12.5,0-22.7-10.2-22.7-22.7h6c0,9.2,7.5,16.7,16.7,16.7V305.7z"/>
<path class="st0" d="M191.5,305.7v-6c9.2,0,16.7-7.5,16.7-16.7h6C214.2,295.5,204,305.7,191.5,305.7z"/>
</svg>
