<?xml version="1.0" encoding="utf-8"?>
<!-- Generator: Adobe Illustrator 19.0.0, SVG Export Plug-In . SVG Version: 6.00 Build 0)  -->
<svg version="1.1" id="Layer_1" xmlns="http://www.w3.org/2000/svg" xmlns:xlink="http://www.w3.org/1999/xlink" x="0px" y="0px"
	 viewBox="0 0 681 525.9" style="enable-background:new 0 0 681 525.9;" xml:space="preserve">
<style type="text/css">
	.st0{fill:#F3F4F5;}
	.st1{opacity:0.8;fill:#CFD0D1;}
	.st2{fill:#FFFFFF;}
	.st3{fill:#B1B1B1;}
	.st4{fill:#FFFFFF;stroke:#B3B3B3;stroke-width:2;stroke-miterlimit:10;}
	.st5{font-family:'Ebrima-Bold';}
	.st6{font-size:82px;}
	.st7{font-family:'MyriadPro-Regular';}
</style>
<circle id="XMLID_4_" class="st0" cx="341.3" cy="242.6" r="117.9"/>
<path id="XMLID_6_" class="st1" d="M223.5,236.9c3.2-65.1,58.5-115.2,123.5-112.1s115.2,58.5,112.1,123.5"/>
<circle id="XMLID_7_" cx="341.3" cy="242.6" r="40.3"/>
<circle id="XMLID_5_" class="st2" cx="360.2" cy="233" r="7.9"/>
<g id="XMLID_8_">
	<path id="XMLID_119_" class="st2" d="M381.6,375.6l28.8-15.7c57.3-31.4,82.9-101,59.4-162l-11.9-30.8l53,19.4l111.6,134.9
		l-15.6,42.6L434.6,395L381.6,375.6z"/>
	<path id="XMLID_116_" class="st3" d="M462.2,171.3l47.2,17.3l110.2,133.3L605,361.7l-170.2,30.7l-47.2-17.3l23.9-13.1
		c58.7-32.1,84.5-102.7,60.5-165.1L462.2,171.3 M453.6,162.8l4,10.3l9.9,25.7c23,59.8-2,128.1-58.3,158.9l-23.9,13.1l-9.7,5.3
		l10.4,3.8l47.2,17.3l1.3,0.5l1.3-0.2l170.2-30.7l2.8-0.5l1-2.7l14.6-39.9l1-2.7l-1.8-2.2L513.2,185.4l-0.9-1l-1.3-0.5l-47.2-17.3
		L453.6,162.8L453.6,162.8z"/>
</g>
<g id="XMLID_10_">
	<path id="XMLID_26_" class="st2" d="M170.8,298.5L59.2,163.6L74.8,121L247.1,90l53,19.4l-28.9,15.9
		c-57.3,31.5-82.7,101.1-59.1,162.1l11.8,30.6L170.8,298.5z"/>
	<path id="XMLID_23_" class="st3" d="M246.8,92.5l47.2,17.3L269.9,123c-58.6,32.2-84.4,102.8-60.3,165.2l9.8,25.4l-47.2-17.3
		L62.1,163.1l14.6-39.9L246.8,92.5 M247.3,87.4l-1.3,0.2L75.8,118.3l-2.8,0.5l-1,2.7l-14.6,39.9l-1,2.7l1.8,2.2l110.2,133.3l0.9,1
		l1.3,0.5l47.2,17.3l10.4,3.8l-4-10.3l-9.8-25.4c-23.1-59.8,1.8-128.1,58-159l24.1-13.2l9.6-5.3l-10.3-3.8l-47.2-17.3L247.3,87.4
		L247.3,87.4z"/>
</g>
<text transform="matrix(1.07 0 0 0.5 202.9894 518.974)" class="st4 st5 st6">ELIDA</text>
<text transform="matrix(1 0 0 0.5 448.7301 518.974)" class="st4 st7 st6"> </text>
</svg>
