<?xml version="1.0" encoding="utf-8"?>
<!-- Generator: Adobe Illustrator 19.0.0, SVG Export Plug-In . SVG Version: 6.00 Build 0)  -->
<svg version="1.1" xmlns="http://www.w3.org/2000/svg" xmlns:xlink="http://www.w3.org/1999/xlink" x="0px" y="0px"
	 viewBox="0 0 450 450" style="enable-background:new 0 0 450 450;" xml:space="preserve">
<style type="text/css">
	.st0{fill:#CBAB80;}
	.st1{display:none;}
</style>
<g id="Layer_1">
	<g id="XMLID_15_">
		<polygon id="XMLID_6_" class="st0" points="163.6,227 161.3,224.7 268.3,117.7 268.3,122.3 		"/>
		<polygon id="XMLID_8_" class="st0" points="268.9,332.2 161.3,224.7 163.6,222.5 268.9,327.7 		"/>
		<polygon id="XMLID_7_" class="st0" points="181.7,332.2 181.7,327.7 286.4,223 288.7,225.3 		"/>
		<polygon id="XMLID_9_" class="st0" points="286.4,227.5 181.1,122.3 181.1,117.7 288.7,225.3 		"/>
		<rect id="XMLID_10_" x="165" y="222" class="st0" width="44" height="4"/>
		<polygon id="XMLID_11_" class="st0" points="184,329.5 181,332.7 181,284 184,284 		"/>
	</g>
	<g id="XMLID_12_">
		<path id="XMLID_13_" class="st0" d="M68.9,394.9v5.4h4c0.6,0,1.1,0,1.4-0.1s0.7-0.2,0.9-0.4c0.2-0.2,0.4-0.4,0.4-0.6
			c0.1-0.3,0.1-0.5,0.2-0.9h0.5v4.8h-0.5c-0.1-0.4-0.1-0.7-0.2-1c-0.1-0.3-0.2-0.5-0.4-0.6c-0.2-0.2-0.5-0.3-0.8-0.3
			c-0.4-0.1-0.8-0.1-1.4-0.1h-4v4.5c0,0.3,0,0.6,0,0.8c0,0.2,0.1,0.4,0.2,0.5c0.1,0.1,0.2,0.2,0.4,0.2c0.2,0,0.5,0,0.9,0h3.1
			c0.5,0,1,0,1.3,0c0.4,0,0.7-0.1,0.9-0.1s0.5-0.1,0.7-0.3c0.2-0.1,0.4-0.2,0.6-0.4c0.5-0.4,1.1-1,1.7-1.9h0.5l-1.6,3.5H63.7v-0.4
			h0.6c0.2,0,0.4,0,0.5,0s0.4-0.1,0.5-0.1c0.2-0.1,0.3-0.1,0.5-0.2c0.1-0.1,0.2-0.2,0.3-0.3c0.1-0.2,0.2-0.7,0.2-1.3v-8.9
			c0-0.9-0.1-1.4-0.3-1.6c-0.3-0.3-0.9-0.4-1.6-0.4h-0.6v-0.4h14.2v3h-0.3c-0.1-0.5-0.3-0.9-0.4-1.2c-0.2-0.3-0.4-0.5-0.6-0.7
			s-0.6-0.3-1-0.3c-0.4,0-0.9-0.1-1.5-0.1H68.9z"/>
		<path id="XMLID_16_" class="st0" d="M113.6,394.2v0.4c-0.4,0.1-0.7,0.1-1,0.2c-0.3,0.1-0.5,0.2-0.7,0.4s-0.4,0.4-0.6,0.6
			c-0.2,0.2-0.3,0.5-0.5,0.8l-6.4,11.7h-0.5L97,396.4c-0.2-0.4-0.4-0.7-0.6-0.9c-0.2-0.2-0.4-0.4-0.6-0.5c-0.2-0.1-0.4-0.2-0.7-0.3
			c-0.3-0.1-0.6-0.1-1.1-0.1v-0.4h7.5v0.4c-0.4,0-0.8,0.1-1.1,0.1s-0.5,0.1-0.6,0.2c-0.1,0.1-0.2,0.2-0.3,0.3c0,0.1-0.1,0.2-0.1,0.3
			c0,0.3,0.2,0.9,0.6,1.6l4.7,8.1l4.3-8c0.4-0.8,0.6-1.3,0.6-1.6c0-0.2-0.1-0.4-0.4-0.6c-0.3-0.2-0.8-0.3-1.5-0.4v-0.4H113.6z"/>
		<path id="XMLID_18_" class="st0" d="M133.5,394.9v5.4h4c0.6,0,1.1,0,1.4-0.1s0.7-0.2,0.9-0.4c0.2-0.2,0.4-0.4,0.4-0.6
			c0.1-0.3,0.1-0.5,0.2-0.9h0.5v4.8h-0.5c-0.1-0.4-0.1-0.7-0.2-1c-0.1-0.3-0.2-0.5-0.4-0.6c-0.2-0.2-0.5-0.3-0.8-0.3
			c-0.4-0.1-0.8-0.1-1.4-0.1h-4v4.5c0,0.3,0,0.6,0,0.8c0,0.2,0.1,0.4,0.2,0.5c0.1,0.1,0.2,0.2,0.4,0.2c0.2,0,0.5,0,0.9,0h3.1
			c0.5,0,1,0,1.3,0c0.4,0,0.7-0.1,0.9-0.1s0.5-0.1,0.7-0.3c0.2-0.1,0.4-0.2,0.6-0.4c0.5-0.4,1.1-1,1.7-1.9h0.5l-1.6,3.5h-14.2v-0.4
			h0.6c0.2,0,0.4,0,0.5,0s0.4-0.1,0.5-0.1c0.2-0.1,0.3-0.1,0.5-0.2c0.1-0.1,0.2-0.2,0.3-0.3c0.1-0.2,0.2-0.7,0.2-1.3v-8.9
			c0-0.9-0.1-1.4-0.3-1.6c-0.3-0.3-0.9-0.4-1.6-0.4h-0.6v-0.4h14.2v3h-0.3c-0.1-0.5-0.3-0.9-0.4-1.2c-0.2-0.3-0.4-0.5-0.6-0.7
			s-0.6-0.3-1-0.3c-0.4,0-0.9-0.1-1.5-0.1H133.5z"/>
		<path id="XMLID_20_" class="st0" d="M158.1,394.2h5l11.3,10.3v-7.9c0-0.5,0-0.8-0.1-1.1s-0.2-0.5-0.4-0.6s-0.4-0.2-0.6-0.3
			c-0.2,0-0.5-0.1-0.8-0.1h-0.6v-0.4h6.4v0.4h-0.7c-0.3,0-0.6,0-0.9,0.1s-0.4,0.1-0.6,0.3s-0.3,0.3-0.4,0.6s-0.1,0.6-0.1,1.1v11.6
			h-0.5l-12.1-11.1v8.5c0,0.5,0,0.8,0.1,1.1c0.1,0.3,0.2,0.5,0.4,0.6s0.4,0.2,0.6,0.2s0.5,0,0.8,0h0.6v0.4h-6.4v-0.4h0.6
			c0.3,0,0.6,0,0.9-0.1c0.2,0,0.4-0.1,0.6-0.3c0.2-0.1,0.3-0.3,0.4-0.6s0.1-0.6,0.1-1.1V396c-0.3-0.2-0.5-0.4-0.7-0.6
			c-0.2-0.1-0.4-0.3-0.5-0.3s-0.3-0.2-0.5-0.2s-0.4-0.1-0.7-0.2c-0.3-0.1-0.7-0.1-1.2-0.1V394.2z"/>
		<path id="XMLID_22_" class="st0" d="M200.9,407.5v0.4H193v-0.4h0.6c0.3,0,0.6,0,0.9-0.1c0.3,0,0.5-0.1,0.6-0.3
			c0.2-0.1,0.3-0.3,0.4-0.6c0.1-0.3,0.1-0.7,0.1-1.1v-8.9c0-0.3,0-0.6,0-0.8s-0.1-0.4-0.1-0.5c0-0.1-0.1-0.2-0.2-0.3
			c-0.1-0.1-0.2-0.1-0.4-0.2c-0.4-0.2-0.8-0.2-1.3-0.2H193v-0.4h7.9v0.4h-0.6c-0.3,0-0.6,0-0.9,0.1s-0.5,0.1-0.6,0.3
			c-0.2,0.1-0.3,0.3-0.4,0.6s-0.1,0.6-0.1,1.1v8.9c0,0.3,0,0.6,0,0.8c0,0.2,0,0.4,0.1,0.5c0.1,0.1,0.1,0.2,0.2,0.3
			c0.1,0.1,0.2,0.1,0.4,0.2c0.4,0.2,0.8,0.2,1.2,0.2H200.9z"/>
		<path id="XMLID_24_" class="st0" d="M215,394.2h5l11.3,10.3v-7.9c0-0.5,0-0.8-0.1-1.1s-0.2-0.5-0.4-0.6s-0.4-0.2-0.6-0.3
			c-0.2,0-0.5-0.1-0.8-0.1h-0.6v-0.4h6.4v0.4h-0.7c-0.3,0-0.6,0-0.9,0.1s-0.4,0.1-0.6,0.3s-0.3,0.3-0.4,0.6s-0.1,0.6-0.1,1.1v11.6
			h-0.5l-12.1-11.1v8.5c0,0.5,0,0.8,0.1,1.1c0.1,0.3,0.2,0.5,0.4,0.6s0.4,0.2,0.6,0.2s0.5,0,0.8,0h0.6v0.4H216v-0.4h0.6
			c0.3,0,0.6,0,0.9-0.1c0.2,0,0.4-0.1,0.6-0.3c0.2-0.1,0.3-0.3,0.4-0.6s0.1-0.6,0.1-1.1V396c-0.3-0.2-0.5-0.4-0.7-0.6
			c-0.2-0.1-0.4-0.3-0.5-0.3s-0.3-0.2-0.5-0.2s-0.4-0.1-0.7-0.2c-0.3-0.1-0.7-0.1-1.2-0.1V394.2z"/>
		<path id="XMLID_26_" class="st0" d="M266.3,393.9l0.5,4.3h-0.5c-0.6-1.3-1.3-2.2-2.4-2.8c-1-0.6-2.3-0.9-3.7-0.9
			c-1.1,0-2,0.2-2.9,0.5c-0.9,0.3-1.6,0.8-2.2,1.3c-0.6,0.6-1,1.2-1.4,2c-0.3,0.8-0.5,1.6-0.5,2.5c0,1.3,0.3,2.5,1,3.6
			c0.3,0.5,0.7,1,1.2,1.4c0.5,0.4,0.9,0.7,1.5,1c0.5,0.3,1.1,0.4,1.7,0.6c0.6,0.1,1.2,0.2,1.7,0.2c1.4,0,2.6-0.3,3.8-0.8v-4
			c0-0.3,0-0.6-0.1-0.8s-0.1-0.4-0.2-0.5s-0.2-0.2-0.3-0.3c-0.1-0.1-0.2-0.1-0.4-0.2c-0.3-0.1-0.8-0.2-1.5-0.2v-0.4h7.1v0.4h-0.3
			c-0.3,0-0.6,0-0.8,0.1c-0.2,0.1-0.4,0.1-0.5,0.3s-0.2,0.3-0.3,0.6c-0.1,0.3-0.1,0.6-0.1,1v4.2c-0.5,0.2-1,0.4-1.6,0.6
			s-1,0.3-1.5,0.4c-1.1,0.2-2.2,0.3-3.4,0.3c-1.5,0-2.9-0.2-4.2-0.5s-2.3-0.8-3.2-1.5c-0.9-0.6-1.6-1.4-2.1-2.2
			c-0.5-0.8-0.7-1.8-0.7-2.8c0-1.2,0.4-2.4,1.2-3.5c0.9-1.3,2.2-2.3,3.8-3c1.4-0.6,2.9-0.9,4.8-0.9c0.4,0,0.7,0,1,0
			c0.3,0,0.6,0,0.9,0.1c0.3,0,0.6,0.1,1,0.2c0.4,0.1,0.8,0.2,1.3,0.3c0.5,0.2,0.9,0.2,1,0.2c0.2,0,0.3-0.1,0.4-0.2
			c0.1-0.1,0.2-0.3,0.2-0.7H266.3z"/>
		<path id="XMLID_28_" class="st0" d="M306.5,394.5v-0.4h7.9v0.4h-0.7c-0.8,0-1.3,0.2-1.6,0.5c-0.2,0.2-0.3,0.7-0.3,1.6v6.7
			c0,1.1-0.2,1.9-0.5,2.5c-0.1,0.3-0.4,0.6-0.6,0.9c-0.3,0.3-0.6,0.5-0.9,0.8c-0.4,0.2-0.8,0.4-1.2,0.5s-0.9,0.2-1.5,0.2
			c-0.4,0-0.8,0-1.2-0.1c-0.3-0.1-0.6-0.2-0.9-0.3c-0.2-0.1-0.4-0.3-0.5-0.5c-0.1-0.2-0.2-0.4-0.2-0.6c0-0.4,0.1-0.7,0.4-0.8
			c0.3-0.2,0.6-0.2,0.9-0.2c0.1,0,0.3,0,0.4,0c0.1,0,0.3,0.1,0.4,0.2c0.1,0.1,0.3,0.2,0.4,0.4s0.3,0.4,0.5,0.7
			c0.2,0.4,0.5,0.5,0.8,0.5c0.2,0,0.5-0.1,0.7-0.3c0.2-0.2,0.3-0.6,0.3-1.2v-9.4c0-0.3,0-0.6,0-0.8c0-0.2,0-0.4-0.1-0.5
			c-0.1-0.1-0.1-0.2-0.2-0.3c-0.1-0.1-0.2-0.1-0.4-0.2c-0.4-0.2-0.8-0.2-1.2-0.2H306.5z"/>
		<path id="XMLID_30_" class="st0" d="M341.1,403.3h-7.1l-1.3,2.2c-0.3,0.5-0.4,0.9-0.4,1.2c0,0.1,0,0.2,0.1,0.3
			c0,0.1,0.1,0.2,0.3,0.3c0.2,0.1,0.4,0.1,0.6,0.2c0.3,0.1,0.6,0.1,1.1,0.1v0.4h-5.8v-0.4c0.5,0,0.8-0.1,1.1-0.2s0.5-0.2,0.7-0.4
			c0.2-0.2,0.4-0.4,0.6-0.7c0.2-0.3,0.4-0.6,0.6-1l6.5-11.3h0.5l6.4,11.4c0.3,0.5,0.5,0.9,0.7,1.1c0.2,0.3,0.5,0.5,0.7,0.7
			s0.5,0.3,0.8,0.3s0.6,0.1,1,0.1v0.4h-7.3v-0.4c0.7,0,1.2-0.1,1.5-0.3c0.3-0.2,0.4-0.3,0.4-0.6c0-0.3-0.2-0.8-0.5-1.4L341.1,403.3z
			 M340.7,402.6l-3.1-5.6l-3.2,5.6H340.7z"/>
		<path id="XMLID_33_" class="st0" d="M373.5,407.9l-7.1-11.6v9.2c0,0.5,0,0.8,0.1,1.1c0.1,0.3,0.2,0.5,0.4,0.6s0.4,0.2,0.6,0.2
			s0.5,0,0.8,0h0.6v0.4h-6.4v-0.4h0.6c0.3,0,0.6,0,0.9-0.1c0.2,0,0.4-0.1,0.6-0.3c0.2-0.1,0.3-0.3,0.4-0.6s0.1-0.6,0.1-1.1v-9
			c0-0.3,0-0.6-0.1-0.9s-0.1-0.5-0.3-0.6c-0.2-0.2-0.4-0.3-0.8-0.4c-0.3-0.1-0.8-0.1-1.5-0.1v-0.4h5.2l6.7,10.8l6.6-10.8h5.2v0.4
			h-0.6c-0.3,0-0.6,0-0.9,0.1s-0.4,0.1-0.6,0.3c-0.2,0.1-0.3,0.3-0.4,0.6c-0.1,0.3-0.1,0.6-0.1,1.1v9c0,0.5,0,0.8,0.1,1.1
			c0.1,0.3,0.2,0.5,0.4,0.6s0.4,0.2,0.6,0.2c0.2,0,0.5,0,0.8,0h0.6v0.4h-7.8v-0.4h0.6c0.3,0,0.6,0,0.9-0.1c0.2,0,0.4-0.1,0.6-0.3
			c0.2-0.1,0.3-0.3,0.4-0.6c0.1-0.3,0.1-0.6,0.1-1.1v-9.2l-7.1,11.6H373.5z"/>
	</g>
	
		<image style="display:none;overflow:visible;opacity:0.48;" width="1280" height="800" id="XMLID_3_" xlink:href="../../../../../43878721_306790653240521_4769920129804795904_n.jpg"  transform="matrix(0.5094 0 0 0.5219 -114 225)">
	</image>
</g>
<g id="Layer_2" class="st1">
	
		<image style="display:inline;overflow:visible;opacity:0.2;" width="1000" height="1000" id="XMLID_1_" xlink:href="../../../../../46499064_321263811793205_4764614522344308736_n.jpg"  transform="matrix(0.495 0 0 0.495 -21 -28)">
	</image>
</g>
</svg>
