<?xml version="1.0" encoding="utf-8"?>
<!-- Generator: Adobe Illustrator 19.0.0, SVG Export Plug-In . SVG Version: 6.00 Build 0)  -->
<svg version="1.1" id="Layer_1" xmlns="http://www.w3.org/2000/svg" xmlns:xlink="http://www.w3.org/1999/xlink" x="0px" y="0px"
	 viewBox="0 0 560 160" style="enable-background:new 0 0 560 160;" xml:space="preserve">
<style type="text/css">
	.st0{fill:#4C4C4C;}
	.st1{fill:#FFFFFF;}
	.st2{fill:none;stroke:#F9F9F9;stroke-miterlimit:10;}
	.st3{font-family:'MyriadPro-Regular';}
	.st4{font-size:11.2059px;}
	.st5{fill:#CA0281;}
	.st6{fill:#07F7FF;}
</style>
<image style="display:none;overflow:visible;opacity:0.3;" width="800" height="800" id="XMLID_1_" xlink:href="../../../../../FORMAT/Stuff/Logos/martini.jpg"  transform="matrix(0.6731 0 0 0.6731 16.4539 -189.25)">
</image>
<rect id="XMLID_13_" class="st0" width="560" height="160"/>
<g id="XMLID_5_">
	<path id="XMLID_86_" class="st1" d="M76.8,98.8h-6.6v-3.1c-10.8-0.7-22.1-6.2-22.1-18.1c0-12.2,12.1-18.1,22.2-18.7V56h6.6V59
		c11,0.6,22.1,6.7,22.1,18.4c0,11.8-11,17.7-22.2,18.4V98.8z M70.2,62.7c-6.9,0.4-15.1,5.3-15.1,14.9c0,8.7,7.3,13.8,15.1,14.5V62.7
		z M76.8,92.1c7.6-0.5,15.1-5.5,15.1-14.6c0-9.4-7.6-14.3-15.1-14.8V92.1z"/>
	<path id="XMLID_90_" class="st1" d="M142.1,82.8c0,10.5-9.8,15.1-19,15.1c-10.3,0-18.3-5.7-18.3-14.7c0-9.5,8.4-15.1,18.9-15.1
		C134.7,68.1,142.1,74.1,142.1,82.8z M111.8,83.1c0,6.2,4.8,11,11.6,11c6.6,0,11.6-4.7,11.6-11.1c0-4.8-3.2-11-11.4-11
		S111.8,77.7,111.8,83.1z"/>
	<path id="XMLID_93_" class="st1" d="M179.9,68.8c1.3,1.9,2.8,6.4,2.8,11.1c0,8.4-3.6,18-17.4,18c-8.4,0-15-3.7-15-11.5v-8.1
		c0-5-0.2-8-0.9-9.6h6.6c0.7,0.6,1.1,2.2,1.1,5.4v11.6c0,5.7,4.5,7.9,8.7,7.9c6.6,0,10.1-5.1,10.1-13.3c0-5.3-1.7-10.1-2.5-11.6
		H179.9z"/>
	<path id="XMLID_95_" class="st1" d="M214.8,75.4h-2.1c-11,0-16.1,4-16.1,8.9c0,4.8,4.3,7.4,12.1,9c3.7,0.8,7.3,1.1,10.5,1.5
		c0.5,0,0.7,0.3,0.7,0.6c0,3.1-2.4,8.3-4.6,10.3l-4.6-1c1-1.4,2.4-5,2.5-6.5c-10.5-1.1-23.9-3.5-23.9-13.4c0-5.7,5.5-10.1,12.4-11.5
		V73c-5.8-1.4-8.7-4.4-8.7-8.3c0-4.9,5.4-9.9,16.5-9.9c4.2,0,7.5,0.6,9.6,1.6l-1.4,3.6c-1.6-0.6-4.5-1.4-7.8-1.4
		c-6.6,0-9.9,3.1-9.9,6.4c0,4.1,4.9,6.4,11.1,6.6c1.1,0,2.4,0,3.8,0V75.4z"/>
</g>
<g id="XMLID_20_">
	<path id="XMLID_25_" class="st1" d="M352.2,54.5c-0.9,0.5-1.9,1.1-2.8,1.7c-0.9,0.6-1.9,1.4-3,2.2c-2,1.6-4.3,3.7-6.8,6.2
		c-2.5,2.5-5.3,5.2-8.4,8.1c-3.1,2.9-6.5,5.9-10.2,8.9c-3.7,3-7.8,5.9-12.3,8.5c-2.3,1.2-4.5,2.3-6.5,3.2c-2,0.9-4.1,1.7-6.1,2.4
		c-2,0.6-4,1.1-6.1,1.5c-2,0.3-4.2,0.5-6.5,0.5c-0.3-0.1-0.5-0.2-0.5-0.4c0-0.3,0.2-0.5,0.6-0.5h0.2c1.9-0.3,3.9-1,5.9-2.2
		c2-1.2,4.1-2.7,6.2-4.4c2.1-1.7,4.1-3.7,6.1-5.8c2-2.1,3.9-4.3,5.7-6.5c1.8-2.2,3.4-4.4,4.9-6.4c1.5-2,2.8-3.9,3.9-5.5
		c1.3-1.9,2.5-3.7,3.5-5.4c0.1-0.1,0.1-0.3,0.2-0.4c0.2-0.3,0.4-0.7,0.8-1.1c-2,1.7-4.2,3.7-6.7,6.2c-2.5,2.5-5.2,5.1-8.3,8
		c-3,2.8-6.4,5.7-10.1,8.7c-3.7,2.9-7.7,5.7-12.1,8.3c-3.8,2.1-7.5,3.8-10.9,5c-3.4,1.2-6.8,2-10.2,2.4c-0.9,0.1-2,0.2-3.4,0.2
		c-1.4,0-2.7,0-3.9,0c-2.9-0.1-5.5-0.5-7.9-1.3c-2.4-0.8-4.4-1.8-6-3.1c-1.7-1.3-2.9-2.8-3.8-4.5c-0.9-1.7-1.3-3.5-1.3-5.5
		c0-2,0.5-3.9,1.5-5.6c1-1.7,2.4-3.3,4.1-4.6c1.7-1.3,3.8-2.3,6.1-3.1c2.3-0.7,4.8-1.1,7.4-1.1c0.5,0,1,0,1.5,0.1
		c0.5,0,1,0.1,1.5,0.2c-0.6-2.7-0.2-5.3,1.3-7.6s3.5-4.4,6.1-6.2c2.7-1.7,5.8-3.1,9.3-4.1c3.6-1,7.3-1.5,11-1.5
		c3.4,0,6.9,0.4,10.6,1.2s7.7,2,12.1,3.7c1.9,0.7,3.7,1.2,5.3,1.6c1.7,0.4,3.2,0.8,4.6,1.1c3.1-2.1,6.3-3.7,9.5-4.9
		c3.3-1.1,6.9-1.6,11-1.6c2.8,0.2,4.2,0.9,4.3,2.1c-0.1,0.7-0.6,1.3-1.5,2c-0.9,0.7-2,1.3-3.3,1.9c-1.4,0.6-2.9,1.1-4.5,1.5
		c-1.7,0.4-3.3,0.6-4.8,0.8c-0.7,0-1.3,0.1-1.8,0.1c-0.5,0-1.1,0-1.6,0c-0.5,0-1.1-0.1-1.7-0.1c-0.6-0.1-1.2-0.1-2-0.3
		c-0.3,0.3-0.5,0.6-0.6,0.8c-0.2,0.2-0.3,0.4-0.4,0.6c-0.2,0.2-0.3,0.4-0.3,0.5c-1.8,2.9-3.5,5.5-5.1,7.7c-1.6,2.3-3.4,4.8-5.5,7.5
		c-2.1,2.8-4.4,5.4-6.8,8.1c-2.4,2.6-5,5-7.6,7.2c-2.7,2.2-5.3,3.9-7.9,5c1.2-0.2,2.4-0.6,3.6-1c1.2-0.4,2.4-0.9,3.7-1.5
		c1.3-0.6,2.7-1.3,4.1-2.1c1.4-0.8,3-1.7,4.8-2.7c4.7-2.9,8.9-6,12.7-9c3.8-3.1,7.3-6,10.4-8.8c3.1-2.8,6-5.4,8.5-7.8
		c2.5-2.4,4.9-4.3,7.1-5.9c3-2.1,6.1-3.8,9.3-5c3.2-1.2,6.7-1.8,10.4-1.9c0.3,0,0.8,0,1.5,0c0.7,0,1.4,0,2.1,0.1
		c0.7,0.1,1.3,0.2,1.9,0.4c0.5,0.2,0.8,0.5,0.8,0.9c0,0.4-0.3,0.8-0.7,1c-0.5,0.2-1,0.3-1.6,0.3s-1-0.1-1.2-0.2
		c-0.2-0.2-0.4-0.3-0.6-0.6s-0.4-0.4-0.6-0.6s-0.6-0.3-1.1-0.3c-2.9,0.1-5.7,0.8-8.2,2.1c-2.5,1.3-4.7,3-6.5,5c-1.4,1.5-2.7,3-4,4.4
		c-1.3,1.5-2.7,3.1-4.1,4.8s-3,3.7-4.8,5.9c-1.8,2.2-3.8,4.8-6.2,7.7c-0.4,0.7-0.7,1.3-0.9,1.9c-0.3,0.6-0.5,1.2-0.7,2
		c-0.2,0.8-0.3,1.6-0.3,2.4c0,2.4,1.2,4.5,3.5,6.1c2.2,1.5,4.7,2.2,7.6,2.2c1.6,0,3.1-0.2,4.7-0.7s2.9-1.2,4.1-2.1
		c1.3-0.9,2.2-2,2.8-3.2c0.6-1.2,0.9-2.3,0.9-3.5v-0.7c0-0.4-0.1-0.6-0.2-0.7c-0.2-0.1-0.3-0.2-0.5-0.2c-0.2,0-0.4,0-0.6-0.1
		c-0.2,0-0.4-0.2-0.6-0.4c-0.1-0.2-0.2-0.5-0.2-0.6c0-0.4,0.1-0.8,0.4-1.2c0.3-0.4,0.7-0.6,1.3-0.6c0.4,0,0.8,0.1,1.1,0.4
		c0.3,0.3,0.5,0.7,0.6,1.3c0.1,0.4,0.1,1,0.1,1.6c0,0.6,0,1.2,0,1.9c0,1.4-0.4,2.7-1.1,3.9c-0.7,1.2-1.7,2.3-2.9,3.2
		c-1.2,0.9-2.7,1.6-4.3,2.1c-1.6,0.5-3.4,0.8-5.3,0.8c-1.7,0-3.3-0.3-5-0.8c-1.7-0.5-3.1-1.3-4.3-2.2c-1.1-0.9-2-1.9-2.6-3
		c-0.6-1.1-0.9-2.3-0.9-3.6c0-0.9,0.1-1.8,0.3-2.6c0.2-0.8,0.4-1.5,0.7-2.1c0.3-0.6,0.6-1.3,1.1-2c2.4-2.9,4.4-5.5,6.2-7.7
		c1.8-2.2,3.4-4.2,4.8-6c1.4-1.8,2.8-3.4,4.1-4.9c1.3-1.5,2.6-3,4-4.4c0.7-0.7,1.4-1.4,2.2-2.1C350.4,55.6,351.3,55,352.2,54.5z
		 M265.9,78.3c-1.9-1-3.4-2.2-4.6-3.6c-1.2-1.4-2-3-2.4-4.6c-0.8-0.2-1.8-0.2-2.8-0.2c-2.4,0.1-4.7,0.5-6.8,1.2
		c-2.1,0.7-3.9,1.7-5.5,3s-2.8,2.7-3.7,4.3c-0.9,1.6-1.3,3.4-1.3,5.2c0,2.2,0.6,4.3,1.9,6.2c1.3,1.9,3,3.5,5.2,4.7
		c1.3,0.6,2.6,1,3.7,1.3c1.2,0.3,2.3,0.5,3.3,0.7s1.9,0.2,2.7,0.3c0.8,0,1.4,0,1.9,0c0.8,0,1.7,0,2.6-0.1c1-0.1,1.8-0.2,2.6-0.2
		c1.3-0.2,2.6-0.5,3.8-0.9c1.2-0.4,2.5-0.9,3.9-1.6c1.3-0.6,2.8-1.3,4.3-2.2c1.5-0.8,3.2-1.7,5-2.7c4.6-2.9,8.8-5.8,12.5-8.8
		c3.7-3,7.1-5.9,10.2-8.7c3.1-2.8,5.9-5.4,8.4-7.7c2.5-2.4,4.9-4.3,7-5.9c-1.4-0.3-2.8-0.7-4.4-1.1c-1.6-0.4-3.2-0.9-4.9-1.6
		c-4.5-1.6-8.5-2.8-12-3.5c-3.5-0.8-6.9-1.2-10.2-1.2H286c-3.6,0.1-7,0.7-10.2,1.8c-3.2,1.1-5.9,2.5-8.3,4.3c-2.3,1.7-4.1,3.7-5.4,6
		c-1.3,2.2-1.8,4.5-1.6,6.8c3.5,0.7,6.4,2,8.9,3.9s4.1,4.2,4.9,6.7c1.3,0.2,2.6,0.4,4.1,0.4c1.9,0,3.8-0.2,5.8-0.6
		c1.9-0.4,3.9-1.1,5.8-2.1c1.9-1,3.3-2.2,4.2-3.5c0.9-1.3,1.3-2.7,1.3-4c-0.1-1.9-0.9-3.7-2.5-5.2s-3.9-2.5-6.9-2.8
		c-0.4,0-0.7,0-0.9,0.2c-0.2,0.2-0.4,0.3-0.6,0.5c-0.2,0.2-0.4,0.3-0.6,0.5c-0.2,0.2-0.6,0.2-1.1,0.2c-0.5,0-1-0.1-1.4-0.2
		c-0.4-0.2-0.7-0.4-0.9-0.8c-0.2-0.4-0.1-0.8,0.4-1.1c0.4-0.3,1.1-0.4,1.9-0.4c1.1,0,2,0,2.8,0.1c0.8,0.1,1.5,0.2,1.9,0.3
		c2.9,0.5,5.1,1.6,6.7,3.2c1.6,1.6,2.4,3.4,2.4,5.5c0,1.5-0.5,3-1.5,4.4c-1,1.5-2.5,2.7-4.6,3.8c-2,1-4,1.8-6.1,2.2
		c-2,0.5-4.1,0.7-6.1,0.7c-0.7,0-1.3,0-2-0.1c-0.6,0-1.3-0.1-1.9-0.2c0.1,0.4,0.2,0.7,0.3,1s0.2,0.6,0.2,0.9
		c0.1,0.3,0.1,0.6,0.2,0.9c0,0.3,0,0.7,0,1.2c0,0.4-0.1,0.9-0.4,1.3c-0.3,0.4-0.8,0.6-1.6,0.5c-0.5-0.1-0.8-0.3-1.1-0.6
		s-0.4-0.7-0.4-1.2c0-0.3,0.1-0.5,0.3-0.7c0.2-0.1,0.4-0.3,0.6-0.4c0.2-0.1,0.4-0.2,0.6-0.4c0.2-0.1,0.3-0.3,0.3-0.6
		c0-0.7-0.1-1.5-0.2-2.2c-1.4-0.2-2.7-0.6-4-1C268,79.4,266.9,78.9,265.9,78.3z M261.8,73.1c0.5,0.9,1.2,1.8,1.9,2.5
		c0.7,0.7,1.7,1.4,2.8,2c1.8,1,3.9,1.7,6.4,2.2c-0.8-2.3-2.4-4.3-4.5-5.9c-2.2-1.7-4.8-2.8-7.8-3.5c0.1,0.5,0.2,0.9,0.4,1.4
		C261.3,72.2,261.6,72.6,261.8,73.1z M342.5,52.9c0.1-0.2-0.2-0.4-0.6-0.7c-0.5-0.3-1.4-0.5-2.9-0.5c-3.3-0.1-6.4,0.4-9.1,1.6
		c-2.8,1.2-5,2.7-6.5,4.7c1.2,0.2,2.2,0.3,3,0.3c0.8,0,1.9,0,3.2-0.1c1.1,0,2.3-0.2,3.7-0.5c1.4-0.3,2.7-0.7,3.9-1.1
		c1.3-0.5,2.4-1,3.4-1.6C341.5,54.3,342.1,53.6,342.5,52.9z M484.8,61.2c3,0.7,5.6,1.9,7.8,3.4c2.2,1.6,4,3.4,5.3,5.5
		c1.3,2.1,2,4.3,2.2,6.6c0.2,2.3-0.3,4.5-1.5,6.7c-1.1,2.2-2.7,4.1-4.8,5.7c-2.1,1.6-4.4,3-7.1,4.1c-2.6,1.1-5.4,2-8.4,2.7
		c-3,0.6-5.9,1.1-8.8,1.3c-6.1,0.6-12.2,0.2-18-1.2c-5.9-1.4-11.3-3.4-16.2-6.1c-2.5-1.3-4.9-2.6-7.3-3.9c-2.4-1.3-4.9-2.6-7.4-3.8
		c-2.5-1.2-5.1-2.3-7.8-3.3s-5.5-1.8-8.4-2.4c-2.2-0.3-4.5-0.5-7-0.6c-2.5-0.1-4.7,0.3-6.8,1c0.6,0,1.1,0,1.7,0.1
		c0.6,0.1,1.1,0.2,1.8,0.2c1.4,0.4,2.7,1,3.8,1.9c1.1,0.9,1.6,2,1.5,3.2c0,1.2-0.5,2.3-1.6,3.2c-1.1,1-2.3,1.6-3.9,1.9
		c-1.5,0.4-3.1,0.3-4.6-0.2s-2.7-1.3-3.4-2.4c-0.6-1.1-0.7-2.2-0.5-3.4c0.2-1.2,0.9-2.2,1.9-3.1c0.2-0.2,0.5-0.5,0.8-0.6
		c-1.8,0.4-3.6,1-5.3,1.9c-1.7,0.9-3.3,1.7-4.8,2.7c-2.4,1.4-4.6,2.9-6.6,4.5c-2,1.6-4.2,3.2-6.5,4.7c-2.4,1.4-4.9,2.6-7.6,3.7
		c-2.7,1-5.6,1.8-8.6,2.2c-2,0.2-4.1,0.4-6.3,0.4c-2.2,0-4.4-0.2-6.5-0.6c-2.1-0.5-3.9-1.4-5.4-2.6c-1.5-1.2-2.4-2.5-2.8-3.9
		c-0.5-1.3-0.4-2.6,0.1-3.7c0.6-1.1,1.3-2,2.2-2.5c0.3-0.2,0.6-0.3,0.9-0.4c0.3-0.1,0.6-0.2,0.9-0.2l0.1-0.1c0.1,0,0.1,0,0.1,0
		c0,0,0.1,0,0.1,0c0.1,0,0.2,0,0.3,0c0.1,0,0.2,0,0.4-0.1h0.2c0.4,0.1,0.6,0.2,0.6,0.3v0.1c-0.1,0.2-0.3,0.4-0.6,0.4
		c-0.1,0-0.1,0-0.1,0c0,0,0,0-0.1,0c-0.3,0-0.4-0.1-0.4-0.2c0-0.1-0.2-0.1-0.7-0.1h-0.1c-0.3,0.1-0.5,0.2-0.8,0.2
		c-0.3,0.1-0.6,0.2-0.9,0.4c-0.8,0.6-1.4,1.4-2,2.5c-0.5,1.1-0.5,2.3,0,3.6c0.4,1.3,1.3,2.6,2.8,3.7c1.4,1.1,3.1,1.9,5.1,2.4
		c2,0.5,4.2,0.7,6.4,0.6c2.2,0,4.3-0.2,6.3-0.5c3-0.4,5.8-1.1,8.4-2.2c2.6-1.1,5.1-2.3,7.5-3.7c2.3-1.5,4.4-3,6.5-4.6
		c2.1-1.6,4.3-3.1,6.7-4.5c1.7-1,3.5-2,5.4-3s3.9-1.6,6.1-1.9c1.2-0.5,2.4-1,3.7-1.2c1.3-0.3,2.6-0.4,3.9-0.4c1.3,0,2.7,0,4,0.1
		c1.3,0.1,2.6,0.3,3.9,0.5c2.9,0.6,5.8,1.4,8.4,2.4s5.3,2.1,7.8,3.3c2.5,1.2,5,2.5,7.5,3.8c2.4,1.3,4.9,2.7,7.4,3.9
		c2.4,1.3,5,2.5,7.6,3.5s5.5,1.8,8.3,2.5c2.9,0.6,5.8,1,8.8,1.2c3,0.2,6,0.1,9-0.2c2.9-0.2,5.8-0.5,8.8-1.2c3-0.6,5.7-1.5,8.3-2.6
		c2.6-1.1,4.9-2.4,6.9-4c2-1.6,3.6-3.5,4.7-5.6c1.2-2.1,1.6-4.3,1.5-6.5c-0.2-2.3-0.9-4.4-2.1-6.4c-1.2-2-3-3.8-5.2-5.4
		c-2.2-1.6-4.8-2.7-7.6-3.3c-2.8-0.7-5.8-0.8-8.8-0.5s-5.8,1-8.4,2.2c-2.6,1.1-4.7,2.6-6.5,4.4c-1.8,1.8-2.8,3.9-3.1,6.1
		c-0.4,1.5-0.5,3.2-0.1,4.9c0.3,1.7,1.2,3.3,2.6,4.7c1.4,1.4,3.1,2.5,5.1,3.3c2,0.8,4.1,1.4,6.1,1.7c1.6,0.2,3,0.3,4.4,0.2
		c1.4-0.1,2.6-0.2,3.7-0.5c1.1-0.2,2-0.5,2.8-0.8s1.4-0.6,1.9-0.8c-0.1,0-0.1,0-0.2-0.1v-0.1c0.4-0.2,0.6-0.3,0.5-0.4
		c-0.1-0.1,0-0.2,0.1-0.4c0.2-0.1,0.4-0.1,0.5-0.1c0.1-0.1,0.2-0.1,0.2-0.1c0,0,0.1,0.1,0.2,0.1c0,0,0,0.1,0,0.1c0,0,0,0,0,0.1
		c0.1,0.2-0.1,0.3-0.4,0.4c-0.3,0.1-0.5,0.2-0.8,0.3c-0.4,0.2-0.9,0.5-1.7,0.9c-0.8,0.3-1.7,0.6-2.9,0.9c-1.1,0.3-2.4,0.5-3.9,0.6
		c-1.4,0.1-3,0.1-4.8-0.2c-2-0.3-4.1-0.8-6.2-1.7s-3.9-2-5.3-3.4c-1.4-1.5-2.3-3.1-2.7-4.8c-0.4-1.8-0.3-3.4,0.1-5
		c0.4-2.4,1.5-4.5,3.3-6.3c1.8-1.9,4-3.4,6.6-4.5c2.6-1.1,5.5-1.9,8.6-2.2C478.8,60.3,481.8,60.5,484.8,61.2z M393.8,77.6
		c-1.6-0.3-3.1-0.4-4.5-0.1c-0.3,0.2-0.6,0.3-0.9,0.5c-0.3,0.2-0.5,0.3-0.8,0.5c-0.9,0.9-1.5,1.8-1.7,2.9c-0.2,1.1,0,2.2,0.6,3.2
		c0.6,1,1.6,1.7,3,2.2c1.4,0.4,2.9,0.5,4.3,0.1c1.4-0.2,2.5-0.8,3.5-1.7c1-0.9,1.5-1.9,1.5-2.9c0.1-0.5-0.1-1.1-0.3-1.6
		c-0.3-0.5-0.6-1-1.1-1.4c-0.5-0.4-1-0.8-1.6-1.1C395.2,78,394.5,77.8,393.8,77.6z"/>
	<path id="XMLID_66_" class="st1" d="M396.2,83.3c0.3,0.2,0.3,0.4,0,0.6l-9.6,7.9c-1.7,1.3-3.2,2.2-4.5,2.9
		c-1.3,0.7-2.5,1.2-3.5,1.6c-1,0.4-1.9,0.6-2.6,0.7c-0.7,0.1-1.2,0.1-1.5,0.1h-0.4c-1.1,0-2-0.2-2.7-0.4c-0.7-0.2-1.3-0.4-1.7-0.7
		c-0.4-0.3-0.7-0.6-0.9-0.9c-0.2-0.3-0.3-0.7-0.3-1c-1.2,0.8-2.4,1.5-3.7,2.1c-1.3,0.6-2.6,0.9-3.8,0.9h-0.1c-1.2,0-2.3-0.3-3.2-0.9
		c-1.1-0.6-1.8-1.3-2.3-2.2c-0.5-0.9-0.7-1.9-0.7-2.9c0-1.4,0.4-2.8,1.1-4.3c0.8-1.5,1.9-3,3.4-4.3c1.7-1.7,3.8-2.9,6.1-3.7
		c2.3-0.8,4.6-1.3,6.8-1.3c1.1,0,2.1,0.1,3,0.3c1,0.2,1.8,0.6,2.6,1c1.4,0.8,2.1,1.8,2.1,3c0,0.1,0,0.2,0,0.4c0,0.1-0.1,0.3-0.1,0.4
		l3.8-3.7c0.2-0.2,0.5-0.4,0.9-0.4c0.4,0,0.7,0.1,1,0.4c0.2,0.3,0.4,0.6,0.6,1c0.1,0.4,0.2,0.7,0.2,1c0,0.3,0,0.5-0.1,0.6
		c-2.5,2.4-4.7,4.5-6.6,6.4c-0.8,0.8-1.7,1.6-2.5,2.4c-0.8,0.8-1.5,1.5-2.2,2.1c-0.6,0.6-1.2,1.1-1.6,1.5c-0.4,0.4-0.7,0.6-0.7,0.7
		c0,0-0.1,0.1-0.2,0.3c-0.1,0.1-0.2,0.3-0.2,0.4c0,0.3,0.3,0.5,0.9,0.6c0.6,0.1,1.2,0.2,1.6,0.2c0.2,0,0.6,0,1.2-0.1
		c0.6-0.1,1.4-0.3,2.3-0.6c0.9-0.3,2.1-0.8,3.3-1.5c1.3-0.7,2.7-1.6,4.4-2.9l9.6-7.9C395.6,83.1,395.9,83.1,396.2,83.3z M360.9,96.4
		c0.8,0,1.6-0.2,2.5-0.5c0.9-0.3,1.8-0.8,2.8-1.4c1-0.6,2-1.3,3-2.1c1-0.8,2-1.6,2.9-2.5l3.9-3.8c0.8-0.9,1.4-1.7,1.9-2.4
		c0.5-0.7,0.7-1.4,0.6-1.9c0-0.4-0.1-0.9-0.4-1.3c-0.2-0.4-0.6-0.8-1.2-1c-0.4-0.2-0.9-0.3-1.4-0.4c-0.5-0.1-1-0.1-1.6-0.1
		c-1.9,0-4,0.5-6.1,1.4c-2.2,1-4.1,2.2-5.8,3.7c-1.4,1.3-2.5,2.8-3.3,4.4c-0.8,1.6-1.2,3.1-1.2,4.4c0,0.6,0,1,0.1,1.4
		c0.1,0.4,0.3,0.8,0.7,1.1C359.1,96.2,360,96.4,360.9,96.4z"/>
	<path id="XMLID_74_" class="st1" d="M424.7,83.4c0.3-0.2,0.6-0.3,0.9-0.1c0.3,0.2,0.3,0.5,0,0.6l-9.6,8c-1.7,1.2-3.2,2.2-4.5,2.9
		c-1.3,0.7-2.5,1.2-3.5,1.6c-1,0.4-1.9,0.6-2.6,0.7c-0.7,0.1-1.2,0.1-1.5,0.1h-0.1h-0.2h-0.1c-1.1,0-2-0.2-2.7-0.4
		c-0.7-0.2-1.3-0.4-1.7-0.7c-0.4-0.3-0.7-0.6-0.9-0.9c-0.2-0.3-0.3-0.6-0.3-0.9c0.1-0.4,0.1-0.6,0.2-0.9c0.1-0.2,0.2-0.4,0.2-0.4
		l14.3-14c-0.5-0.2-1.2-0.3-1.9-0.4c-0.7-0.1-1.6-0.1-2.4-0.1c-0.7,0-1.5,0-2.2,0.1c-0.7,0.1-1.4,0.1-2,0.2
		c-0.6,0.1-1.1,0.2-1.5,0.3c-0.4,0.1-0.7,0.2-0.7,0.2c-0.1,0.1-0.5,0.4-1.1,0.9c-0.6,0.5-1.2,1-1.9,1.6c-0.8,0.7-1.7,1.4-2.7,2.2
		c-0.1,0.1-0.3,0.2-0.6,0.2c-0.1,0-0.2,0-0.4-0.1c-0.3-0.2-0.3-0.4,0-0.6c0.8-0.6,1.5-1.2,2.3-1.8c0.6-0.5,1.2-1,1.8-1.4
		s1.1-0.9,1.4-1.1c-0.6,0-1.2,0-1.8-0.3c-0.6-0.2-0.9-0.5-0.9-0.9c0-0.4,0.2-0.6,0.6-0.8c0.4-0.2,0.9-0.3,1.3-0.3
		c0.4,0,0.7,0.1,1,0.2c0.2,0.1,0.4,0.3,0.6,0.4c0.2,0.2,0.3,0.3,0.5,0.5c0.2,0.2,0.4,0.3,0.7,0.3c1.5-0.4,3.3-0.5,5.6-0.5
		c1.1,0,2.2,0.1,3.2,0.2c1,0.2,1.9,0.5,2.6,0.9c0.5,0.3,0.8,0.8,1,1.4c0.2,0.6,0.2,1.1,0.1,1.4c-2.5,2.4-4.7,4.5-6.6,6.4
		c-0.8,0.8-1.7,1.6-2.4,2.4c-0.8,0.8-1.5,1.5-2.2,2.1c-0.7,0.6-1.2,1.1-1.6,1.6c-0.4,0.4-0.7,0.6-0.7,0.7c-0.1,0.1-0.2,0.2-0.2,0.2
		c-0.1,0.2-0.2,0.3-0.2,0.5c0.1,0.1,0.2,0.3,0.4,0.4c0.2,0.2,0.8,0.3,1.9,0.4h0.2c0.2,0,0.6,0,1.2-0.1c0.6-0.1,1.4-0.3,2.3-0.6
		c0.9-0.3,2.1-0.8,3.3-1.5c1.3-0.7,2.7-1.6,4.4-2.9L424.7,83.4z"/>
	<path id="XMLID_76_" class="st1" d="M452.3,70.1c-0.1,0.2-0.3,0.5-0.7,0.8c-0.7,0.6-1.5,0.9-2.6,1.1c-1.1,0.2-2.2,0.3-3.4,0.3
		c-0.7,0-1.4,0-2-0.1c-0.7-0.1-1.4-0.1-2.1-0.2c-1.5,1.5-3.2,3.1-4.9,4.8c-1.7,1.7-3.5,3.4-5.2,5c-1.7,1.7-3.4,3.3-5,4.8
		s-3,2.9-4.2,4.1c-1.2,1.2-2.2,2.2-3,2.9c-0.8,0.7-1.2,1.1-1.2,1.2c-0.2,0.3-0.4,0.5-0.5,0.8c-0.2,0.5,0.6,0.8,2.5,0.8
		c0.3,0,0.7,0,1.3-0.1c0.6-0.1,1.4-0.3,2.3-0.6c0.9-0.3,2.1-0.8,3.3-1.5c1.3-0.7,2.7-1.6,4.3-2.8c0.3-0.2,0.7-0.5,1.4-1
		c0.7-0.5,1.8-1.3,3.2-2.4c1.5-1.1,3.5-2.6,6.2-4.6c0.3-0.2,0.6-0.2,0.9,0.1c0.3,0.2,0.3,0.4,0,0.6l-11,8c-1.6,1.2-3.1,2.1-4.4,2.8
		c-1.3,0.7-2.5,1.2-3.5,1.6c-1,0.4-1.9,0.6-2.6,0.7c-0.7,0.1-1.2,0.1-1.6,0.1h-0.1h-0.4h-0.1c-2.2-0.1-3.6-0.4-4.3-1
		c-0.7-0.6-1.1-1.2-1.1-1.8c0-0.4,0.1-0.6,0.2-0.9c0.1-0.2,0.2-0.4,0.2-0.5l22.5-21.7c-0.7-0.2-1.4-0.3-2-0.4
		c-0.6-0.1-1-0.2-1.3-0.3c-1.5-0.2-2.9-0.4-4.3-0.6c-1.4-0.1-2.8-0.2-4.1-0.2c-1.7,0-3.3,0.1-4.9,0.3c-1.6,0.2-3.2,0.6-4.9,1.1
		c-0.2,0.1-0.3,0.2-0.4,0.4c0,0.1-0.1,0.2-0.1,0.4c0,0.1-0.1,0.3-0.2,0.4c-0.1,0.1-0.2,0.3-0.5,0.5c-0.4,0.3-0.9,0.4-1.5,0.4
		c-1,0-1.5-0.4-1.5-1.1c0-0.4,0.4-0.8,1.3-1.2c0.5-0.2,0.9-0.4,1.4-0.5c0.4-0.1,0.9-0.2,1.2-0.3c1.7-0.4,3.3-0.8,5-1
		c1.7-0.3,3.3-0.4,5-0.4c1.4,0,2.8,0.1,4.3,0.2c1.4,0.2,2.9,0.4,4.4,0.6c0.4,0.1,1,0.2,1.6,0.3c0.7,0.1,1.4,0.3,2.3,0.5l9.1-8.9
		c0.3-0.3,0.6-0.4,0.9-0.4c0.4,0,0.7,0.1,1,0.4s0.4,0.6,0.5,1s0.2,0.7,0.2,1c0,0.3,0,0.5,0,0.6c-0.3,0.2-1,0.9-2.3,2.2
		c-1.3,1.3-2.9,2.8-4.8,4.7c0.6,0.1,1.2,0.1,1.7,0.2s1.1,0.1,1.7,0.1c1.5,0,2.7-0.1,3.7-0.4c1-0.3,1.6-0.8,2-1.6
		c0-0.2,0-0.4-0.1-0.5c-0.1-0.1-0.2-0.2-0.3-0.3c-0.1-0.1-0.2-0.2-0.3-0.4s-0.1-0.4-0.1-0.6c0.1-0.4,0.2-0.7,0.6-1
		c0.3-0.3,0.7-0.5,1.2-0.5c0.4,0,0.7,0.1,1,0.3c0.2,0.2,0.4,0.5,0.4,0.8c0,0.2-0.1,0.4-0.2,0.7c-0.2,0.4-0.3,0.8-0.6,1.1
		C452.7,69.5,452.5,69.8,452.3,70.1z"/>
	<path id="XMLID_78_" class="st1" d="M430.9,94.4c0-0.3,0-0.6,0.1-0.8c0.1-0.2,0.2-0.4,0.3-0.5L445.8,79c0.2-0.2,0.5-0.4,0.9-0.4
		c0.4,0,0.7,0.1,1,0.4c0.2,0.3,0.4,0.6,0.5,1c0.1,0.4,0.2,0.7,0.2,1c0,0.3,0,0.5-0.1,0.6c-2.5,2.4-4.7,4.5-6.6,6.4
		c-0.8,0.8-1.7,1.6-2.4,2.4s-1.5,1.5-2.2,2.1c-0.7,0.6-1.2,1.1-1.6,1.5c-0.4,0.4-0.7,0.6-0.7,0.7c0,0-0.1,0.1-0.2,0.3
		c-0.1,0.1-0.2,0.3-0.2,0.4c0,0.1,0.1,0.3,0.3,0.4c0.2,0.2,0.8,0.3,1.9,0.4h0.1h0.2c0.2,0,0.6,0,1.3-0.1c0.6-0.1,1.4-0.3,2.4-0.6
		c0.9-0.3,2.1-0.8,3.3-1.5c1.3-0.7,2.7-1.6,4.3-2.9l9.6-7.9c0.3-0.2,0.6-0.2,0.9,0c0.3,0.2,0.3,0.4,0.1,0.6l-9.6,7.9
		c-1.7,1.3-3.2,2.2-4.5,2.9s-2.5,1.2-3.5,1.6c-1,0.4-1.9,0.6-2.6,0.7c-0.7,0.1-1.2,0.1-1.5,0.1h-0.3h-0.1c-1.1,0-2-0.1-2.7-0.3
		s-1.3-0.4-1.7-0.7c-0.4-0.3-0.7-0.6-0.9-0.9S430.9,94.7,430.9,94.4z M454.2,75.5c-0.3,0.2-0.6,0.5-1.1,0.9c-0.5,0.3-1,0.6-1.6,0.9
		s-1.1,0.5-1.5,0.7c-0.5,0.2-0.8,0.2-0.9,0.1c-0.2-0.1-0.3-0.4-0.1-0.7c0.1-0.4,0.3-0.8,0.6-1.2c0.3-0.5,0.6-0.9,0.9-1.3
		c0.3-0.4,0.6-0.8,0.9-1c0.5-0.4,1.1-0.7,1.7-0.9c0.6-0.1,1.1-0.1,1.5,0.1c0.4,0.3,0.6,0.6,0.5,1.1C455,74.6,454.7,75.1,454.2,75.5z
		"/>
	<path id="XMLID_81_" class="st1" d="M493.5,83.4c0.3,0.2,0.3,0.4,0.1,0.6l-9.6,7.9c-1.7,1.3-3.2,2.2-4.5,2.9s-2.5,1.2-3.5,1.6
		s-1.9,0.6-2.6,0.7c-0.7,0.1-1.2,0.1-1.5,0.1h-0.3h-0.1c-1.1,0-2-0.1-2.7-0.3s-1.3-0.4-1.7-0.7c-0.4-0.3-0.7-0.6-0.9-0.9
		c-0.2-0.3-0.2-0.6-0.2-0.9c0-0.4,0.1-0.6,0.2-0.9c0.1-0.2,0.2-0.4,0.2-0.5L480.8,79c0-0.1-0.1-0.2-0.3-0.3
		c-0.2-0.1-0.4-0.1-0.6-0.1s-0.5-0.1-0.7-0.1c-0.2,0-0.3,0-0.2,0c-1.3,0-2.8,0.2-4.5,0.7c-1.8,0.5-3.8,1.4-6.1,2.6
		c-2.3,1.3-5,3-8,5.1c-3,2.1-6.4,4.8-10.2,8.1c-0.4,0.3-0.7,0.6-0.9,0.8s-0.4,0.4-0.6,0.6c-0.2,0.2-0.4,0.3-0.6,0.5
		c-0.3,0.2-0.6,0.4-0.9,0.4c-0.4,0-0.7-0.2-0.9-0.4s-0.4-0.5-0.6-0.8c-0.1-0.3-0.2-0.6-0.2-0.9s0.1-0.6,0.2-0.8l15.8-15.3
		c0.1-0.1,0.2-0.2,0.4-0.3c0.2-0.1,0.4-0.2,0.7-0.1c0.4,0,0.8,0.2,1.2,0.7c0.4,0.5,0.5,1.2,0.4,2.2c-0.1,0.1-0.3,0.3-0.7,0.6
		c-0.4,0.4-0.8,0.8-1.4,1.3s-1.2,1.1-1.8,1.7c-0.7,0.6-1.4,1.3-2.1,2c2.5-1.8,4.8-3.4,6.9-4.6c2-1.2,3.9-2.2,5.6-2.9
		s3.2-1.3,4.6-1.6c1.4-0.3,2.7-0.5,3.8-0.6c1.5,0,2.6,0.4,3.3,1.2c0.8,0.8,1,1.8,0.8,2.9c-2.5,2.4-4.7,4.5-6.6,6.4
		c-0.8,0.8-1.7,1.6-2.4,2.4s-1.5,1.5-2.2,2.1c-0.7,0.6-1.2,1.1-1.6,1.5c-0.4,0.4-0.7,0.6-0.7,0.7c0,0-0.1,0.1-0.2,0.3
		c-0.1,0.1-0.2,0.3-0.2,0.4c0,0.1,0.1,0.3,0.3,0.4c0.2,0.2,0.8,0.3,1.9,0.4h0.1h0.2c0.2,0,0.6,0,1.2-0.1c0.6-0.1,1.4-0.3,2.3-0.6
		c0.9-0.3,2.1-0.8,3.3-1.5c1.3-0.7,2.7-1.6,4.4-2.9l9.6-7.9C492.9,83.2,493.2,83.2,493.5,83.4z"/>
	<path id="XMLID_83_" class="st1" d="M481.4,94.4c0-0.3,0-0.6,0.1-0.8c0.1-0.2,0.2-0.4,0.3-0.5L496.3,79c0.2-0.2,0.5-0.4,0.9-0.4
		c0.4,0,0.7,0.1,1,0.4c0.2,0.3,0.4,0.6,0.5,1c0.1,0.4,0.2,0.7,0.2,1c0,0.3,0,0.5-0.1,0.6c-2.5,2.4-4.7,4.5-6.6,6.4
		c-0.8,0.8-1.7,1.6-2.4,2.4s-1.5,1.5-2.2,2.1c-0.7,0.6-1.2,1.1-1.6,1.5c-0.4,0.4-0.7,0.6-0.7,0.7c0,0-0.1,0.1-0.2,0.3
		c-0.1,0.1-0.2,0.3-0.2,0.4c0,0.1,0.1,0.3,0.3,0.4c0.2,0.2,0.8,0.3,1.9,0.4h0.1h0.2c0.2,0,0.6,0,1.3-0.1c0.6-0.1,1.4-0.3,2.4-0.6
		c0.9-0.3,2.1-0.8,3.3-1.5c1.3-0.7,2.7-1.6,4.3-2.9l9.6-7.9c0.3-0.2,0.6-0.2,0.9,0c0.3,0.2,0.3,0.4,0.1,0.6l-9.6,7.9
		c-1.7,1.3-3.2,2.2-4.5,2.9s-2.5,1.2-3.5,1.6c-1,0.4-1.9,0.6-2.6,0.7c-0.7,0.1-1.2,0.1-1.5,0.1H487h-0.1c-1.1,0-2-0.1-2.7-0.3
		s-1.3-0.4-1.7-0.7c-0.4-0.3-0.7-0.6-0.9-0.9S481.4,94.7,481.4,94.4z M504.7,75.5c-0.3,0.2-0.6,0.5-1.1,0.9c-0.5,0.3-1,0.6-1.6,0.9
		s-1.1,0.5-1.5,0.7c-0.5,0.2-0.8,0.2-0.9,0.1c-0.2-0.1-0.3-0.4-0.1-0.7c0.1-0.4,0.3-0.8,0.6-1.2c0.3-0.5,0.6-0.9,0.9-1.3
		c0.3-0.4,0.6-0.8,0.9-1c0.5-0.4,1.1-0.7,1.7-0.9c0.6-0.1,1.1-0.1,1.5,0.1c0.4,0.3,0.6,0.6,0.5,1.1
		C505.6,74.6,505.2,75.1,504.7,75.5z"/>
</g>
<line id="XMLID_6_" class="st2" x1="112.7" y1="127.5" x2="424.7" y2="127.5"/>
<text id="XMLID_7_" transform="matrix(1.0896 0 -0.1584 0.8148 431.5757 131.0836)" class="st1 st3 st4">BAND</text>
<g id="XMLID_8_">
	<polygon id="XMLID_73_" class="st5" points="233.3,51.5 291,51.5 262.2,78.2 	"/>
	<path id="XMLID_70_" class="st1" d="M285.9,53.5l-23.8,22l-23.8-22H285.9 M293.8,49.5h-63.4c-0.8,0-1.2,1-0.6,1.6l31.7,29.3
		c0.2,0.2,0.4,0.2,0.6,0.2s0.4-0.1,0.6-0.2l31.7-29.3C295.1,50.5,294.7,49.5,293.8,49.5L293.8,49.5z"/>
</g>
<g id="XMLID_11_">
	<path id="XMLID_69_" class="st1" d="M246.9,111.7l12.4-6.1c1.5-0.8,4.1-0.8,5.6,0l12.4,6.1c0.3,0.1,0.1,0.4-0.3,0.4h-29.9
		C246.8,112,246.6,111.8,246.9,111.7z"/>
</g>
<rect id="XMLID_17_" x="259.7" y="78" class="st1" width="5" height="28"/>
<polygon id="XMLID_14_" class="st6" points="270.9,61 269.7,61 269.7,26 270.9,26 "/>
<g id="XMLID_9_">
	
		<ellipse id="XMLID_10_" transform="matrix(0.8679 -0.4968 0.4968 0.8679 3.7089 139.9455)" class="st6" cx="265" cy="63" rx="6.4" ry="4.7"/>
	<path id="XMLID_15_" class="st6" d="M278,56.3l0-0.2c7-9.2,0.1-16.6-7.1-20l0-8.4c1.2,1.6,8.7,10.6,9.9,13.8
		C282.8,46.7,281.7,52.6,278,56.3z"/>
</g>
<path id="XMLID_12_" d="M277.5,43.1"/>
</svg>
