<?xml version="1.0" encoding="utf-8"?>
<!-- Generator: Adobe Illustrator 19.0.0, SVG Export Plug-In . SVG Version: 6.00 Build 0)  -->
<svg version="1.1" xmlns="http://www.w3.org/2000/svg" xmlns:xlink="http://www.w3.org/1999/xlink" x="0px" y="0px"
	 viewBox="20 -74.4 1000 708.4" style="enable-background:new 20 -74.4 1000 708.4;" xml:space="preserve">
<style type="text/css">
	.st0{fill:#00434D;}
	.st1{fill:#053969;}
	.st2{fill:#005480;}
	.st3{opacity:0.45;}
	.st4{stroke:#2D9CB0;stroke-miterlimit:10;}
	.st5{fill:#F9F9F9;}
	.st6{fill:#FFFFFF;}
	.st7{fill:url(#XMLID_4_);}
	.st8{display:none;}
	.st9{display:inline;}
</style>
<g id="Layer_1">
	<g id="Layer_1_1_">
		<circle id="blue_center_1_" class="st0" cx="525" cy="280.2" r="173.5"/>
		<g id="XMLID_530_">
			<path id="XMLID_538_" class="st1" d="M374,46.3c-10.2,6.5-19.9,13.6-29.1,21.2l55.3,65.9c6.2-5.2,12.7-9.9,19.4-14.2L374,46.3z"
				/>
			<path id="XMLID_537_" class="st1" d="M792,201.5l-81.4,28c4.9,17.1,7.4,35,7.4,53.3c0,45.7-15.7,89.1-44.6,123.8l65.9,55.3
				c40.4-48.5,64.8-111,64.8-179.1C804,254.5,799.8,227.2,792,201.5z"/>
			<path id="XMLID_536_" class="st2" d="M521.9,88.8v-86c-53,0.4-103.1,15.7-145.4,41.9l45.5,72.9C451.8,99.2,485.9,89.2,521.9,88.8
				z"/>
			<path id="XMLID_535_" class="st1" d="M661.2,420c-36.6,36.6-85.4,56.8-137.2,56.8c-22.7,0-44.7-3.9-65.5-11.3L402.2,535
				c36.8,17.8,78.1,27.8,121.7,27.8c85.5,0,161.9-38.3,213.3-98.6l-65.9-55.3C668.2,412.7,664.8,416.4,661.2,420z"/>
			<path id="XMLID_532_" class="st1" d="M244,282.8c0,64.3,21.7,123.6,58.2,170.8l56.3-69.5c-18.5-30.2-28.5-65-28.5-101.3
				c0-51.8,20.2-100.5,56.8-137.2c3.6-3.6,7.2-7,11-10.2l-55.3-65.9C282.3,120.9,244,197.4,244,282.8z M325.5,282.8
				c0,25.4,3.1,45.4,12.8,70.4l-49.7,43.5c-16.7-34.4-26.1-73.1-26.1-113.9c0-41.8,9.8-81.3,27.3-116.4l56.1,28.6
				C332.6,222,325.5,251.8,325.5,282.8z"/>
			<path id="XMLID_531_" class="st1" d="M612.7,43.7c55.2,20.6,101.3,59.8,130.6,110l-44.9,44.1c0,0,0,0,0-0.1
				c1.9,3.9,3.7,7.9,5.3,11.9l81.3-28C744.6,77.3,643.9,3.2,524.9,2.8v86c23,0.1,45.8,4.3,66.9,12.2L612.7,43.7z"/>
		</g>
	</g>
	<g id="_x30_1">
		<g id="XMLID_69_" class="st3">
			<path id="XMLID_216_" class="st4" d="M446.2,231.4c4.9-9,8.1-18.6,8.7-28.9c0-0.9,0-1.8,0-2.7c-0.1-6.7-4.9-10.6-11.4-9.1
				c-2.4,0.6-4.7,1.4-6.8,2.8c-6,4-9.1,9.9-11.8,16.3c-3.7,8.7-6.4,17.6-5.7,27.3c0.3,4.1,2.2,6.3,6.1,7.4c2.6,0.7,5.1,0.2,7.5-0.7
				C439.1,241.6,443.1,237,446.2,231.4z M432.7,239c-4.5,1.7-7.4-0.3-7.5-5.1c0-0.6,0-1.2,0-1.8c1.3-11,4.1-21.4,10.1-30.9
				c1.6-2.6,4.1-4,6.8-4.9c3.5-1.2,6.5,1,6.8,4.9c0.4,5.1-0.9,10-2.3,14.8c-1.9,6.6-4.1,12.9-8.1,18.6
				C437,236.7,435.1,238.1,432.7,239z"/>
			<path id="XMLID_219_" class="st4" d="M505.1,193.2c-5.4,7.3-8.8,15.6-11.1,24.4c-1.2,4.7-2.3,9.4-1.3,14.3
				c0.7,3.3,2.7,5.1,6.1,5.4c6.6,0.5,11.5-2.8,15.7-7.5c3.8-4.3,6.3-9.3,8.5-14.5c2.8-6.7,5.2-13.6,5.4-17.6
				c0.2-11.7-4-14.9-12-12.7C511.6,186.3,508,189.4,505.1,193.2z M513.6,191.2c2.2-1.3,4.5-2.2,7-0.8c2.3,1.3,1.9,3.7,2,5.6
				c-0.1,5.5-2.1,10.3-3.6,15.1c-1.7,5.6-4.2,10.8-7.5,15.7c-1.5,2.2-3.3,3.8-5.8,4.8c-4.9,1.9-8-0.5-7.4-5.7
				c0.5-3.7,1.1-7.4,2.3-11c2.4-6.9,4.5-13.9,8.9-19.8C510.7,193.5,511.9,192.2,513.6,191.2z"/>
			<path id="XMLID_222_" class="st4" d="M588.7,178.5c-4.4,0.1-9,3.2-12.5,7.6c-8.4,10.6-13.5,22.6-15,36.1
				c-0.6,6.1,3.8,9.8,9.7,8.2c4.6-1.3,8.4-3.7,11.5-7.4c3.8-4.4,6.6-9.4,8.9-14.6c3.1-6.8,5.8-13.8,6.3-21.5
				C598,181.5,595.5,178.5,588.7,178.5z M586.4,207.4c-1.6,4-3.6,7.9-6.1,11.5c-1.7,2.4-3.4,4.6-6.2,5.8c-1.9,0.8-3.8,1.3-5.6,0.1
				c-2-1.3-1.6-3.4-1.4-5.4c0.5-4.8,2.1-9.2,3.8-13.6c2.3-5.9,4.8-11.7,8.5-16.9c1.6-2.2,3.7-3.8,6.3-4.7c3.7-1.3,6.3,0.7,6.2,4.6
				C591.5,195.4,588.8,201.4,586.4,207.4z"/>
			<path id="XMLID_225_" class="st4" d="M609,185.9c-6.2,8.6-10.3,18.2-12.8,28.4c-0.6,2.3-0.9,4.7-0.5,7c0.5,3.9,2.7,5.8,6.6,5.8
				c4.9-0.1,8.8-2.5,12.3-5.7c5.1-4.6,8.2-10.6,11.1-16.6c3.3-6.9,5.9-14,6.5-20.6c0.1-6.6-2.2-8.8-7.7-8.7c-1.3,0-2.5,0.3-3.7,0.7
				C615.6,178,612,181.7,609,185.9z M619.6,181.6c4.2-1.9,6.8-0.2,6.7,5.5c-0.3,4.4-2.5,9.4-4.5,14.4c-2.2,5.7-5,11.1-8.8,16
				c-1.7,2.2-3.8,3.7-6.4,4.5c-3,1-5.1-0.5-5.2-3.6c-0.1-4.7,1.5-9.1,3.2-13.4c2.6-6.7,5.4-13.3,9.8-19.1
				C615.8,183.9,617.6,182.5,619.6,181.6z"/>
			<path id="XMLID_228_" class="st4" d="M397.8,276c-0.4-6.5-3.8-9.6-10.2-9c-5.4,0.5-9.8,3-13.1,7.3c-7.2,9.4-10.6,20.2-10.9,31.9
				c-0.2,9,5.4,12.6,13.9,9.6c3.1-1.1,5.9-2.9,8.1-5.3c8.2-9.1,10.7-20.4,12.2-32.1C397.8,277.6,397.9,276.8,397.8,276z
				 M390.4,280.2c-1,9.8-3,19-8.7,27.1c-1,1.4-2.2,2.4-3.7,3.2c-4.3,2.1-7.9,0.1-7.9-4.7c0-4.5,1.1-8.9,2.2-13.3
				c0.9-3.9,2.5-7.4,4-11.1c1.2-3.1,2.9-5.8,5.8-7.5c5-2.9,8.4-0.8,8.4,4.8C390.4,279.3,390.4,279.8,390.4,280.2z"/>
			<path id="XMLID_229_" class="st4" d="M454.5,169.5c8.3-2.6,12.5-9.3,16.1-16.6c2.4-5,4.2-10.2,5.7-15.5
				c1.6-5.3,2.5-10.7,2.5-16.3c0-2.6-0.3-5.4-2.6-7.2c-2.3,0.2-4.4,1.1-6.5,1.8c-0.3,0.7,0.1,1.1,0.6,1.5c1.9,1.4,2.3,3.4,2.3,5.5
				c0,4.8-0.8,9.6-2.2,14.2c-1.3,4.4-2.6,8.8-4.3,13c-1.9,4.5-3.8,9-7.6,12.1c-3.3,2.8-7.5,4.3-10,1.3c-0.9-1-1.3-2.1-1.5-3.4
				c-0.4-3.9,0.3-7.6,1.1-11.3c1.2-5.2,2.7-10.2,4.5-15.1c1.4-4,3.1-7.9,5.4-11.4c0.6-0.9,0.9-2-0.9-1.6c-2.3,1.1-4.8,1.6-6.5,3.6
				c-1.2,1.9-2.2,4-3,6.1c-4,9.6-7.2,19.4-7,29.9C440.8,169.2,447.2,171.8,454.5,169.5z"/>
			<path id="XMLID_232_" class="st4" d="M425.3,263.1c-6.2-0.1-10.8,3.2-14.7,7.6c-3.5,4-5.7,8.9-7.5,13.8c-2.3,6.4-4,12.9-3.8,19.9
				c0.2,4.3,2.1,6.8,6.2,7.8c4.5,1.1,8.2-0.9,11.9-3.1c2.8-1.6,4.7-4,6.5-6.5c3.8-5.5,6-11.7,7.8-17.9c1.2-4.1,2.1-8.3,2-12.7
				C433.7,266.4,430.7,263.2,425.3,263.1z M420,300.2c-1.7,3.1-4.1,5.8-7.7,7c-4.1,1.4-7.3-0.8-7-5.2c0.6-9.6,3.5-18.6,7.9-27.1
				c1.2-2.3,3-4.2,5.3-5.5s4.6-2,7-0.6c2.5,1.4,2.2,3.8,2.2,6.1C426.9,283.9,424.2,292.3,420,300.2z"/>
			<path id="XMLID_235_" class="st4" d="M526.9,289.6c3.8-5.6,6.6-11.7,8.7-18.1c1.3-3.8,2.2-7.8,2.2-11.9c0.1-5.6-3.4-8.5-9-7.7
				c-3.1,0.5-5.9,1.6-8.3,3.6c-11.1,9.4-14.8,22.3-17,33.7c-0.1,9.2,3.5,12,10.2,10.2C519.5,298,523.6,294.3,526.9,289.6z
				 M510.4,294.6c-1.8-1.3-1.8-3.2-1.5-5.1c1.3-8,4-15.6,7.8-22.8c1.4-2.6,2.9-5.1,5.2-7.1c1.2-1.1,2.5-1.9,4-2.4
				c3.8-1.1,6.2,0.7,6.1,5.7c-1.6,9.8-5.1,20-11.9,28.8c-1.1,1.4-2.7,2.3-4.3,3.1C514,295.5,512.2,295.8,510.4,294.6z"/>
			<path id="XMLID_236_" class="st4" d="M564.6,161.2c2.4-0.7,4.6-1.8,6.6-3.3c3.8-2.7,6.4-6.3,8.8-10.2c4-6.6,6.9-13.7,9.2-21
				c0.7-2.2,1.7-4.4,1.4-6.8c-0.9-0.4-1.8-0.8-2.7-1.2c-1.7-0.8-2.5-0.1-2.9,1.6c-1.6,7.3-4.2,14.4-7.3,21.2
				c-2.3,4.9-4.6,9.9-9.4,13c-2.2,1.4-4.7,2.4-7.2,0.8c-2.5-1.7-2-4.4-1.6-6.8c2-11.5,6.1-22.2,12.1-32.2c0.5-0.8,1.9-1.8,0.5-2.7
				c-1.1-0.7-2.5-1.3-3.9-0.3c-0.6,0.4-1.1,0.9-1.4,1.5c-7.2,11.3-12,23.5-13.6,36.9C552.2,159.1,557.4,163.2,564.6,161.2z"/>
			<path id="XMLID_239_" class="st4" d="M562.5,280.3c4.1-7.5,7.1-15.4,8.2-23.9c0.7-7.6-5.4-9.2-10.2-7.7
				c-4.3,1.3-7.9,3.6-10.7,7.1c-7.1,8.5-11,18.5-13.3,29.1c-0.8,3.4-1.3,7.4,2.1,9.9c3.2,2.4,6.8,1.5,10.2,0
				C555.2,291.9,559.2,286.4,562.5,280.3z M547.1,291.1c-3.7,0.9-5.7-1-5.4-4.8c0.4-4.7,2-9,3.7-13.3c2.4-5.8,4.5-11.8,9.1-16.4
				c1.6-1.6,3.4-2.8,5.6-3.2c3.3-0.6,5.2,1.2,4.9,5.8c-1.7,9.5-5.4,19.6-12.3,28.3C551.2,289.3,549.4,290.6,547.1,291.1z"/>
			<path id="XMLID_242_" class="st4" d="M437,325.1c-5.6,1.4-9.8,4.8-13,9.6c-3.5,5.3-6,11.1-7.5,17.3c-0.9,3.9-1.9,7.9-1,12
				c0.8,3.7,2.7,5.4,6.5,5.6c4,0.2,7.7-1.2,10.7-3.6c10.2-8.3,13.3-20.1,15-30.9C447.9,326.6,443.7,323.4,437,325.1z M432.2,361.4
				c-0.4,0.5-0.7,1-1.2,1.3c-2.5,1.7-5,3.6-8.1,2.1c-3.2-1.6-2.4-4.7-1.9-7.4c1.4-8,3.8-15.7,8.3-22.5c1-1.5,2.1-2.9,3.7-3.8
				c2.2-1.3,4.6-2.6,7.2-1.1c2.4,1.4,1.7,3.7,2,5.9C440.5,345,438.2,353.9,432.2,361.4z"/>
			<path id="XMLID_245_" class="st4" d="M609.4,288.1c4.5-1.1,8.3-3.6,11.4-7.2c5.5-6.4,9.1-13.8,12.1-21.6c1.6-4,3-8.2,2.5-12.7
				c-0.4-3.7-2.1-5.2-5.9-5.3c-3.1-0.1-5.8,1-8.4,2.5c-6.1,3.6-9.5,9.4-12.7,15.3c-3.8,7-6.7,14.3-7.6,21.3
				C600.7,286.8,604,289.4,609.4,288.1z M606.2,278.4c1-5.6,3.5-11.5,6.2-17.3c1.8-3.8,3.9-7.6,6.7-10.8c1.1-1.3,2.4-2.3,3.9-3.1
				c1.9-1,3.9-1.7,5.8-0.2c1.8,1.4,1.2,3.4,0.9,5.2c-0.7,3.9-2,7.6-3.6,11.2c-2.3,5.4-4.8,10.6-8.4,15.2c-1.7,2.1-3.7,3.9-6.3,4.7
				C607.8,284.3,606,282.9,606.2,278.4z"/>
			<path id="XMLID_248_" class="st4" d="M459.3,364.6c2.1-0.5,4.1-1.4,6-2.6c7.1-4.3,10.1-11.4,13.2-18.5c2-4.6,3.2-9.5,3.6-14.6
				c0.5-6.1-3-9.4-9.1-8.4c-3.7,0.6-7,2.1-9.7,4.8c-8.9,8.7-12.4,19.7-13.7,30.2C449.5,363.2,453.2,366.1,459.3,364.6z M455.1,352.5
				c1.4-6.5,3.8-15.1,9-22.6c1.5-2.1,3.6-3.7,6.1-4.5c3.8-1.3,6.9,0.9,6.4,4.7c-1.4,9.7-4.4,18.7-10.5,26.6c-1,1.3-2.2,2.2-3.7,2.9
				C458.4,361.5,454.2,360.9,455.1,352.5z"/>
			<path id="XMLID_251_" class="st4" d="M520.6,356c4.4-0.2,8.9-2.7,12.4-6.8c7.3-8.7,11.7-18.7,13-30c0.5-4.1-2-6.9-6.2-7.1
				c-3.3-0.1-6.4,1-9.2,2.9c-6.4,4.3-9.9,10.9-13,17.6c-2.4,5.2-4.3,10.6-4.6,16.4C513,353.7,515.2,355.9,520.6,356z M518.6,346.6
				c1.1-7.4,4.1-14.2,7.4-20.8c1.8-3.5,4.1-6.5,7.7-8.3c4.1-2,6.7-0.4,6.6,5.7c-1.8,8.4-5.1,17.6-11.6,25.3
				c-1.2,1.4-2.8,2.2-4.5,2.8C520.5,352.7,518,350.7,518.6,346.6z"/>
			<path id="XMLID_254_" class="st4" d="M670.6,251.6c-4.1,7-7.6,14.3-8.9,22.4c-0.8,5,2.1,7.7,7.2,6.9c3-0.5,5.6-1.7,8-3.6
				c8.3-6.5,12.6-15.7,16.6-25.1c0.6-1.5,1.7-3,1.3-4.8c-0.4-3.4-1.3-6.8-2.1-10.1c-0.5-2.1-1.8-2.7-3.7-2.4
				c-2.9,0.5-5.4,1.7-7.7,3.5C676.7,242,673.4,246.6,670.6,251.6z M691,244.6c-0.6,4.8-3.2,9.9-5.6,14.9c-2.2,4.6-4.7,9.1-8.2,13
				c-1.4,1.5-2.9,2.7-4.8,3.4c-1.5,0.7-3.1,1-4.5-0.1c-1.5-1.1-1.3-2.8-0.9-4.4c1.3-6,4-11.5,6.8-17c2-4.1,4.3-8,7.5-11.3
				c1.4-1.4,3-2.6,4.9-3.2C689.5,239,691.1,240.2,691,244.6z"/>
			<path id="XMLID_255_" class="st4" d="M492.1,166.1c1.6-0.1,3.3-0.1,3.9-2c0.6-1.6,1-3.2,1.5-4.8c2.9-9,5.7-18,8.6-27
				c2.3-7.1,4.6-14.2,6.9-21.3c0.3-0.9,0.8-2-0.3-2.7c-1.1-0.7-2.3-0.5-3.4,0.2c-0.6,0.4-1.1,1.1-1.6,1.7c-2.4,3.2-4.9,6.2-8.8,7.7
				c-1.7,0.7-3.4,1.1-5.1,1.4c-1.8,0.3-3.4,3-2.8,4.6c0.6,2,2.2,1.1,3.5,0.9c1.4-0.2,2.7-0.6,4-0.9c1.1-0.3,2.2-1.6,3.2-0.5
				c0.8,0.9,0,2.1-0.4,3.1c-3.8,12.1-7.7,24.3-11.6,36.4C489.3,165,489.5,166.3,492.1,166.1z"/>
			<path id="XMLID_258_" class="st4" d="M603.1,327.9c2.7-5.5,4.9-11.2,5.5-16.7c0-5-2-7-6.4-6.9s-8,2.1-11,5.1
				c-8.5,8.5-13.3,18.9-15.5,30.6c-1,5.4,2.9,8.9,8.2,7.3c3.3-1,6.3-2.6,9-5C597.4,338.2,600.5,333.2,603.1,327.9z M589.9,340.5
				c-2.8,2.5-5.9,3.5-7.7,2.2c-2.6-2-1.5-4.8-0.8-7.1c2.2-7.3,5.2-14.2,9.5-20.6c1.7-2.5,3.8-4.5,6.6-5.7c3.7-1.6,5.8-0.2,5.7,4.8
				c-0.5,4.6-3,9.7-5.4,14.8c-1.8,3.8-3.8,7.6-6.8,10.7C590.6,339.8,590.3,340.2,589.9,340.5z"/>
			<path id="XMLID_261_" class="st4" d="M492.8,384.2c0.1-7.4-3.4-10.1-9.4-8.6c-7.9,1.9-12.4,7.6-16,14.4c-2.6,5-4.4,10.3-5.5,15.9
				c-0.6,3.2-1,6.3,1.6,8.5c2.6,2.3,5.8,1.9,9,0.8c6-2.1,10-6.4,13.2-11.8C489.4,397,491.7,390.1,492.8,384.2z M477.7,408
				c-1.4,1.8-3.3,2.8-5.4,3.6c-3,1.2-5.9-0.8-5.5-4c1.1-8.6,4.1-16.6,9.2-23.7c1.4-2,3.4-3.2,5.7-4.1c3.5-1.3,5.9,0.4,5.8,4.6
				C486.2,392.8,483.2,400.9,477.7,408z"/>
			<path id="XMLID_264_" class="st4" d="M613.4,343.1c3.3-0.9,6.3-2.4,8.8-4.8c8.8-8.7,13.9-19.3,16.2-31.3c0.9-4.4-2.2-7.3-6.7-6.7
				c-2.4,0.3-4.6,1.1-6.6,2.4c-7,4.4-11,11.2-14.5,18.3c-2.5,5.1-4.7,10.4-5,15.9C605.4,342.1,608.6,344.5,613.4,343.1z
				 M610.6,333.6c1.1-4.1,2.6-8.1,4.4-11.9c1.7-3.5,3.5-7.1,5.7-10.4c1.9-2.8,4.3-4.9,7.4-6.1c3.1-1.1,5.2,0.4,5.1,4
				c-0.8,4-2.4,8.1-4.3,12.1c-2.4,5.2-4.8,10.4-9,14.5c-1.2,1.2-2.5,2.2-4.2,2.7c-1.5,0.5-3,1.1-4.4-0.2
				C610,337,610.1,335.2,610.6,333.6z"/>
			<path id="XMLID_267_" class="st4" d="M518.3,394.2c2.5-4.9,4.2-10,5.2-15.4c1-5.2-1.7-8.2-7-8.1c-3.2,0.1-6,1.3-8.5,3.2
				c-9.9,7.9-14.6,18.7-15.7,31.1c-0.4,4.5,1.7,6.2,7.7,6.1c3-0.2,6.6-2.1,9.8-4.9C513.5,402.9,516,398.6,518.3,394.2z M503,406.6
				c-3.4,1.4-5.7-0.2-5.5-3.9c0.5-7,3.4-13.3,6.7-19.3c1.8-3.2,3.8-6.2,7.4-7.7c4.5-1.9,6.3-0.6,6,5.9c-1.4,7.3-4.6,15.4-10.5,22.4
				C506.2,405.3,504.6,406,503,406.6z"/>
			<path id="XMLID_270_" class="st4" d="M691.5,293c-2.3,0.2-4.4,0.9-6.4,2c-5.2,3-8.7,7.6-11.8,12.6c-3.9,6.3-7.4,12.9-8.8,20.3
				c-1.1,5.8,2.5,8.6,8.1,6.7c3.2-1.1,6-2.9,8.5-5.2c5.6-5.3,9.2-12,12.5-18.9c1.9-3.9,3.2-7.9,3.4-12.2
				C697.2,294.3,695.6,292.7,691.5,293z M692.2,301.9c-0.3,2.3-1.5,5-2.7,7.7c-2.4,5.4-5.1,10.6-8.6,15.4c-1.7,2.3-3.7,4.4-6.5,5.4
				c-1.5,0.5-3.1,1-4.4-0.3c-1.2-1.2-1-2.7-0.6-4.2c1.2-4.7,3.3-9.1,5.5-13.4c2.1-4.1,4.3-8.2,7.6-11.6c1.4-1.5,2.9-2.6,4.8-3.4
				C690.5,296.4,692.3,297.7,692.2,301.9z"/>
			<path id="XMLID_271_" class="st4" d="M468.9,198.1c-1.5,0.9-2.2,2.5-1.8,4c0.5,1.9,2.1,0.9,3.3,0.7c1.4-0.3,2.8-0.8,4.3-1.2
				c0.9-0.3,1.9-1.2,2.7-0.4c0.8,0.8,0,1.9-0.3,2.8c-0.7,2.5-1.6,4.9-2.3,7.3c-2.8,8.7-5.5,17.3-8.3,26c-0.5,1.6-0.2,2.8,1.8,2.6
				c1.7-0.3,3.5-0.2,4.1-2.3c2.5-8,5.2-15.9,7.7-23.9c2.5-7.8,4.9-15.6,7.4-23.3c0.4-1.1,1.1-2.4-0.2-3.2c-1.2-0.7-2.5-0.2-3.5,0.8
				c-0.6,0.6-1.1,1.4-1.6,2.1c-2.8,4-6.5,6.6-11.3,7.5C470.2,197.7,469.5,197.8,468.9,198.1z"/>
			<path id="XMLID_274_" class="st4" d="M664.6,349.4c-2,0-5.3,1.1-7.9,3c-10.1,7.4-15.1,17.9-18.1,29.6c-1.2,4.5,1.5,7.1,6.1,6.3
				c3.4-0.6,6.6-2,9.2-4.5c8.2-7.9,13.3-17.5,16-28.5C670.7,351.8,668.4,349.3,664.6,349.4z M655.3,377.8c-1.8,2.7-3.9,4.9-6.9,6.3
				c-1.4,0.6-2.7,1.2-4.2,0.1c-1.3-1-1.2-2.4-0.8-3.8c2.4-8.9,6.4-16.9,12.5-23.8c1.2-1.4,3-2.3,4.8-2.8c2.6-0.8,4.3,0.6,4.1,4.1
				C663.3,364.7,659.5,371.3,655.3,377.8z"/>
			<path id="XMLID_277_" class="st4" d="M641,358.6c0.6-3.5-2.4-5.6-6.3-5c-2.6,0.4-4.9,1.5-7.1,2.9c-7.1,4.5-10.7,11.7-14.2,18.9
				c-1.9,3.9-3.4,8-3.7,12.8c0,2.6,1.2,4.1,4.2,4.7c3.1,0.7,5.7-0.8,8-2.3C633.2,383,638.6,371.7,641,358.6z M618.4,389.5
				c-2.6,0.7-4.8-1.3-4.2-4c1.6-7.8,4.9-14.9,9.8-21.3c1.8-2,3.3-4.2,5.8-5.4c1.7-0.8,3.4-1.8,5.3-0.4c1.9,1.5,1.3,3.5,0.7,5.2
				c-2.9,8.5-6.3,16.8-13,23.2l0,0l0,0C621.8,388.5,620,389,618.4,389.5z"/>
			<path id="XMLID_278_" class="st4" d="M599.3,158.5c4.7-1.4,8.5-4.1,11.6-7.9c3.5-4,5.9-8.8,8.3-13.5c0.4-0.8,0.9-1.6,0-2.4
				c-3.4-2.1-3.3-2.1-4.9,1.3c-1.6,3.5-3.3,6.9-5.5,10.1c-2,3-4.4,5.6-7.9,6.9c-3.4,1.3-6.2-0.6-6.4-4.2c-0.1-1.3,0.2-2.5,0.5-3.8
				c1.1-6.5,3.7-12.5,6-18.5c0.7-1.8-0.3-2.3-1.5-2.9c-1.3-0.6-2.4-0.8-3.1,0.8c-3.9,8.1-6.9,16.6-7.6,25.7
				C588,156.8,592.8,160.4,599.3,158.5z"/>
			<path id="XMLID_279_" class="st4" d="M541.7,192c-1.4,0.8-2.2,2.3-1.8,3.8c0.5,1.8,2.2,0.8,3.3,0.6c1.1-0.2,2.1-0.6,3.1-0.8
				c1-0.3,2.1-1.3,3-0.3c1,1,0.1,2.2-0.3,3.3c-3.8,10.4-7.6,20.8-11.4,31.1c-0.7,1.8-0.9,3.2,1.8,2.9c2.1,0.1,3.3-1.1,4-3.1
				c5.5-15.1,11.1-30.1,16.6-45.2c0.4-1,0.9-2.2-0.3-2.9c-1-0.6-2.2-0.2-3,0.5c-0.6,0.5-1,1.2-1.5,1.8c-2.7,3.8-6.1,6.4-10.7,7.4
				C543.5,191.2,542.5,191.5,541.7,192z"/>
			<path id="XMLID_282_" class="st4" d="M559.2,401.7c5.4-0.4,9.4-3.4,12.7-7.3c5.6-6.6,9.1-14.3,11.4-22.6c0.8-2.9,1.6-6-1-8.3
				c-2.6-2.4-5.8-1.3-8.7-0.5c-0.4,0.1-0.7,0.3-1.1,0.5c-6,2.5-9.6,7.4-12.7,12.8c-3.5,6-6.4,12.2-7.1,17.9
				C552.6,400.5,554.1,402,559.2,401.7z M557.5,393.9c0.5-4.1,2.1-7.9,3.9-11.6c0.8-2.9,2.3-5.5,3.9-8c1.2-1.6,2.3-3.2,3.5-4.8
				c1.8-1.4,3.3-3.1,5.7-3.5c3-0.5,4.8,0.8,4.3,3.5c-1.9,9.7-5.4,18.7-12.6,25.9c-1.2,1.2-2.8,2-4.4,2.4
				C558.8,398.7,557.1,397.1,557.5,393.9z"/>
			<path id="XMLID_283_" class="st4" d="M406.6,172.3c3.2,1,6.2,1.2,9.5,0.2c8.3-2.6,12.5-9.2,15.9-16.4c3.5-7.4,5.8-15.2,7.2-23.2
				c0.2-1,1.1-2.6-1-3c-1.6,1-3.2,2-4.8,3c-0.8,0.6-1.1,1.4-1.2,2.3c-1.4,6.8-3.1,13.5-6,19.9c-2.2,4.9-4.3,9.9-10,12.1
				c-3.5,1.3-6.5,0-7.7-3.6c-0.7-2.3-0.6-4.5-0.2-6.9c0.2-1.3,1.4-3.3-1-4.2c-1.8,1.8-3.6,3.6-5.4,5.4
				C400.4,163.3,402.2,169.1,406.6,172.3z"/>
			<path id="XMLID_286_" class="st4" d="M554.6,415.3c-0.9,0.1-1.8,0.3-2.6,0.6c-5.4,1.9-9.6,5.3-12.6,10.2
				c-3.9,6.3-7.1,12.7-8,18.6c-0.1,6.3,2,8.1,6.8,7.4c1.3-0.2,2.5-0.6,3.7-1.1c4.7-2,8.1-5.4,10.9-9.6c3.9-5.9,6.8-12.2,8.1-19.2
				C561.7,417.4,559.4,414.9,554.6,415.3z M555.8,423.8c-1.5,7.6-4.8,14.3-9.4,20.5c-1.2,1.6-2.9,2.7-4.7,3.6
				c-3.6,1.7-5.8,0.3-5.7-4.5c0.8-4.6,3.3-9.5,5.8-14.4c1.9-3.9,4.3-7.3,8.4-9.2c1.5-0.7,3.1-1.2,4.5-0.2
				C556.4,420.6,556.2,422.2,555.8,423.8z"/>
			<path id="XMLID_287_" class="st4" d="M481,268.9c0,1,1.1,0.9,1.9,0.9c2-0.2,3.9-0.8,5.7-1.6c0.6-0.3,1.3-0.8,1.9-0.2
				c0.8,0.6,0.3,1.4,0.1,2.2c-3.3,9.6-6.6,19.2-9.9,28.8c-0.4,1-1.4,2.4,0,3.2c1.3,0.7,2.9,0.5,4.2-0.5c0.9-0.8,1.4-1.9,1.7-3
				c2.6-8.8,5.8-17.3,8.8-25.9c1.7-4.8,3.4-9.6,5-14.5c0.3-0.9,1-2.3-0.3-2.9c-1.3-0.7-2.5-0.1-3.5,0.9c-0.3,0.3-0.4,0.6-0.7,1
				c-1.9,2.7-4.3,4.8-7.3,6.3c-1.7,0.9-3.6,1-5.4,1.7C481.5,265.8,481,267.3,481,268.9z"/>
			<path id="XMLID_288_" class="st4" d="M362.1,248.9c1.2-4.6,2.4-9.3,3.6-14c1.5-6,2.9-12,4.4-18c1.4-5.9,2.8-11.8,4.2-17.8
				c0.2-0.8,0.6-1.9-0.5-2.3c-1-0.4-1.6,0.5-2,1.3c-3.1,5.4-6,11-7.5,17c-2.8,10.9-5.5,21.8-8.2,32.7c-0.5,2.1-0.2,3.3,1.8,3.1
				C359.8,250.8,361.6,251,362.1,248.9z"/>
			<path id="XMLID_289_" class="st4" d="M645.7,187.2c1.1-0.2,2.1-0.6,3.1-0.9c0.9-0.2,1.8-1.4,2.7-0.5c0.8,0.9-0.1,1.8-0.5,2.7
				c-4.5,10.6-9,21.2-13.6,31.8c-0.6,1.5-0.9,2.5,1.7,2.4c2.1,0.3,3.3-1.5,4.1-3.5c6.1-14.1,12.1-28.2,18.1-42.3
				c0.6-1.3,1.1-2.7-0.4-3.7c-1.7-1.1-2.5,0.5-3.3,1.5c-3.1,3.8-6.7,7-11.8,7.8c-0.7,0.1-1.4,0.4-1.9,0.8c-1,1-2.2,2.2-1.5,3.6
				C643.1,188.2,644.6,187.4,645.7,187.2z"/>
			<path id="XMLID_290_" class="st4" d="M529,163.1c2.6,0.4,4.7-1.1,5.3-4c0.5-2.4,1.4-4.7,2.3-6.9c1.5-3.6,2.6-7.3,3.8-10.9
				c1.8-5.3,3.5-10.6,5.4-15.8c1.7-4.9,3-9.9,5.1-14.6c0.4-0.8,0.6-1.7-0.6-2.2c-1.4-0.1-2.9-0.6-4.1,0.5c-3.1,4.1-6.8,7.1-12.1,7.7
				c-2.2,0.3-3.2,1.7-3.7,3.7c-0.5,1.9,0.2,2.4,2,1.9c2.3-0.7,4.7-0.6,6.8-1.9c0.6-0.4,1.3-0.7,1.9,0c0.4,0.5,0.3,1.1,0.1,1.7
				c-0.9,2.2-1.3,4.5-2.2,6.7c-4.2,10.6-7.1,21.7-11.2,32.3C527.2,162.6,527.8,163,529,163.1z"/>
			<path id="XMLID_291_" class="st4" d="M533.1,427.6c1.2-5.5-2.2-9-7.6-8c-1.6,0.3-3.2,0.8-4.8,1.4c-4.7,2-7.9,5.5-10.5,9.6
				c-3.5,5.6-6.5,11.5-7.6,18.1c-0.2,1.2-1.5,2.8,0.5,3.9c0.5,0.1,1.1,0.1,1.6,0.2c1-0.4,3,0.8,2.9-1.4c-0.1-7.7,3.7-14,7-20.4
				c1.7-3.3,4.4-5.9,8-7.1c3.3-1.1,5.6,0.8,4.9,4.3c-2,9.3-4.9,18.1-13.1,24.1c-1.4,1-0.1,1.1,0.4,1.6c0.7,0,1.4,0,2.1,0
				c2-0.4,3.4-1.7,4.8-3.1c2.2-2.4,3.7-5.4,5.4-8.2l0,0C529.9,437.8,531.9,432.8,533.1,427.6z"/>
			<path id="XMLID_292_" class="st4" d="M598.6,244.7c-0.9,0.3-1.3,1.1-1.9,1.8c-3.2,3.5-6.4,7-11.6,7.5c-1.2,0.1-2,0.9-2.5,1.9
				c-0.3,0.7-0.8,1.5-0.3,2.2c0.5,0.8,1.4,0.6,2.2,0.4c1.3-0.3,2.7-0.8,4-1.2c0.8-0.2,1.6-1.2,2.4-0.4c0.9,0.9,0,1.8-0.4,2.7
				c-3.9,9.5-7.7,19-11.6,28.5c-0.6,1.5-0.9,2.7,0.8,2.7c2.4-0.2,3.7-0.9,4.5-2.9c5.5-13.7,11.1-27.3,16.7-41c0.3-0.7,1-1.4,0.2-2.1
				C600.4,244.1,599.5,244.4,598.6,244.7z"/>
			<path id="XMLID_293_" class="st4" d="M612.2,406.3c-3.3,0-6.4,0.9-9.2,2.9c-7.4,5.3-11.3,13-14.6,21.1c-1.2,3-1.9,6-1.6,9.2
				c0.1,0.9,0.4,1.9,1.5,1.9c1.5,0,2.9-0.7,4.1-1.5c1.2-0.9-0.4-1.2-0.6-1.7c-0.7-1.9-0.5-3.7,0.1-5.5c0.8-2.2,1.6-4.5,2.6-6.6
				c2.5-5.1,4.8-10.4,9.5-14.1c1.9-1.4,4.1-3.1,6.5-1.5c2.3,1.6,1.1,4.1,0.4,6.3c-2.1,6.7-5.3,12.9-10.2,19c3.9-1,6.4-2.7,8-5.3
				c2.5-4,4.6-8.2,6.3-12.7c0.9-2.5,1.5-4.9,1.4-7.5C616.2,407.7,614.7,406.4,612.2,406.3z"/>
			<path id="XMLID_294_" class="st4" d="M640.4,280.8c-0.7,1.5-1.2,2.7,1.9,2.7c2,0.2,2.9-1.9,3.7-3.8c5.9-13,11.7-26.1,17.5-39.1
				c0.4-0.9,1.2-1.9,0.1-2.6c-1-0.7-2.2-0.2-2.9,0.6c-3.5,4.4-7.6,7.9-13.5,9c-1.4,0.3-2.5,2-2,3.5c0.5,1.7,2,0.3,3.1,0.2
				c0.9-0.1,1.7-0.4,2.6-0.6c0.9-0.3,1.8-1.4,2.7-0.4c0.7,0.9-0.3,1.9-0.6,2.7C648.8,262.2,644.6,271.5,640.4,280.8z"/>
			<path id="XMLID_295_" class="st4" d="M491.8,355.7c-0.6,1.7-1.1,3.2,1.5,3.2c2.7,0,3.5-2,4.2-4c1.2-3.4,2.3-6.9,3.6-10.3
				c3.2-8.9,6.5-17.7,9.8-26.5c0.2-0.7,0.5-1.3-0.1-1.9c-0.7-0.7-1.5-0.4-2.2-0.1c-1,0.4-1.6,1.1-2.2,1.9c-2,2.7-4.6,4.8-7.8,6.2
				c-1.2,0.6-2.5,0.6-3.7,1c-1.8,0.5-2.8,1.9-2.4,3.6c0.5,1.7,2,0.6,3.1,0.4c1.2-0.2,2.3-0.7,3.4-1c0.7-0.2,1.5-0.8,2.2-0.1
				c0.7,0.7,0.1,1.5-0.2,2.2C498,338.7,494.9,347.2,491.8,355.7z"/>
			<path id="XMLID_296_" class="st4" d="M561,332c-2.1,5.2-4.3,10.4-6.4,15.6c-0.5,1.4-1.2,2.8,0.9,2.8c2.7-0.1,3.9-1.7,4.6-3.6
				c4.9-11.9,9.8-23.9,14.6-35.8c0.4-1,1-2.2-0.1-3c-1.2-1-2.2,0.1-3.1,0.9c-0.6,0.5-1,1.2-1.5,1.8c-2.5,2.9-5.6,5-9.3,5.9
				c-0.7,0.2-1.4,0.2-2,0.5c-1.3,0.6-2,1.8-1.6,3.2c0.5,1.5,1.8,0.8,2.8,0.5c1.3-0.4,2.6-0.9,3.9-1.3c0.6-0.2,1.3-0.9,1.9-0.1
				c0.4,0.5-0.1,1.1-0.3,1.7C564,324.7,562.5,328.4,561,332z"/>
			<path id="XMLID_297_" class="st4" d="M665.2,220.7c5.5,0.5,15.2-5.3,17.2-10.5c0.6-1.5,0.1-3-1.1-3.7c-1.3-0.8-1.7,0.9-2.3,1.7
				c-2,2.7-3.9,5.4-7.2,6.8c-1.7,0.7-3.3,1.4-5,0.2c-1.7-1.3-1.5-3.1-1.2-4.9c0.6-4,2.2-7.8,3.8-11.5c1-2.3,2-4.5,3-6.8
				c0.9-1.9-0.1-3.6-1.4-4.4c-1.7-1-1.9,1.2-2.5,2.1c-0.7,1-1.2,2.1-1.7,3.1c-3.2,6.7-6.1,13.5-6.7,19.5
				C660,218.5,661.4,220.3,665.2,220.7z"/>
			<path id="XMLID_298_" class="st4" d="M457.4,379.7c-1.2-0.9-2.2,0.1-3.1,0.8c-0.5,0.4-0.8,0.9-1.1,1.4c-2.4,3.2-5.6,5.3-9.5,6.1
				c-1.8,0.4-3.7,1.2-3.2,3.1c0.6,2,2.6,0.7,4.1,0.6c1.6-0.1,3.3-2.6,4.4-1.2c1,1.3-0.7,3.4-1,5.2c-0.1,0.4-0.3,0.7-0.5,1.1
				c-2.3,6.7-4.6,13.4-6.9,20.1c-0.5,1.5-0.1,2.3,1.6,2.3c1.5,0,2.7-0.4,3.3-2c0.9-2.4,1.9-4.7,2.7-7.1c3.1-9.1,6.2-18.2,9.3-27.3
				C457.8,381.7,458.4,380.5,457.4,379.7z"/>
			<path id="XMLID_299_" class="st4" d="M645.5,337.8c1-0.3,1.7-0.9,2.1-1.9c4.3-9.4,8.7-18.7,13.1-28.1c1.8-3.2,3-6.6,4.7-9.8
				c0.8-1.5,0-1.9-1.4-1.8c-0.8,0.1-1.5,0.5-2.2,0.9c-3,4-6.4,7.2-11.6,7.9c-0.8,0.1-1.4,0.6-1.9,1.3c-0.6,0.8-1.3,1.7-0.7,2.7
				c0.6,0.9,1.6,0.2,2.4,0c1-0.2,1.9-0.6,2.8-0.9c0.8-0.2,1.6-1.2,2.4-0.4c0.8,0.8-0.2,1.6-0.5,2.4c-3.9,8.4-7.8,16.8-11.6,25.2
				c-0.3,0.7-1.2,1.6-0.3,2.4C643.7,338.5,644.7,338.1,645.5,337.8z"/>
			<path id="XMLID_300_" class="st4" d="M370,333.4c-2.3,0.2-4.5,0.9-6.5,1.8c-1.8,0.8-3.3,2-2,4.3c1.4,2.5,2.5,0,3.5-0.4
				c2.4-1.1,4.8-1.6,7,0c2.1,1.5,2.3,3.9,1.9,6.2c-0.6,3.6-1,7.3-2.2,10.7c-1.3,3.5-0.6,6.3,2,9.3c3.9-7.6,6.2-15.2,5.9-23.4
				C379.3,335.8,376.1,332.9,370,333.4z"/>
			<path id="XMLID_301_" class="st4" d="M533.2,405.1c2.3-0.3,3.6-1.4,4.4-3.4c1.8-4.6,3.7-9.1,5.6-13.6c2.6-6.4,5.2-12.7,7.8-19.1
				c0.3-0.9,0.9-2-0.2-2.7c-1-0.6-1.9,0-2.6,0.7c-0.4,0.3-0.7,0.7-1,1.1c-2.6,3.3-5.9,5.5-10,6.4c-0.8,0.2-1.6,0.3-2.1,1
				s-1.1,1.6-0.6,2.4s1.4,0.5,2.2,0.3c1.2-0.4,2.4-0.8,3.6-1.2c0.7-0.3,1.4-1,2.1-0.2c0.5,0.6,0,1.3-0.2,2c-0.2,0.6-0.4,1.1-0.6,1.7
				c-3,7.5-6.1,15-9.2,22.4C531.8,404,531.4,405.1,533.2,405.1z"/>
			<path id="XMLID_302_" class="st4" d="M591,396.2c1.4-0.1,2.6-0.5,3.3-2c1.2-2.7,2.5-5.3,3.7-8c3.9-8.7,7.8-17.4,11.7-26.1
				c0.4-0.8,0.9-1.6,0.1-2.4c-0.6-0.6-1.4-0.5-1.9,0c-3.9,4.2-8.3,7.4-13.9,9.1c-0.8,0.2-1.4,1.2-1.2,2.2c0.4,1.3,1.4,0.6,2.2,0.6
				c1.2,0,2.3-0.3,3.4-0.9c0.7-0.4,1.5-1,2.2-0.4c0.9,0.8-0.1,1.6-0.4,2.3c-3.4,7.8-6.9,15.5-10.3,23.2
				C589.5,394.9,588.7,396.1,591,396.2z"/>
			<path id="XMLID_303_" class="st4" d="M423.3,384.2c-1.2,0.1-2,0.6-2.7,1.6c-2.7,4-6.5,6.2-11,7.5c-0.6,0.2-1.2,0.3-1.6,0.6
				c-0.9,0.7-1.6,1.7-1.1,2.8c0.5,1.1,1.6,0.5,2.4,0.3c1.2-0.3,2.5-0.7,3.7-1c0.9-0.3,1.8-1.3,2.7-0.4c0.9,0.9,0.2,2.1-0.1,3.1
				c-1.1,3.8-2.4,7.5-3.6,11.3c-0.5,1.7,1.2,4.6,3.6,4.8c0.1,0,0.1-0.7,0.3-1.2c1.5-4.5,3.1-9.1,4.6-13.6c1.5-4.6,2.8-9.2,4.2-13.8
				C425.1,384.5,424.6,384.1,423.3,384.2z"/>
			<path id="XMLID_304_" class="st4" d="M586.4,410.5c-0.8-0.7-1.7-0.1-2.5,0.3c-0.6,0.3-1.1,0.9-1.5,1.4c-2.3,2.9-5.1,4.8-8.8,5.6
				c-1.3,0.3-2.4,1-3.2,2c-0.3,0.4-0.7,0.8-0.5,1.3c0.2,0.7,0.9,0.7,1.5,0.7c1.6,0,3.1-0.7,4.5-1.3c0.5-0.2,1.1-0.8,1.6-0.3
				c0.7,0.6,0.1,1.2-0.2,1.9c-1,2.2-1.9,4.3-2.9,6.5c-2.2,4.9-4.5,9.9-6.7,14.8c-0.5,1.2-1.3,2.5,1,2.7c1.6-0.2,2.7-0.9,3.4-2.5
				c4.6-10.3,9.2-20.6,13.8-31C586.3,411.9,587.2,411.2,586.4,410.5z"/>
			<path id="XMLID_305_" class="st4" d="M465.3,429.6c-4.5,0.4-8,2.7-11.1,5.7c-0.8,0.8-2.4,1.8-0.9,3.1c1.3,1.2,2.5,0.3,3.5-0.9
				c1.5-1.9,3.4-3.3,5.8-3.8c3.9-0.7,5.4,0.7,5,4.6c-0.1,1.1-0.1,2.2-0.4,3.2c-0.5,1.8,0.2,2.9,2,3.2c1.9,0.3,2.5-0.9,2.8-2.3
				c0.4-1.9,0.6-3.9,0.9-5.8C472.9,430.8,471.1,429.1,465.3,429.6z"/>
			<path id="XMLID_306_" class="st4" d="M496.4,424.8c-2.9,3.6-6.1,6.8-11.1,7.6c-1,0.1-2,0.8-2.5,1.9c-0.2,0.5-0.5,1.1,0.1,1.6
				c0.4,0.4,0.9,0.5,1.3,0.2c1.3-1,3-0.6,4.5-1.1c0.6-0.4,1.3-1.2,2.1-0.7c1,0.7,0.1,1.6-0.2,2.3c-1.4,3.6-2.8,7.3-4.1,10.9
				c-0.4,1.1-0.6,2.1,1.1,2.3c1.5,0.6,2.7-0.1,3.1-1.4c0.6-1.9,1.5-3.6,2.2-5.4c1.9-5,3.5-10.2,6-15c0.5-0.9,0.7-2,0.3-2.8
				C498.4,424.1,497.3,424.3,496.4,424.8z"/>
			<path id="XMLID_307_" class="st4" d="M496.4,424.8L496.4,424.8L496.4,424.8z"/>
			<path id="XMLID_308_" class="st4" d="M641.6,401.9c-0.8-0.6-1.8-0.3-2.4,0.4c-3.1,3.6-7,6-11.6,7.2c-1.1,0.3-1.9,1.3-1.5,2.5
				s1.5,0.4,2.3,0.4c1.2-0.1,2.4-0.2,3.2-1.2c2.6-0.7,2,0.7,1.4,2.2c-0.2,0.5-0.8,0.9-1,1.5c-0.1,0.5-0.4,1.2,0.7,1
				c4.8-2.4,6.7-7,8.7-11.5C641.8,403.4,642.6,402.6,641.6,401.9z"/>
			<path id="XMLID_309_" class="st4" d="M355.4,270.5c-1.8-0.2-3.7,0.1-3.9,2.2c-0.7,5.8-0.5,11.6,0.6,17.4c0.1-0.9,0.1-1.8,0.4-2.6
				c1.6-4.8,2.6-9.8,3.7-14.8C356.5,271.8,356.9,270.7,355.4,270.5z"/>
			<path id="XMLID_310_" class="st4" d="M635.6,154.8c2.4,0.1,4.4-1.5,4.2-3.3c-0.2-1.7-1.6-2.6-3-3.3c-0.7-0.3-3.2,3.8-3.1,5.2
				C633.7,154.8,634.8,154.8,635.6,154.8z"/>
			<path id="XMLID_311_" class="st4" d="M390.1,389.4c1.2,2.4,2.8,3.9,4.2,5.5c0.4,0.4,0.8,1,1.5,0.6c0.5-0.4,0.4-1.1,0.2-1.6
				C395,391.3,393.2,389.9,390.1,389.4z"/>
			<path id="XMLID_312_" class="st4" d="M680.7,353.4c-1.3,0.4-2.2,1.2-2.5,2.6c-0.1,0.7,0.4,1,1.2,1c1.4-0.4,1.7-1.6,2.1-2.8
				C681.7,353.6,681.4,353.2,680.7,353.4z"/>
			<path id="XMLID_315_" class="st4" d="M393.2,248c4-0.1,8.6-3,12.3-7.6c6-7.6,8.9-16.6,10.7-26c0.9-4.3,1.7-8.7,0.8-13.2
				c-0.7-3.6-2.8-5.8-6.3-6.7c-4.6-1.2-8.6,0.5-12.3,2.9c-6,4-8.9,10.1-11.4,16.5c-3.2,8.4-5.6,17-4.6,26.2
				C383.1,245.8,385.4,248,393.2,248z M387.8,235.2c1.6-10.6,3.4-21.2,9.5-30.5c1.3-2.1,3.1-3.5,5.3-4.6c4.7-2.2,8.8-0.2,8.7,5
				c-0.2,12.3-3.4,23.9-10.6,34.2c-1.4,1.9-3.4,3-5.6,3.6c-4,1.1-6.9-0.9-7.2-5C387.8,237,387.8,236.1,387.8,235.2z"/>
			<path id="XMLID_316_" class="st4" d="M446.2,303.1c-0.3,1-1.4,2.2,0,2.9c1.1,0.6,2.6,0.3,3.6-0.7c0.8-0.8,1.2-1.8,1.5-2.9
				c1.8-6,3.7-12,5.6-18c2.3-7.2,4.7-14.2,6.9-21.5c1-3.3,0.5-3.7-2.9-2.7l0,0c-2.3,5-6.2,7.9-11.6,8.9c-1.3,0.2-2.4,0.8-3.1,2
				c-0.3,0.6-0.7,1.2-0.2,1.9c0.4,0.5,1.1,0.5,1.6,0.3c1.7-0.5,3.4-1.1,5.1-1.7c0.9-0.3,1.9-0.9,2.8-0.1c0.8,0.8,0.2,1.7,0,2.5
				C452.3,283.7,449.3,293.4,446.2,303.1z"/>
			<path id="XMLID_317_" class="st4" d="M408.7,329.5c-1.1-0.6-2.1,0.2-2.8,1.1c-1.3,1.5-2.5,3.2-4,4.4c-2.4,1.9-5.1,3.4-8.2,3.8
				c-1.3,0.2-2.4,0.8-2,2.3c0.4,1.6,1.8,0.9,2.7,0.6c1.7-0.4,3.4-1,5.1-1.6c2-0.7,2.7,0,2.1,1.9c-0.5,1.7-1.2,3.3-1.7,5
				c-1.9,6.7-3.7,13.5-5.8,20.2c-1.6,5.1-1.8,5.1,3.3,4.8l0,0c-0.3-2.2,1.2-3.9,1.7-5.9c1.7-6.3,3.2-12.7,5.3-19
				c1.7-5,3.3-10.1,4.4-15.2C408.9,331.1,409.9,330.1,408.7,329.5z"/>
		</g>
	</g>
	<g id="Layer_3">
		<g id="XMLID_392_">
			<g id="XMLID_418_">
				<path id="XMLID_51_" class="st5" d="M162.3,283.6c-1.6,0-3.1-1.1-3.4-2.7L148,232.2L136.7,281c-0.4,1.6-1.8,2.7-3.4,2.7H103
					c-1.5,0-2.9-1-3.4-2.5l-35-117.6c-0.3-1.1-0.1-2.2,0.5-3.1s1.7-1.4,2.8-1.4h41.8c1.6,0,3,1.1,3.4,2.7l10.8,43.6l10.3-43.6
					c0.4-1.6,1.8-2.7,3.4-2.7h31.5c1.6,0,3,1.1,3.4,2.7l10.2,43.8l11.4-43.9c0.4-1.5,1.8-2.6,3.4-2.6H227c1.1,0,2.1,0.5,2.8,1.4
					s0.9,2,0.6,3.1l-34.3,117.6c-0.4,1.5-1.8,2.5-3.4,2.5L162.3,283.6L162.3,283.6z"/>
				<path id="XMLID_46_" d="M227.2,162.5l-34.3,117.6h-30.6l-14.2-63.7l-14.8,63.7H103L68,162.5h41.8l14.3,57.6l13.6-57.6h31.5
					l13.4,57.6l15-57.6H227.2 M227.2,155.5h-29.5c-3.2,0-6,2.2-6.8,5.2l-7.9,30.1l-7-30c-0.7-3.2-3.6-5.4-6.8-5.4h-31.5
					c-3.2,0-6.1,2.2-6.8,5.4l-7,29.5l-7.4-29.6c-0.8-3.1-3.6-5.3-6.8-5.3H68c-2.2,0-4.3,1-5.6,2.8s-1.7,4.1-1.1,6.2l35,117.6
					c0.9,3,3.6,5,6.7,5h30.3c3.3,0,6.1-2.2,6.8-5.4l7.9-33.8l7.5,33.7c0.7,3.2,3.6,5.5,6.8,5.5h30.6c3.1,0,5.8-2.1,6.7-5l34.3-117.6
					c0.6-2.1,0.2-4.4-1.1-6.2C231.5,156.5,229.4,155.5,227.2,155.5L227.2,155.5z"/>
			</g>
			<g id="XMLID_405_">
				<path id="XMLID_116_" class="st5" d="M291,286.1c-19.2,0-34.7-6.1-46.3-18.3c-11.5-12.1-17.3-27.2-17.3-45
					c0-18.4,5.7-34.1,17-46.9c11.4-12.8,26.7-19.3,45.6-19.3c18.3,0,33.3,6.1,44.6,18.2c11.3,12,17,28.5,17,49c0,1.6,0,3.9-0.1,6.8
					c0,1.9-1.6,3.4-3.5,3.4h-68.9c0.4,4.9,1.4,8.7,2.9,11.1c1.6,2.5,5,3.8,10.1,3.8c7.5,0,11.5-3.6,12.9-11.5
					c0.3-1.7,1.8-2.9,3.4-2.9c0.1,0,0.2,0,0.3,0l39.7,2.9c1,0.1,1.9,0.6,2.5,1.4s0.8,1.8,0.6,2.8c-2.5,12.3-8.9,22.9-19.1,31.5
					C322.1,281.7,308.2,286.1,291,286.1z M301.9,203.9c-0.5-6.1-1.9-8.8-3.2-10c-2.2-2.1-4.9-3.1-8.3-3.1c-4.9,0-10.5,1.6-11.5,13.1
					H301.9z"/>
				<path id="XMLID_105_" d="M290.1,160.1c17.3,0,31.4,5.7,42.1,17.1c10.7,11.4,16,27,16,46.6c0,1.6,0,3.9-0.1,6.7h-72.6
					c0.1,7.4,1.3,12.9,3.6,16.5c2.3,3.6,6.6,5.4,13,5.4c9.2,0,14.7-4.8,16.3-14.5l39.7,2.9c-2.3,11.6-8.3,21.4-18,29.6
					c-9.6,8.1-22.7,12.2-39.1,12.2c-18.3,0-32.8-5.7-43.7-17.2c-10.9-11.5-16.3-25.7-16.3-42.6c0-17.6,5.4-32.4,16.1-44.5
					C257.8,166.1,272.2,160.1,290.1,160.1 M275.4,207.4h30.2c-0.1-7.9-1.5-13.3-4.4-16s-6.4-4.1-10.7-4.1
					C280.4,187.3,275.4,194,275.4,207.4 M290.1,153.1c-19.9,0-36.1,6.9-48.2,20.5C230,187,224,203.5,224,222.8
					c0,18.7,6.1,34.7,18.2,47.4c12.2,12.8,28.6,19.4,48.8,19.4c18,0,32.7-4.7,43.6-13.9c10.8-9.1,17.7-20.4,20.3-33.5
					c0.4-2-0.1-4-1.3-5.6c-0.3-0.3-0.5-0.6-0.8-0.9c1.3-1.2,2.2-3,2.3-5c0.1-3,0.1-5.2,0.1-6.9c0-21.4-6-38.7-17.9-51.4
					C325.2,159.6,309.4,153.1,290.1,153.1L290.1,153.1z M283.1,200.4c1.5-6.1,5.1-6.1,7.4-6.1c2.4,0,4.3,0.7,5.8,2.2
					c0.1,0.1,1,1,1.6,4h-14.8V200.4z M283.1,237.5h18.3c-1.3,6.5-4.5,7.9-9.3,7.9c-2.1,0-5.9-0.3-7.1-2.1
					C284.4,242.2,283.6,240.5,283.1,237.5L283.1,237.5z"/>
			</g>
			<g id="XMLID_393_">
				<path id="XMLID_91_" class="st5" d="M429.4,286.1c-14.2,0-25.7-5.1-34.1-15.1c-1.1,3-2.1,6.4-2.9,10c-0.4,1.6-1.8,2.7-3.4,2.7
					h-24c-1.9,0-3.5-1.6-3.5-3.5V122.3c0-1.9,1.6-3.5,3.5-3.5h41.9c1.9,0,3.5,1.6,3.5,3.5v43.6c6.2-6.2,14.3-9.3,24.3-9.3
					c9.7,0,18.2,2.8,25,8.4c6.8,5.5,11.8,13.4,15.1,23.4c3.2,9.8,4.8,20.1,4.8,30.9c0,19.6-4.1,35.7-12.3,47.8
					C458.8,279.7,446.1,286.1,429.4,286.1z M419.1,192.5c-2.1,0-4.1,0.9-5.9,2.8s-2.8,5-2.8,9v31.9c0,13.9,6.2,13.9,8.9,13.9
					c3.2,0,5.5-1.4,7.2-4.5c1.4-2.5,3.1-8.8,3.1-24.2c0-17.6-2.1-23.1-3.4-24.8C424.3,193.8,422,192.5,419.1,192.5z"/>
				<path id="XMLID_85_" d="M406.9,122.3v54.3c5.8-10.9,15.1-16.4,27.8-16.4c9,0,16.6,2.5,22.8,7.6c6.3,5.1,10.9,12.4,14,21.8
					s4.6,19.4,4.6,29.8c0,19-3.9,34.3-11.7,45.9c-7.8,11.6-19.5,17.4-35,17.4c-15.3,0-26.9-6.2-34.9-18.6c-2.3,4.6-4.1,10-5.5,16.2
					h-24v-158H406.9 M419.3,253.7c4.5,0,7.9-2.1,10.3-6.3c2.4-4.2,3.6-12.9,3.6-26c0-14.3-1.4-23.2-4.1-26.9c-2.7-3.7-6-5.5-10-5.5
					c-3.1,0-5.9,1.3-8.4,3.9s-3.7,6.4-3.7,11.5v31.9C406.9,247.9,411.1,253.7,419.3,253.7 M406.9,115.3H365c-3.9,0-7,3.1-7,7v157.9
					c0,3.9,3.1,7,7,7h24c3.3,0,6.1-2.3,6.8-5.4c0.3-1.4,0.7-2.8,1-4.1c8.5,7.9,19.4,11.9,32.5,11.9c17.9,0,31.6-6.9,40.8-20.5
					c8.6-12.7,12.9-29.5,12.9-49.8c0-11.1-1.7-21.8-4.9-31.9c-3.5-10.7-8.9-19.1-16.2-25.1c-7.5-6.1-16.7-9.2-27.2-9.2
					c-7.9,0-15,1.9-20.8,5.6v-36.4C413.9,118.4,410.8,115.3,406.9,115.3L406.9,115.3z M419.3,246.7c-2,0-5.4,0-5.4-10.4v-31.9
					c0-3.1,0.6-5.4,1.8-6.6c1.5-1.6,2.6-1.8,3.3-1.8c1.2,0,2.7,0.3,4.4,2.7c0.3,0.4,2.7,4.2,2.7,22.7c0,16.1-1.9,21.1-2.7,22.5
					C422.2,246.2,420.9,246.7,419.3,246.7L419.3,246.7z"/>
			</g>
		</g>
		<g id="XMLID_104_">
			<g id="XMLID_385_">
				<path id="XMLID_45_" d="M603.1,419.9c-15.3,0-27.8-4.7-37.3-14.1c-9.5-9.3-14.2-22.3-14.2-38.6c0-16.1,4.5-29.3,13.4-39.3
					c9-10,21.6-15.1,37.6-15.1c14.9,0,26.5,3.9,34.6,11.5s12.7,17.9,13.8,30.4c0,0.5-0.1,1.1-0.5,1.5s-0.9,0.7-1.4,0.7l-31.3,1.5
					c-0.5,0-1-0.2-1.4-0.6s-0.6-0.9-0.6-1.4c0-6.1-1.2-10.6-3.6-13.1c-2.4-2.6-5.2-3.8-8.4-3.8c-3.4,0-13.8,0-13.8,27.2
					c0,10.4,1.3,17.5,3.7,21c2.4,3.4,5.6,5,9.9,5c4.9,0,11.6-1.5,12.9-14.7c0.1-1,1-1.8,2-1.8h0.1l30.6,1.7c0.6,0,1.1,0.3,1.4,0.7
					c0.4,0.4,0.5,1,0.5,1.5c-1.5,12.8-6.7,22.7-15.6,29.5C626.7,416.4,615.8,419.9,603.1,419.9z"/>
				<path id="XMLID_36_" class="st6" d="M602.6,314.8c14.4,0,25.5,3.7,33.3,11c7.7,7.3,12.1,17,13.1,29.2l-31.2,1.5
					c0-6.7-1.4-11.5-4.2-14.5s-6.1-4.5-9.9-4.5c-10.5,0-15.8,9.7-15.8,29.2c0,10.9,1.4,18.3,4.1,22.2c2.7,3.9,6.6,5.9,11.5,5.9
					c8.8,0,13.8-5.5,14.8-16.6l30.6,1.7c-1.4,12.3-6.4,21.7-14.8,28.2c-8.4,6.5-18.8,9.8-31.1,9.8c-14.8,0-26.7-4.5-35.8-13.5
					s-13.7-21.4-13.7-37.2c0-15.7,4.3-28.3,12.9-37.9C575.2,319.6,587.2,314.8,602.6,314.8 M602.6,310.8c-16.5,0-29.7,5.3-39.1,15.8
					c-9.3,10.3-14,24-14,40.6c0,16.9,5,30.3,14.8,40.1c9.8,9.7,22.8,14.6,38.7,14.6c13.1,0,24.4-3.6,33.5-10.7
					c9.3-7.2,14.8-17.6,16.3-30.9c0.1-1.1-0.2-2.2-0.9-3s-1.7-1.4-2.8-1.4l-30.6-1.7c-0.1,0-0.1,0-0.2,0c-2,0-3.8,1.6-4,3.6
					c-1.1,11.5-6.4,12.9-10.9,12.9c-3.6,0-6.3-1.3-8.3-4.2c-1.5-2.2-3.4-7.4-3.4-19.9c0-25.2,8.9-25.2,11.8-25.2
					c2.7,0,4.9,1,6.9,3.2c2.1,2.2,3.1,6.2,3.1,11.8c0,1.1,0.4,2.1,1.2,2.9c0.7,0.7,1.7,1.1,2.8,1.1c0.1,0,0.1,0,0.2,0l31.2-1.5
					c1.1-0.1,2.1-0.5,2.8-1.4c0.7-0.8,1.1-1.9,1-3c-1.1-13.1-5.9-23.7-14.4-31.7C630.2,314.9,618.1,310.8,602.6,310.8L602.6,310.8z"
					/>
			</g>
			<g id="XMLID_378_">
				<path id="XMLID_34_" d="M660.1,418.3c-1.1,0-2-0.9-2-2v-100c0-1.1,0.9-2,2-2h31.4c1.1,0,2,0.9,2,2v100c0,1.1-0.9,2-2,2H660.1z"
					/>
				<path id="XMLID_31_" class="st6" d="M691.5,316.3v100h-31.4v-100H691.5 M691.5,312.3h-31.4c-2.2,0-4,1.8-4,4v100
					c0,2.2,1.8,4,4,4h31.4c2.2,0,4-1.8,4-4v-100C695.5,314.1,693.7,312.3,691.5,312.3L691.5,312.3z"/>
			</g>
			<g id="XMLID_364_">
				<path id="XMLID_131_" d="M732.5,419.9c-10.1,0-17.8-2.5-22.9-7.3c-5.2-4.9-7.8-10.6-7.8-16.9c0-8.6,4.3-15.6,12.6-20.8
					c4.8-3,11.5-5.2,20.3-6.8l-28.8-2.5c-0.6-0.1-1.1-0.4-1.5-0.8s-0.4-1.1-0.3-1.7c4.4-16.5,19.3-24.8,44.3-24.8
					c6.7,0,12.9,0.6,18.5,1.8c5.8,1.3,10.4,3.3,13.8,6c3.5,2.8,5.8,5.7,7,8.9c1.2,3.1,1.8,8.7,1.8,17.1v29.7c0,5.4,0.8,10,2.3,13.7
					c0.3,0.6,0.2,1.3-0.2,1.9s-1,0.9-1.7,0.9h-30.3c-0.9,0-1.7-0.6-1.9-1.5c-0.4-1.8-0.7-3.7-0.9-5.7
					C750.9,416.9,742.7,419.9,732.5,419.9z M755,383.7c-10.9,1.4-16.4,4.6-16.4,9.7c0,2.3,0.7,4.7,6.1,4.7c3,0,5.4-0.8,7.5-2.4
					c1.3-1,2.8-3.7,2.8-10.7L755,383.7L755,383.7z M747.5,360c-8.3,0-9.9,3.7-10.3,6.4c-0.1,0.6-0.5,1.1-1,1.4
					c5.5-0.9,11.8-1.6,18.9-2c0-1.7-0.3-3.8-1.5-4.6C752.2,360.4,750.2,360,747.5,360z"/>
				<path id="XMLID_123_" class="st6" d="M748.5,340.3c6.5,0,12.6,0.6,18,1.8c5.5,1.2,9.8,3.1,13,5.6s5.3,5.2,6.4,8.1
					c1.1,2.8,1.6,8.3,1.6,16.3v29.7c0,5.7,0.8,10.5,2.5,14.5h-30.3c-0.7-3.2-1.1-6.6-1.1-10.4c-5.7,8-14.4,11.9-26.1,11.9
					c-9.6,0-16.8-2.2-21.5-6.7c-4.8-4.5-7.1-9.6-7.1-15.5c0-7.9,3.9-14.2,11.7-19.1s21.6-7.8,41.5-8.8V366c0-3.3-0.8-5.4-2.4-6.5
					c-1.6-1.1-4-1.6-7.1-1.6c-7.3,0-11.4,2.7-12.3,8.1l-29.1-2.5C710.3,348.1,724.4,340.3,748.5,340.3 M744.8,400.1
					c3.4,0,6.3-0.9,8.7-2.8s3.6-6,3.6-12.3v-3.6c-13.6,1.3-20.4,5.3-20.4,11.9C736.7,397.9,739.4,400.1,744.8,400.1 M748.5,336.3
					c-26,0-41.6,8.9-46.3,26.3c-0.3,1.1-0.1,2.4,0.6,3.3c0.7,1,1.8,1.6,2.9,1.7l16.7,1.4c-3.5,1.2-6.6,2.5-9.1,4.1
					c-9,5.6-13.6,13.2-13.6,22.5c0,6.9,2.8,13.1,8.4,18.4c5.5,5.2,13.7,7.8,24.3,7.8c9.2,0,16.9-2.3,22.9-6.9
					c0.1,0.8,0.3,1.5,0.5,2.3c0.4,1.8,2,3.1,3.9,3.1H790c1.3,0,2.6-0.7,3.3-1.8c0.7-1.1,0.9-2.5,0.4-3.7c-1.4-3.5-2.2-7.9-2.2-13
					v-29.7c0-8.7-0.6-14.4-1.9-17.8c-1.3-3.5-3.9-6.8-7.7-9.8c-3.7-2.9-8.6-5.1-14.6-6.4C761.7,336.9,755.3,336.3,748.5,336.3
					L748.5,336.3z M739.5,365.4c0.6-1.6,2.3-3.4,8-3.4c3,0,4.4,0.6,4.9,0.9c0.1,0.1,0.3,0.4,0.5,1.1
					C748,364.4,743.5,364.8,739.5,365.4L739.5,365.4z M744.8,396.1c-4.1,0-4.1-1.3-4.1-2.7c0-4.2,6-6.4,12.3-7.4
					c-0.1,6.2-1.6,7.8-2,8.2C749.3,395.5,747.3,396.1,744.8,396.1L744.8,396.1z"/>
			</g>
			<g id="XMLID_353_">
				<path id="XMLID_62_" d="M837.8,419.9c-22.8,0-37.2-8.1-42.7-24c-0.2-0.6-0.1-1.2,0.2-1.7s0.9-0.9,1.4-0.9l25.1-3.1
					c0.1,0,0.2,0,0.3,0c0.9,0,1.7,0.6,1.9,1.5c1.2,4.4,6.3,6.6,15.2,6.6c8.2,0,10.4-1.5,10.4-2.4c0-0.1,0-0.6-1.2-1.1
					c-1-0.4-3.6-1.1-10.8-2c-17.2-2.2-27.7-5.6-32.1-10.5c-4.4-4.8-6.7-10.3-6.7-16.3c0-8.3,3.8-15.1,11.3-20.1
					c7.2-4.9,16.8-7.4,28.3-7.4c20.5,0,33.8,7,39.5,20.8c0.2,0.6,0.2,1.2-0.1,1.7s-0.8,0.9-1.4,1l-23.4,4c4.3,0.7,7.6,1.4,10,2.1
					c5.1,1.5,9.5,4.3,13.1,8.4c3.7,4.1,5.5,9.2,5.5,15c0,8.8-4.1,15.9-12.1,21.1C861.8,417.3,851.1,419.9,837.8,419.9z M829.7,361.4
					c0.2,1.1,2.4,1.9,5.9,2.3c5.9,0.6,10.9,1.2,15.1,1.8c-0.2-0.2-0.3-0.4-0.4-0.6c-1.9-3.7-5.9-5.5-12.3-5.5
					c-3.8,0-5.8,0.6-6.7,1.1C830.2,360.9,829.9,361.3,829.7,361.4z"/>
				<path id="XMLID_57_" class="st6" d="M838.4,340.3c19.7,0,32.3,6.5,37.7,19.6l-24.1,4.2c-2.2-4.4-6.9-6.6-14.1-6.6
					c-3.4,0-5.9,0.4-7.6,1.3c-1.7,0.9-2.5,1.7-2.5,2.5c0,2.4,2.6,3.9,7.7,4.5c13.3,1.4,22.3,2.7,27.1,4.2c4.7,1.4,8.8,4,12.1,7.8
					c3.4,3.8,5,8.3,5,13.6c0,8.2-3.7,14.6-11.1,19.4c-7.4,4.8-17.7,7.2-30.7,7.2c-22,0-35.6-7.5-40.8-22.6l25.1-3.1
					c1.4,5.4,7.1,8.1,17.1,8.1c8.2,0,12.4-1.5,12.4-4.4c0-1.3-0.8-2.3-2.4-3c-1.6-0.7-5.4-1.4-11.3-2.2c-16.5-2.1-26.8-5.4-30.9-9.9
					c-4.1-4.5-6.1-9.4-6.1-14.9c0-7.6,3.5-13.8,10.4-18.5C818.1,342.6,827.2,340.3,838.4,340.3 M838.4,336.3
					c-12,0-21.9,2.6-29.5,7.8c-8,5.5-12.1,12.8-12.1,21.8c0,6.5,2.4,12.4,7.2,17.6c2,2.2,5,4.1,9.1,5.7l-16.6,2.1
					c-1.2,0.1-2.3,0.8-2.9,1.9c-0.6,1-0.8,2.3-0.4,3.4c5.8,16.8,20.8,25.3,44.6,25.3c13.8,0,24.8-2.6,32.9-7.8
					c8.6-5.5,13-13.2,13-22.8c0-6.3-2-11.8-6-16.3c-3.8-4.3-8.5-7.3-13.9-8.9l13.1-2.3c1.2-0.2,2.2-0.9,2.8-2s0.7-2.3,0.2-3.5
					C873.7,343.7,859.8,336.3,838.4,336.3L838.4,336.3z M834.8,361.6c0.8-0.1,1.8-0.2,3.1-0.2c3.5,0,5.8,0.6,7.4,1.3
					c-2.9-0.4-6-0.7-9.4-1C835.4,361.7,835.1,361.6,834.8,361.6L834.8,361.6z M839.2,396.1c-6.2,0-10.3-1.1-12.2-3.2
					c3.1,0.6,6.5,1.1,10.3,1.6s6.2,0.9,7.7,1.2C843.7,396,841.9,396.1,839.2,396.1L839.2,396.1z"/>
			</g>
			<g id="XMLID_109_">
				<path id="XMLID_76_" d="M924.4,419.9c-22.8,0-37.2-8.1-42.7-24c-0.2-0.6-0.1-1.2,0.2-1.7s0.9-0.9,1.4-0.9l25.1-3.1
					c0.1,0,0.2,0,0.3,0c0.9,0,1.7,0.6,1.9,1.5c1.2,4.4,6.3,6.6,15.2,6.6c8.2,0,10.4-1.5,10.4-2.4c0-0.1,0-0.6-1.2-1.1
					c-1-0.4-3.6-1.1-10.8-2c-17.2-2.2-27.7-5.6-32.1-10.5c-4.4-4.8-6.7-10.3-6.7-16.3c0-8.3,3.8-15.1,11.3-20.1
					c7.2-4.9,16.8-7.4,28.3-7.4c20.5,0,33.8,7,39.5,20.8c0.2,0.6,0.2,1.2-0.1,1.7s-0.8,0.9-1.4,1l-23.4,4c4.3,0.7,7.6,1.4,10,2.1
					c5.1,1.5,9.5,4.3,13.1,8.4c3.7,4.1,5.5,9.2,5.5,15c0,8.8-4.1,15.9-12.1,21.1C948.4,417.3,937.7,419.9,924.4,419.9z M916.3,361.4
					c0.2,1.1,2.4,1.9,5.9,2.3c5.9,0.6,10.9,1.2,15.1,1.8c-0.2-0.2-0.3-0.4-0.4-0.6c-1.9-3.7-5.9-5.5-12.3-5.5
					c-3.8,0-5.8,0.6-6.7,1.1C916.9,360.9,916.5,361.3,916.3,361.4z"/>
				<path id="XMLID_66_" class="st6" d="M925,340.3c19.7,0,32.3,6.5,37.7,19.6l-24.1,4.2c-2.2-4.4-6.9-6.6-14.1-6.6
					c-3.4,0-5.9,0.4-7.6,1.3c-1.7,0.9-2.5,1.7-2.5,2.5c0,2.4,2.6,3.9,7.7,4.5c13.3,1.4,22.3,2.7,27.1,4.2c4.7,1.4,8.8,4,12.1,7.8
					c3.4,3.8,5,8.3,5,13.6c0,8.2-3.7,14.6-11.1,19.4c-7.4,4.8-17.7,7.2-30.7,7.2c-22,0-35.6-7.5-40.8-22.6l25.1-3.1
					c1.4,5.4,7.1,8.1,17.1,8.1c8.2,0,12.4-1.5,12.4-4.4c0-1.3-0.8-2.3-2.4-3c-1.6-0.7-5.4-1.4-11.3-2.2c-16.5-2.1-26.8-5.4-30.9-9.9
					c-4.1-4.5-6.1-9.4-6.1-14.9c0-7.6,3.5-13.8,10.4-18.5C904.7,342.6,913.8,340.3,925,340.3 M925,336.3c-12,0-21.9,2.6-29.5,7.8
					c-8,5.5-12.1,12.8-12.1,21.8c0,6.5,2.4,12.4,7.2,17.6c2,2.2,5,4.1,9.1,5.7l-16.6,2.1c-1.2,0.1-2.3,0.8-2.9,1.9
					c-0.6,1-0.8,2.3-0.4,3.4c5.8,16.8,20.8,25.3,44.6,25.3c13.8,0,24.8-2.6,32.9-7.8c8.6-5.5,13-13.2,13-22.8c0-6.3-2-11.8-6-16.3
					c-3.8-4.3-8.5-7.3-13.9-8.9l13.1-2.3c1.2-0.2,2.2-0.9,2.8-2s0.7-2.3,0.2-3.5C960.3,343.7,946.4,336.3,925,336.3L925,336.3z
					 M921.4,361.6c0.8-0.1,1.8-0.2,3.1-0.2c3.5,0,5.8,0.6,7.4,1.3c-2.9-0.4-6-0.7-9.4-1C922,361.7,921.7,361.6,921.4,361.6
					L921.4,361.6z M925.8,396.1c-6.2,0-10.3-1.1-12.2-3.2c3.1,0.6,6.5,1.1,10.3,1.6s6.2,0.9,7.7,1.2
					C930.4,396,928.5,396.1,925.8,396.1L925.8,396.1z"/>
			</g>
		</g>
		<g id="XMLID_49_">
			<g id="XMLID_50_">
				
					<radialGradient id="XMLID_4_" cx="619.5186" cy="189.0508" r="104.1445" gradientTransform="matrix(-0.4226 -0.9063 -0.725 0.3381 922.8619 777.2687)" gradientUnits="userSpaceOnUse">
					<stop  offset="0.1576" style="stop-color:#0E8C9F"/>
					<stop  offset="0.203" style="stop-color:#0B7180"/>
					<stop  offset="0.2641" style="stop-color:#08535E"/>
					<stop  offset="0.3319" style="stop-color:#063941"/>
					<stop  offset="0.4065" style="stop-color:#042429"/>
					<stop  offset="0.4911" style="stop-color:#021417"/>
					<stop  offset="0.5912" style="stop-color:#01080A"/>
					<stop  offset="0.7221" style="stop-color:#000202"/>
					<stop  offset="1" style="stop-color:#000000"/>
				</radialGradient>
				<path id="XMLID_100_" class="st7" d="M510.9,386.4c-24.2,0-46.3-8.4-62.1-23.6c-17.3-16.6-26.4-40.2-26.4-68.2
					c0-67,52.9-121.5,117.9-121.5c27.1,0,49.3,8,64.3,23.2c13.6,13.8,20.9,32.8,20.9,54.9c0,27.7-13.4,52.7-36.7,68.6
					c-11,7.4-24.9,12-36.4,12c-11.3,0-17.2-6.5-18.1-19.9c-0.4-5.4,0-11.1,0.7-18.1c-18.5,27.9-37,38-47.9,38
					c-7.5,0-15.1-7.6-15.1-24.6c0-23,8.5-45,24.1-62c11.6-12.5,32.4-22.7,46.3-22.7c7.3,0,12,1.3,15,2.6c3.1-2.8,7.9-6,12.5-6.9
					c0.3-0.1,0.6-0.1,0.8-0.1c1.4,0,2.2,0.8,2.5,1.2c0.7,0.9,0.7,2.2,0.2,3.8l-0.1,0.2l-0.1,0.2c-9.3,14.2-16.6,51.8-16.6,74.5
					c0,12.4,1,17.8,10.5,17.8c17.5,0,42-23.4,42-61.4c0-32-18.8-69.3-71.7-69.3c-58.2,0-95.8,41.9-95.8,106.9
					c0,48.4,29.3,79.7,74.5,79.7c35.3,0,52.1-8.1,69.1-22.1c3.8-3.3,5.5-3.7,6.5-3.7c1.5,0,2.7,1.1,2.7,2.7c0,1.9-0.8,3.6-4.9,7.8
					C575.3,370.8,544.6,386.4,510.9,386.4z M534.7,235.7c-13.9,0-24.7,8.6-31.9,25.4c-5.2,11.9-7.5,22.7-7.5,35.2
					c0,10.3,1.7,15.5,4.9,15.5c7.2,0,23.5-12.3,39.1-46c1.6-3.2,3.2-9,4.9-15.1c1.1-4,2.3-8.2,3.5-12
					C545.2,237.2,540.6,235.7,534.7,235.7z"/>
				<path id="XMLID_95_" class="st6" d="M540.4,175c56.8,0,83.2,35,83.2,76.1c0,28.2-14.3,52.3-35.8,67
					c-11.3,7.6-24.8,11.7-35.3,11.7c-11.3,0-15.4-7.1-16.1-18c-0.5-7.1,0.3-14.5,1.8-26.6c-20.5,34.5-41.2,44.7-50.9,44.7
					c-6.9,0-13.1-7.9-13.1-22.6c0-22.6,8.4-44.2,23.5-60.6c11.5-12.4,31.7-22.1,44.8-22.1c7.7,0,12.5,1.5,15.4,3
					c2.3-2.3,7.4-6.3,12.5-7.4c0.2,0,0.3,0,0.4,0c1.1,0,1.3,1,0.8,2.3c-9.5,14.5-16.9,52.3-16.9,75.6c0,11.2,0.5,19.8,12.5,19.8
					c18.9,0,44-24.6,44-63.4c0-38.6-25.1-71.3-73.7-71.3c-56.8,0-97.8,40.9-97.8,108.9c0,53,33.5,81.7,76.5,81.7
					c34.8,0,52.5-7.9,70.4-22.6c2.7-2.3,4.4-3.2,5.2-3.2c0.5,0,0.7,0.3,0.7,0.7c0,1-0.3,2.3-4.4,6.3c-13.6,13.7-43.8,29.4-77.3,29.4
					c-46.6,0-86.5-31.5-86.5-89.8C424.4,228.8,476.1,175,540.4,175 M500.2,313.8c9.5,0,26.4-15.7,40.9-47.2c2.8-5.8,5.6-19,9-28.7
					c-2.8-2.3-8.4-4.3-15.4-4.3c-15.1,0-26.4,9.4-33.8,26.6c-5.1,11.7-7.7,22.8-7.7,36C493.3,309.3,495.8,313.8,500.2,313.8
					 M540.4,171c-66.1,0-119.9,55.4-119.9,123.5c0,28.6,9.3,52.7,27,69.7c16.2,15.6,38.8,24.1,63.5,24.1c34.2,0,65.5-15.9,80.1-30.6
					c4.1-4.1,5.5-6.4,5.5-9.2c0-2.7-2-4.7-4.7-4.7c-2.1,0-4.4,1.2-7.8,4.2c-16.7,13.7-33.2,21.6-67.8,21.6
					c-44.1,0-72.5-30.5-72.5-77.7c0-63.7,36.8-104.9,93.8-104.9c51.5,0,69.7,36.3,69.7,67.3c0,16.7-5,32.3-14.1,43.8
					c-7.6,9.6-17.5,15.6-26,15.6c-7.1,0-8.5-2.7-8.5-15.8c0-22.5,7.1-59.5,16.2-73.4l0.3-0.4l0.2-0.5c0.9-2.7,0.2-4.5-0.5-5.6
					c-0.9-1.3-2.4-2-4.1-2c-0.4,0-0.7,0-1.1,0.1h-0.1h-0.1c-5.2,1-9.9,4.3-12.5,6.6c-3.2-1.2-7.9-2.3-14.6-2.3
					c-14.4,0-35.8,10.5-47.7,23.4c-15.9,17.3-24.6,39.8-24.6,63.4c0,18.4,8.6,26.6,17.1,26.6c10.5,0,27.7-8.8,45.2-32.7
					c-0.3,3.9-0.3,7.5-0.1,11c1,14.4,7.8,21.7,20.1,21.7c11.9,0,26.3-4.7,37.6-12.4c11.4-7.8,20.8-18.1,27.2-29.8
					c6.9-12.5,10.3-26.1,10.3-40.5c0-22.6-7.4-42.1-21.4-56.3C590.8,179.3,568,171,540.4,171L540.4,171z M500.2,309.8
					c-0.3,0-0.8,0-1.4-1.5c-0.7-1.6-1.5-5-1.5-12c0-12.2,2.3-22.8,7.3-34.4c6.9-16.1,17.1-24.2,30.1-24.2c4.3,0,8.1,0.9,10.6,2.1
					c-1.1,3.4-2.1,7-3,10.5c-1.7,6-3.3,11.7-4.7,14.7l0,0l0,0C523.2,295.9,507.1,309.8,500.2,309.8L500.2,309.8z"/>
			</g>
		</g>
	</g>
</g>
<g id="Layer_2" class="st8">
	<g id="Reference" class="st9">
		
			<image style="overflow:visible;enable-background:new    ;" width="1600" height="1200" id="XMLID_2_" xlink:href="webAtClass.png"  transform="matrix(0.5903 0 0 0.5903 47.7361 -74.4)">
		</image>
	</g>
</g>
</svg>
