<?xml version="1.0" encoding="utf-8"?>
<!-- Generator: Adobe Illustrator 19.0.0, SVG Export Plug-In . SVG Version: 6.00 Build 0)  -->
<svg version="1.1" xmlns="http://www.w3.org/2000/svg" xmlns:xlink="http://www.w3.org/1999/xlink" x="0px" y="0px"
	 viewBox="0 0 1000 708.4" style="enable-background:new 0 0 1000 708.4;" xml:space="preserve">
<style type="text/css">
	.st0{opacity:0.58;}
	.st1{fill:#00434D;}
	.st2{fill:#053969;}
	.st3{fill:#005480;}
	.st4{opacity:0.45;}
	.st5{stroke:#2D9CB0;stroke-miterlimit:10;}
	.st6{fill:#F9F9F9;}
	.st7{fill:#FFFFFF;}
	.st8{fill:url(#XMLID_30_);}
</style>
<g id="Reference" class="st0">
	
		<image style="overflow:visible;" width="1600" height="1200" id="XMLID_2_" xlink:href="webAtClass.png"  transform="matrix(0.5903 0 0 0.5903 27.7361 0)">
	</image>
</g>
<g id="Layer_1">
	<circle id="blue_center_1_" class="st1" cx="505" cy="354.6" r="173.5"/>
	<g id="XMLID_530_">
		<path id="XMLID_538_" class="st2" d="M354,120.7c-10.2,6.5-19.9,13.6-29.1,21.2l55.3,65.9c6.2-5.2,12.7-9.9,19.4-14.2L354,120.7z"
			/>
		<path id="XMLID_537_" class="st2" d="M772,275.9l-81.4,28c4.9,17.1,7.4,35,7.4,53.3c0,45.7-15.7,89.1-44.6,123.8l65.9,55.3
			c40.4-48.5,64.8-111,64.8-179.1C784,328.9,779.8,301.6,772,275.9z"/>
		<path id="XMLID_536_" class="st3" d="M501.9,163.2v-86c-53,0.4-103.1,15.7-145.4,41.9l45.5,72.9
			C431.8,173.6,465.9,163.6,501.9,163.2z"/>
		<path id="XMLID_535_" class="st2" d="M641.2,494.4c-36.6,36.6-85.4,56.8-137.2,56.8c-22.7,0-44.7-3.9-65.5-11.3l-56.3,69.5
			c36.8,17.8,78.1,27.8,121.7,27.8c85.5,0,161.9-38.3,213.3-98.6l-65.9-55.3C648.2,487.1,644.8,490.8,641.2,494.4z"/>
		<path id="XMLID_532_" class="st2" d="M224,357.2c0,64.3,21.7,123.6,58.2,170.8l56.3-69.5c-18.5-30.2-28.5-65-28.5-101.3
			c0-51.8,20.2-100.5,56.8-137.2c3.6-3.6,7.2-7,11-10.2l-55.3-65.9C262.3,195.3,224,271.8,224,357.2z M305.5,357.2
			c0,25.4,3.1,45.4,12.8,70.4l-49.7,43.5c-16.7-34.4-26.1-73.1-26.1-113.9c0-41.8,9.8-81.3,27.3-116.4l56.1,28.6
			C312.6,296.4,305.5,326.2,305.5,357.2z"/>
		<path id="XMLID_531_" class="st2" d="M592.7,118.1c55.2,20.6,101.3,59.8,130.6,110l-44.9,44.1c0,0,0,0,0-0.1
			c1.9,3.9,3.7,7.9,5.3,11.9l81.3-28C724.6,151.7,623.9,77.6,504.9,77.2v86c23,0.1,45.8,4.3,66.9,12.2L592.7,118.1z"/>
	</g>
</g>
<g id="_x30_1">
	<g id="XMLID_69_" class="st4">
		<path id="XMLID_216_" class="st5" d="M426.2,305.8c4.9-9,8.1-18.6,8.7-28.9c0-0.9,0-1.8,0-2.7c-0.1-6.7-4.9-10.6-11.4-9.1
			c-2.4,0.6-4.7,1.4-6.8,2.8c-6,4-9.1,9.9-11.8,16.3c-3.7,8.7-6.4,17.6-5.7,27.3c0.3,4.1,2.2,6.3,6.1,7.4c2.6,0.7,5.1,0.2,7.5-0.7
			C419.1,316,423.1,311.4,426.2,305.8z M412.7,313.4c-4.5,1.7-7.4-0.3-7.5-5.1c0-0.6,0-1.2,0-1.8c1.3-11,4.1-21.4,10.1-30.9
			c1.6-2.6,4.1-4,6.8-4.9c3.5-1.2,6.5,1,6.8,4.9c0.4,5.1-0.9,10-2.3,14.8c-1.9,6.6-4.1,12.9-8.1,18.6
			C417,311.1,415.1,312.5,412.7,313.4z"/>
		<path id="XMLID_219_" class="st5" d="M485.1,267.6c-5.4,7.3-8.8,15.6-11.1,24.4c-1.2,4.7-2.3,9.4-1.3,14.3
			c0.7,3.3,2.7,5.1,6.1,5.4c6.6,0.5,11.5-2.8,15.7-7.5c3.8-4.3,6.3-9.3,8.5-14.5c2.8-6.7,5.2-13.6,5.4-17.6c0.2-11.7-4-14.9-12-12.7
			C491.6,260.7,488,263.8,485.1,267.6z M493.6,265.6c2.2-1.3,4.5-2.2,7-0.8c2.3,1.3,1.9,3.7,2,5.6c-0.1,5.5-2.1,10.3-3.6,15.1
			c-1.7,5.6-4.2,10.8-7.5,15.7c-1.5,2.2-3.3,3.8-5.8,4.8c-4.9,1.9-8-0.5-7.4-5.7c0.5-3.7,1.1-7.4,2.3-11c2.4-6.9,4.5-13.9,8.9-19.8
			C490.7,267.9,491.9,266.6,493.6,265.6z"/>
		<path id="XMLID_222_" class="st5" d="M568.7,252.9c-4.4,0.1-9,3.2-12.5,7.6c-8.4,10.6-13.5,22.6-15,36.1c-0.6,6.1,3.8,9.8,9.7,8.2
			c4.6-1.3,8.4-3.7,11.5-7.4c3.8-4.4,6.6-9.4,8.9-14.6c3.1-6.8,5.8-13.8,6.3-21.5C578,255.9,575.5,252.9,568.7,252.9z M566.4,281.8
			c-1.6,4-3.6,7.9-6.1,11.5c-1.7,2.4-3.4,4.6-6.2,5.8c-1.9,0.8-3.8,1.3-5.6,0.1c-2-1.3-1.6-3.4-1.4-5.4c0.5-4.8,2.1-9.2,3.8-13.6
			c2.3-5.9,4.8-11.7,8.5-16.9c1.6-2.2,3.7-3.8,6.3-4.7c3.7-1.3,6.3,0.7,6.2,4.6C571.5,269.8,568.8,275.8,566.4,281.8z"/>
		<path id="XMLID_225_" class="st5" d="M589,260.3c-6.2,8.6-10.3,18.2-12.8,28.4c-0.6,2.3-0.9,4.7-0.5,7c0.5,3.9,2.7,5.8,6.6,5.8
			c4.9-0.1,8.8-2.5,12.3-5.7c5.1-4.6,8.2-10.6,11.1-16.6c3.3-6.9,5.9-14,6.5-20.6c0.1-6.6-2.2-8.8-7.7-8.7c-1.3,0-2.5,0.3-3.7,0.7
			C595.6,252.4,592,256.1,589,260.3z M599.6,256c4.2-1.9,6.8-0.2,6.7,5.5c-0.3,4.4-2.5,9.4-4.5,14.4c-2.2,5.7-5,11.1-8.8,16
			c-1.7,2.2-3.8,3.7-6.4,4.5c-3,1-5.1-0.5-5.2-3.6c-0.1-4.7,1.5-9.1,3.2-13.4c2.6-6.7,5.4-13.3,9.8-19.1
			C595.8,258.3,597.6,256.9,599.6,256z"/>
		<path id="XMLID_228_" class="st5" d="M377.8,350.4c-0.4-6.5-3.8-9.6-10.2-9c-5.4,0.5-9.8,3-13.1,7.3c-7.2,9.4-10.6,20.2-10.9,31.9
			c-0.2,9,5.4,12.6,13.9,9.6c3.1-1.1,5.9-2.9,8.1-5.3c8.2-9.1,10.7-20.4,12.2-32.1C377.8,352,377.9,351.2,377.8,350.4z M370.4,354.6
			c-1,9.8-3,19-8.7,27.1c-1,1.4-2.2,2.4-3.7,3.2c-4.3,2.1-7.9,0.1-7.9-4.7c0-4.5,1.1-8.9,2.2-13.3c0.9-3.9,2.5-7.4,4-11.1
			c1.2-3.1,2.9-5.8,5.8-7.5c5-2.9,8.4-0.8,8.4,4.8C370.4,353.7,370.4,354.2,370.4,354.6z"/>
		<path id="XMLID_229_" class="st5" d="M434.5,243.9c8.3-2.6,12.5-9.3,16.1-16.6c2.4-5,4.2-10.2,5.7-15.5c1.6-5.3,2.5-10.7,2.5-16.3
			c0-2.6-0.3-5.4-2.6-7.2c-2.3,0.2-4.4,1.1-6.5,1.8c-0.3,0.7,0.1,1.1,0.6,1.5c1.9,1.4,2.3,3.4,2.3,5.5c0,4.8-0.8,9.6-2.2,14.2
			c-1.3,4.4-2.6,8.8-4.3,13c-1.9,4.5-3.8,9-7.6,12.1c-3.3,2.8-7.5,4.3-10,1.3c-0.9-1-1.3-2.1-1.5-3.4c-0.4-3.9,0.3-7.6,1.1-11.3
			c1.2-5.2,2.7-10.2,4.5-15.1c1.4-4,3.1-7.9,5.4-11.4c0.6-0.9,0.9-2-0.9-1.6c-2.3,1.1-4.8,1.6-6.5,3.6c-1.2,1.9-2.2,4-3,6.1
			c-4,9.6-7.2,19.4-7,29.9C420.8,243.6,427.2,246.2,434.5,243.9z"/>
		<path id="XMLID_232_" class="st5" d="M405.3,337.5c-6.2-0.1-10.8,3.2-14.7,7.6c-3.5,4-5.7,8.9-7.5,13.8c-2.3,6.4-4,12.9-3.8,19.9
			c0.2,4.3,2.1,6.8,6.2,7.8c4.5,1.1,8.2-0.9,11.9-3.1c2.8-1.6,4.7-4,6.5-6.5c3.8-5.5,6-11.7,7.8-17.9c1.2-4.1,2.1-8.3,2-12.7
			C413.7,340.8,410.7,337.6,405.3,337.5z M400,374.6c-1.7,3.1-4.1,5.8-7.7,7c-4.1,1.4-7.3-0.8-7-5.2c0.6-9.6,3.5-18.6,7.9-27.1
			c1.2-2.3,3-4.2,5.3-5.5c2.3-1.3,4.6-2,7-0.6c2.5,1.4,2.2,3.8,2.2,6.1C406.9,358.3,404.2,366.7,400,374.6z"/>
		<path id="XMLID_235_" class="st5" d="M506.9,364c3.8-5.6,6.6-11.7,8.7-18.1c1.3-3.8,2.2-7.8,2.2-11.9c0.1-5.6-3.4-8.5-9-7.7
			c-3.1,0.5-5.9,1.6-8.3,3.6c-11.1,9.4-14.8,22.3-17,33.7c-0.1,9.2,3.5,12,10.2,10.2C499.5,372.4,503.6,368.7,506.9,364z M490.4,369
			c-1.8-1.3-1.8-3.2-1.5-5.1c1.3-8,4-15.6,7.8-22.8c1.4-2.6,2.9-5.1,5.2-7.1c1.2-1.1,2.5-1.9,4-2.4c3.8-1.1,6.2,0.7,6.1,5.7
			c-1.6,9.8-5.1,20-11.9,28.8c-1.1,1.4-2.7,2.3-4.3,3.1C494,369.9,492.2,370.2,490.4,369z"/>
		<path id="XMLID_236_" class="st5" d="M544.6,235.6c2.4-0.7,4.6-1.8,6.6-3.3c3.8-2.7,6.4-6.3,8.8-10.2c4-6.6,6.9-13.7,9.2-21
			c0.7-2.2,1.7-4.4,1.4-6.8c-0.9-0.4-1.8-0.8-2.7-1.2c-1.7-0.8-2.5-0.1-2.9,1.6c-1.6,7.3-4.2,14.4-7.3,21.2c-2.3,4.9-4.6,9.9-9.4,13
			c-2.2,1.4-4.7,2.4-7.2,0.8c-2.5-1.7-2-4.4-1.6-6.8c2-11.5,6.1-22.2,12.1-32.2c0.5-0.8,1.9-1.8,0.5-2.7c-1.1-0.7-2.5-1.3-3.9-0.3
			c-0.6,0.4-1.1,0.9-1.4,1.5c-7.2,11.3-12,23.5-13.6,36.9C532.2,233.5,537.4,237.6,544.6,235.6z"/>
		<path id="XMLID_239_" class="st5" d="M542.5,354.7c4.1-7.5,7.1-15.4,8.2-23.9c0.7-7.6-5.4-9.2-10.2-7.7c-4.3,1.3-7.9,3.6-10.7,7.1
			c-7.1,8.5-11,18.5-13.3,29.1c-0.8,3.4-1.3,7.4,2.1,9.9c3.2,2.4,6.8,1.5,10.2,0C535.2,366.3,539.2,360.8,542.5,354.7z M527.1,365.5
			c-3.7,0.9-5.7-1-5.4-4.8c0.4-4.7,2-9,3.7-13.3c2.4-5.8,4.5-11.8,9.1-16.4c1.6-1.6,3.4-2.8,5.6-3.2c3.3-0.6,5.2,1.2,4.9,5.8
			c-1.7,9.5-5.4,19.6-12.3,28.3C531.2,363.7,529.4,365,527.1,365.5z"/>
		<path id="XMLID_242_" class="st5" d="M417,399.5c-5.6,1.4-9.8,4.8-13,9.6c-3.5,5.3-6,11.1-7.5,17.3c-0.9,3.9-1.9,7.9-1,12
			c0.8,3.7,2.7,5.4,6.5,5.6c4,0.2,7.7-1.2,10.7-3.6c10.2-8.3,13.3-20.1,15-30.9C427.9,401,423.7,397.8,417,399.5z M412.2,435.8
			c-0.4,0.5-0.7,1-1.2,1.3c-2.5,1.7-5,3.6-8.1,2.1c-3.2-1.6-2.4-4.7-1.9-7.4c1.4-8,3.8-15.7,8.3-22.5c1-1.5,2.1-2.9,3.7-3.8
			c2.2-1.3,4.6-2.6,7.2-1.1c2.4,1.4,1.7,3.7,2,5.9C420.5,419.4,418.2,428.3,412.2,435.8z"/>
		<path id="XMLID_245_" class="st5" d="M589.4,362.5c4.5-1.1,8.3-3.6,11.4-7.2c5.5-6.4,9.1-13.8,12.1-21.6c1.6-4,3-8.2,2.5-12.7
			c-0.4-3.7-2.1-5.2-5.9-5.3c-3.1-0.1-5.8,1-8.4,2.5c-6.1,3.6-9.5,9.4-12.7,15.3c-3.8,7-6.7,14.3-7.6,21.3
			C580.7,361.2,584,363.8,589.4,362.5z M586.2,352.8c1-5.6,3.5-11.5,6.2-17.3c1.8-3.8,3.9-7.6,6.7-10.8c1.1-1.3,2.4-2.3,3.9-3.1
			c1.9-1,3.9-1.7,5.8-0.2c1.8,1.4,1.2,3.4,0.9,5.2c-0.7,3.9-2,7.6-3.6,11.2c-2.3,5.4-4.8,10.6-8.4,15.2c-1.7,2.1-3.7,3.9-6.3,4.7
			C587.8,358.7,586,357.3,586.2,352.8z"/>
		<path id="XMLID_248_" class="st5" d="M439.3,439c2.1-0.5,4.1-1.4,6-2.6c7.1-4.3,10.1-11.4,13.2-18.5c2-4.6,3.2-9.5,3.6-14.6
			c0.5-6.1-3-9.4-9.1-8.4c-3.7,0.6-7,2.1-9.7,4.8c-8.9,8.7-12.4,19.7-13.7,30.2C429.5,437.6,433.2,440.5,439.3,439z M435.1,426.9
			c1.4-6.5,3.8-15.1,9-22.6c1.5-2.1,3.6-3.7,6.1-4.5c3.8-1.3,6.9,0.9,6.4,4.7c-1.4,9.7-4.4,18.7-10.5,26.6c-1,1.3-2.2,2.2-3.7,2.9
			C438.4,435.9,434.2,435.3,435.1,426.9z"/>
		<path id="XMLID_251_" class="st5" d="M500.6,430.4c4.4-0.2,8.9-2.7,12.4-6.8c7.3-8.7,11.7-18.7,13-30c0.5-4.1-2-6.9-6.2-7.1
			c-3.3-0.1-6.4,1-9.2,2.9c-6.4,4.3-9.9,10.9-13,17.6c-2.4,5.2-4.3,10.6-4.6,16.4C493,428.1,495.2,430.3,500.6,430.4z M498.6,421
			c1.1-7.4,4.1-14.2,7.4-20.8c1.8-3.5,4.1-6.5,7.7-8.3c4.1-2,6.7-0.4,6.6,5.7c-1.8,8.4-5.1,17.6-11.6,25.3c-1.2,1.4-2.8,2.2-4.5,2.8
			C500.5,427.1,498,425.1,498.6,421z"/>
		<path id="XMLID_254_" class="st5" d="M650.6,326c-4.1,7-7.6,14.3-8.9,22.4c-0.8,5,2.1,7.7,7.2,6.9c3-0.5,5.6-1.7,8-3.6
			c8.3-6.5,12.6-15.7,16.6-25.1c0.6-1.5,1.7-3,1.3-4.8c-0.4-3.4-1.3-6.8-2.1-10.1c-0.5-2.1-1.8-2.7-3.7-2.4
			c-2.9,0.5-5.4,1.7-7.7,3.5C656.7,316.4,653.4,321,650.6,326z M671,319c-0.6,4.8-3.2,9.9-5.6,14.9c-2.2,4.6-4.7,9.1-8.2,13
			c-1.4,1.5-2.9,2.7-4.8,3.4c-1.5,0.7-3.1,1-4.5-0.1c-1.5-1.1-1.3-2.8-0.9-4.4c1.3-6,4-11.5,6.8-17c2-4.1,4.3-8,7.5-11.3
			c1.4-1.4,3-2.6,4.9-3.2C669.5,313.4,671.1,314.6,671,319z"/>
		<path id="XMLID_255_" class="st5" d="M472.1,240.5c1.6-0.1,3.3-0.1,3.9-2c0.6-1.6,1-3.2,1.5-4.8c2.9-9,5.7-18,8.6-27
			c2.3-7.1,4.6-14.2,6.9-21.3c0.3-0.9,0.8-2-0.3-2.7c-1.1-0.7-2.3-0.5-3.4,0.2c-0.6,0.4-1.1,1.1-1.6,1.7c-2.4,3.2-4.9,6.2-8.8,7.7
			c-1.7,0.7-3.4,1.1-5.1,1.4c-1.8,0.3-3.4,3-2.8,4.6c0.6,2,2.2,1.1,3.5,0.9c1.4-0.2,2.7-0.6,4-0.9c1.1-0.3,2.2-1.6,3.2-0.5
			c0.8,0.9,0,2.1-0.4,3.1c-3.8,12.1-7.7,24.3-11.6,36.4C469.3,239.4,469.5,240.7,472.1,240.5z"/>
		<path id="XMLID_258_" class="st5" d="M583.1,402.3c2.7-5.5,4.9-11.2,5.5-16.7c0-5-2-7-6.4-6.9c-4.4,0.1-8,2.1-11,5.1
			c-8.5,8.5-13.3,18.9-15.5,30.6c-1,5.4,2.9,8.9,8.2,7.3c3.3-1,6.3-2.6,9-5C577.4,412.6,580.5,407.6,583.1,402.3z M569.9,414.9
			c-2.8,2.5-5.9,3.5-7.7,2.2c-2.6-2-1.5-4.8-0.8-7.1c2.2-7.3,5.2-14.2,9.5-20.6c1.7-2.5,3.8-4.5,6.6-5.7c3.7-1.6,5.8-0.2,5.7,4.8
			c-0.5,4.6-3,9.7-5.4,14.8c-1.8,3.8-3.8,7.6-6.8,10.7C570.6,414.2,570.3,414.6,569.9,414.9z"/>
		<path id="XMLID_261_" class="st5" d="M472.8,458.6c0.1-7.4-3.4-10.1-9.4-8.6c-7.9,1.9-12.4,7.6-16,14.4c-2.6,5-4.4,10.3-5.5,15.9
			c-0.6,3.2-1,6.3,1.6,8.5c2.6,2.3,5.8,1.9,9,0.8c6-2.1,10-6.4,13.2-11.8C469.4,471.4,471.7,464.5,472.8,458.6z M457.7,482.4
			c-1.4,1.8-3.3,2.8-5.4,3.6c-3,1.2-5.9-0.8-5.5-4c1.1-8.6,4.1-16.6,9.2-23.7c1.4-2,3.4-3.2,5.7-4.1c3.5-1.3,5.9,0.4,5.8,4.6
			C466.2,467.2,463.2,475.3,457.7,482.4z"/>
		<path id="XMLID_264_" class="st5" d="M593.4,417.5c3.3-0.9,6.3-2.4,8.8-4.8c8.8-8.7,13.9-19.3,16.2-31.3c0.9-4.4-2.2-7.3-6.7-6.7
			c-2.4,0.3-4.6,1.1-6.6,2.4c-7,4.4-11,11.2-14.5,18.3c-2.5,5.1-4.7,10.4-5,15.9C585.4,416.5,588.6,418.9,593.4,417.5z M590.6,408
			c1.1-4.1,2.6-8.1,4.4-11.9c1.7-3.5,3.5-7.1,5.7-10.4c1.9-2.8,4.3-4.9,7.4-6.1c3.1-1.1,5.2,0.4,5.1,4c-0.8,4-2.4,8.1-4.3,12.1
			c-2.4,5.2-4.8,10.4-9,14.5c-1.2,1.2-2.5,2.2-4.2,2.7c-1.5,0.5-3,1.1-4.4-0.2C590,411.4,590.1,409.6,590.6,408z"/>
		<path id="XMLID_267_" class="st5" d="M498.3,468.6c2.5-4.9,4.2-10,5.2-15.4c1-5.2-1.7-8.2-7-8.1c-3.2,0.1-6,1.3-8.5,3.2
			c-9.9,7.9-14.6,18.7-15.7,31.1c-0.4,4.5,1.7,6.2,7.7,6.1c3-0.2,6.6-2.1,9.8-4.9C493.5,477.3,496,473,498.3,468.6z M483,481
			c-3.4,1.4-5.7-0.2-5.5-3.9c0.5-7,3.4-13.3,6.7-19.3c1.8-3.2,3.8-6.2,7.4-7.7c4.5-1.9,6.3-0.6,6,5.9c-1.4,7.3-4.6,15.4-10.5,22.4
			C486.2,479.7,484.6,480.4,483,481z"/>
		<path id="XMLID_270_" class="st5" d="M671.5,367.4c-2.3,0.2-4.4,0.9-6.4,2c-5.2,3-8.7,7.6-11.8,12.6c-3.9,6.3-7.4,12.9-8.8,20.3
			c-1.1,5.8,2.5,8.6,8.1,6.7c3.2-1.1,6-2.9,8.5-5.2c5.6-5.3,9.2-12,12.5-18.9c1.9-3.9,3.2-7.9,3.4-12.2
			C677.2,368.7,675.6,367.1,671.5,367.4z M672.2,376.3c-0.3,2.3-1.5,5-2.7,7.7c-2.4,5.4-5.1,10.6-8.6,15.4c-1.7,2.3-3.7,4.4-6.5,5.4
			c-1.5,0.5-3.1,1-4.4-0.3c-1.2-1.2-1-2.7-0.6-4.2c1.2-4.7,3.3-9.1,5.5-13.4c2.1-4.1,4.3-8.2,7.6-11.6c1.4-1.5,2.9-2.6,4.8-3.4
			C670.5,370.8,672.3,372.1,672.2,376.3z"/>
		<path id="XMLID_271_" class="st5" d="M448.9,272.5c-1.5,0.9-2.2,2.5-1.8,4c0.5,1.9,2.1,0.9,3.3,0.7c1.4-0.3,2.8-0.8,4.3-1.2
			c0.9-0.3,1.9-1.2,2.7-0.4c0.8,0.8,0,1.9-0.3,2.8c-0.7,2.5-1.6,4.9-2.3,7.3c-2.8,8.7-5.5,17.3-8.3,26c-0.5,1.6-0.2,2.8,1.8,2.6
			c1.7-0.3,3.5-0.2,4.1-2.3c2.5-8,5.2-15.9,7.7-23.9c2.5-7.8,4.9-15.6,7.4-23.3c0.4-1.1,1.1-2.4-0.2-3.2c-1.2-0.7-2.5-0.2-3.5,0.8
			c-0.6,0.6-1.1,1.4-1.6,2.1c-2.8,4-6.5,6.6-11.3,7.5C450.2,272.1,449.5,272.2,448.9,272.5z"/>
		<path id="XMLID_274_" class="st5" d="M644.6,423.8c-2,0-5.3,1.1-7.9,3c-10.1,7.4-15.1,17.9-18.1,29.6c-1.2,4.5,1.5,7.1,6.1,6.3
			c3.4-0.6,6.6-2,9.2-4.5c8.2-7.9,13.3-17.5,16-28.5C650.7,426.2,648.4,423.7,644.6,423.8z M635.3,452.2c-1.8,2.7-3.9,4.9-6.9,6.3
			c-1.4,0.6-2.7,1.2-4.2,0.1c-1.3-1-1.2-2.4-0.8-3.8c2.4-8.9,6.4-16.9,12.5-23.8c1.2-1.4,3-2.3,4.8-2.8c2.6-0.8,4.3,0.6,4.1,4.1
			C643.3,439.1,639.5,445.7,635.3,452.2z"/>
		<path id="XMLID_277_" class="st5" d="M621,433c0.6-3.5-2.4-5.6-6.3-5c-2.6,0.4-4.9,1.5-7.1,2.9c-7.1,4.5-10.7,11.7-14.2,18.9
			c-1.9,3.9-3.4,8-3.7,12.8c0,2.6,1.2,4.1,4.2,4.7c3.1,0.7,5.7-0.8,8-2.3C613.2,457.4,618.6,446.1,621,433z M598.4,463.9
			c-2.6,0.7-4.8-1.3-4.2-4c1.6-7.8,4.9-14.9,9.8-21.3c1.8-2,3.3-4.2,5.8-5.4c1.7-0.8,3.4-1.8,5.3-0.4c1.9,1.5,1.3,3.5,0.7,5.2
			c-2.9,8.5-6.3,16.8-13,23.2c0,0,0,0,0,0c0,0,0,0,0,0C601.8,462.9,600,463.4,598.4,463.9z"/>
		<path id="XMLID_278_" class="st5" d="M579.3,232.9c4.7-1.4,8.5-4.1,11.6-7.9c3.5-4,5.9-8.8,8.3-13.5c0.4-0.8,0.9-1.6,0-2.4
			c-3.4-2.1-3.3-2.1-4.9,1.3c-1.6,3.5-3.3,6.9-5.5,10.1c-2,3-4.4,5.6-7.9,6.9c-3.4,1.3-6.2-0.6-6.4-4.2c-0.1-1.3,0.2-2.5,0.5-3.8
			c1.1-6.5,3.7-12.5,6-18.5c0.7-1.8-0.3-2.3-1.5-2.9c-1.3-0.6-2.4-0.8-3.1,0.8c-3.9,8.1-6.9,16.6-7.6,25.7
			C568,231.2,572.8,234.8,579.3,232.9z"/>
		<path id="XMLID_279_" class="st5" d="M521.7,266.4c-1.4,0.8-2.2,2.3-1.8,3.8c0.5,1.8,2.2,0.8,3.3,0.6c1.1-0.2,2.1-0.6,3.1-0.8
			c1-0.3,2.1-1.3,3-0.3c1,1,0.1,2.2-0.3,3.3c-3.8,10.4-7.6,20.8-11.4,31.1c-0.7,1.8-0.9,3.2,1.8,2.9c2.1,0.1,3.3-1.1,4-3.1
			c5.5-15.1,11.1-30.1,16.6-45.2c0.4-1,0.9-2.2-0.3-2.9c-1-0.6-2.2-0.2-3,0.5c-0.6,0.5-1,1.2-1.5,1.8c-2.7,3.8-6.1,6.4-10.7,7.4
			C523.5,265.6,522.5,265.9,521.7,266.4z"/>
		<path id="XMLID_282_" class="st5" d="M539.2,476.1c5.4-0.4,9.4-3.4,12.7-7.3c5.6-6.6,9.1-14.3,11.4-22.6c0.8-2.9,1.6-6-1-8.3
			c-2.6-2.4-5.8-1.3-8.7-0.5c-0.4,0.1-0.7,0.3-1.1,0.5c-6,2.5-9.6,7.4-12.7,12.8c-3.5,6-6.4,12.2-7.1,17.9
			C532.6,474.9,534.1,476.4,539.2,476.1z M537.5,468.3c0.5-4.1,2.1-7.9,3.9-11.6c0.8-2.9,2.3-5.5,3.9-8c1.2-1.6,2.3-3.2,3.5-4.8
			c1.8-1.4,3.3-3.1,5.7-3.5c3-0.5,4.8,0.8,4.3,3.5c-1.9,9.7-5.4,18.7-12.6,25.9c-1.2,1.2-2.8,2-4.4,2.4
			C538.8,473.1,537.1,471.5,537.5,468.3z"/>
		<path id="XMLID_283_" class="st5" d="M386.6,246.7c3.2,1,6.2,1.2,9.5,0.2c8.3-2.6,12.5-9.2,15.9-16.4c3.5-7.4,5.8-15.2,7.2-23.2
			c0.2-1,1.1-2.6-1-3c-1.6,1-3.2,2-4.8,3c-0.8,0.6-1.1,1.4-1.2,2.3c-1.4,6.8-3.1,13.5-6,19.9c-2.2,4.9-4.3,9.9-10,12.1
			c-3.5,1.3-6.5,0-7.7-3.6c-0.7-2.3-0.6-4.5-0.2-6.9c0.2-1.3,1.4-3.3-1-4.2c-1.8,1.8-3.6,3.6-5.4,5.4
			C380.4,237.7,382.2,243.5,386.6,246.7z"/>
		<path id="XMLID_286_" class="st5" d="M534.6,489.7c-0.9,0.1-1.8,0.3-2.6,0.6c-5.4,1.9-9.6,5.3-12.6,10.2c-3.9,6.3-7.1,12.7-8,18.6
			c-0.1,6.3,2,8.1,6.8,7.4c1.3-0.2,2.5-0.6,3.7-1.1c4.7-2,8.1-5.4,10.9-9.6c3.9-5.9,6.8-12.2,8.1-19.2
			C541.7,491.8,539.4,489.3,534.6,489.7z M535.8,498.2c-1.5,7.6-4.8,14.3-9.4,20.5c-1.2,1.6-2.9,2.7-4.7,3.6
			c-3.6,1.7-5.8,0.3-5.7-4.5c0.8-4.6,3.3-9.5,5.8-14.4c1.9-3.9,4.3-7.3,8.4-9.2c1.5-0.7,3.1-1.2,4.5-0.2
			C536.4,495,536.2,496.6,535.8,498.2z"/>
		<path id="XMLID_287_" class="st5" d="M461,343.3c0,1,1.1,0.9,1.9,0.9c2-0.2,3.9-0.8,5.7-1.6c0.6-0.3,1.3-0.8,1.9-0.2
			c0.8,0.6,0.3,1.4,0.1,2.2c-3.3,9.6-6.6,19.2-9.9,28.8c-0.4,1-1.4,2.4,0,3.2c1.3,0.7,2.9,0.5,4.2-0.5c0.9-0.8,1.4-1.9,1.7-3
			c2.6-8.8,5.8-17.3,8.8-25.9c1.7-4.8,3.4-9.6,5-14.5c0.3-0.9,1-2.3-0.3-2.9c-1.3-0.7-2.5-0.1-3.5,0.9c-0.3,0.3-0.4,0.6-0.7,1
			c-1.9,2.7-4.3,4.8-7.3,6.3c-1.7,0.9-3.6,1-5.4,1.7C461.5,340.2,461,341.7,461,343.3z"/>
		<path id="XMLID_288_" class="st5" d="M342.1,323.3c1.2-4.6,2.4-9.3,3.6-14c1.5-6,2.9-12,4.4-18c1.4-5.9,2.8-11.8,4.2-17.8
			c0.2-0.8,0.6-1.9-0.5-2.3c-1-0.4-1.6,0.5-2,1.3c-3.1,5.4-6,11-7.5,17c-2.8,10.9-5.5,21.8-8.2,32.7c-0.5,2.1-0.2,3.3,1.8,3.1
			C339.8,325.2,341.6,325.4,342.1,323.3z"/>
		<path id="XMLID_289_" class="st5" d="M625.7,261.6c1.1-0.2,2.1-0.6,3.1-0.9c0.9-0.2,1.8-1.4,2.7-0.5c0.8,0.9-0.1,1.8-0.5,2.7
			c-4.5,10.6-9,21.2-13.6,31.8c-0.6,1.5-0.9,2.5,1.7,2.4c2.1,0.3,3.3-1.5,4.1-3.5c6.1-14.1,12.1-28.2,18.1-42.3
			c0.6-1.3,1.1-2.7-0.4-3.7c-1.7-1.1-2.5,0.5-3.3,1.5c-3.1,3.8-6.7,7-11.8,7.8c-0.7,0.1-1.4,0.4-1.9,0.8c-1,1-2.2,2.2-1.5,3.6
			C623.1,262.6,624.6,261.8,625.7,261.6z"/>
		<path id="XMLID_290_" class="st5" d="M509,237.5c2.6,0.4,4.7-1.1,5.3-4c0.5-2.4,1.4-4.7,2.3-6.9c1.5-3.6,2.6-7.3,3.8-10.9
			c1.8-5.3,3.5-10.6,5.4-15.8c1.7-4.9,3-9.9,5.1-14.6c0.4-0.8,0.6-1.7-0.6-2.2c-1.4-0.1-2.9-0.6-4.1,0.5c-3.1,4.1-6.8,7.1-12.1,7.7
			c-2.2,0.3-3.2,1.7-3.7,3.7c-0.5,1.9,0.2,2.4,2,1.9c2.3-0.7,4.7-0.6,6.8-1.9c0.6-0.4,1.3-0.7,1.9,0c0.4,0.5,0.3,1.1,0.1,1.7
			c-0.9,2.2-1.3,4.5-2.2,6.7c-4.2,10.6-7.1,21.7-11.2,32.3C507.2,237,507.8,237.4,509,237.5z"/>
		<path id="XMLID_291_" class="st5" d="M513.1,502c1.2-5.5-2.2-9-7.6-8c-1.6,0.3-3.2,0.8-4.8,1.4c-4.7,2-7.9,5.5-10.5,9.6
			c-3.5,5.6-6.5,11.5-7.6,18.1c-0.2,1.2-1.5,2.8,0.5,3.9c0.5,0.1,1.1,0.1,1.6,0.2c1-0.4,3,0.8,2.9-1.4c-0.1-7.7,3.7-14,7-20.4
			c1.7-3.3,4.4-5.9,8-7.1c3.3-1.1,5.6,0.8,4.9,4.3c-2,9.3-4.9,18.1-13.1,24.1c-1.4,1-0.1,1.1,0.4,1.6c0.7,0,1.4,0,2.1,0
			c2-0.4,3.4-1.7,4.8-3.1c2.2-2.4,3.7-5.4,5.4-8.2l0,0C509.9,512.2,511.9,507.2,513.1,502z"/>
		<path id="XMLID_292_" class="st5" d="M578.6,319.1c-0.9,0.3-1.3,1.1-1.9,1.8c-3.2,3.5-6.4,7-11.6,7.5c-1.2,0.1-2,0.9-2.5,1.9
			c-0.3,0.7-0.8,1.5-0.3,2.2c0.5,0.8,1.4,0.6,2.2,0.4c1.3-0.3,2.7-0.8,4-1.2c0.8-0.2,1.6-1.2,2.4-0.4c0.9,0.9,0,1.8-0.4,2.7
			c-3.9,9.5-7.7,19-11.6,28.5c-0.6,1.5-0.9,2.7,0.8,2.7c2.4-0.2,3.7-0.9,4.5-2.9c5.5-13.7,11.1-27.3,16.7-41c0.3-0.7,1-1.4,0.2-2.1
			C580.4,318.5,579.5,318.8,578.6,319.1z"/>
		<path id="XMLID_293_" class="st5" d="M592.2,480.7c-3.3,0-6.4,0.9-9.2,2.9c-7.4,5.3-11.3,13-14.6,21.1c-1.2,3-1.9,6-1.6,9.2
			c0.1,0.9,0.4,1.9,1.5,1.9c1.5,0,2.9-0.7,4.1-1.5c1.2-0.9-0.4-1.2-0.6-1.7c-0.7-1.9-0.5-3.7,0.1-5.5c0.8-2.2,1.6-4.5,2.6-6.6
			c2.5-5.1,4.8-10.4,9.5-14.1c1.9-1.4,4.1-3.1,6.5-1.5c2.3,1.6,1.1,4.1,0.4,6.3c-2.1,6.7-5.3,12.9-10.2,19c3.9-1,6.4-2.7,8-5.3
			c2.5-4,4.6-8.2,6.3-12.7c0.9-2.5,1.5-4.9,1.4-7.5C596.2,482.1,594.7,480.8,592.2,480.7z"/>
		<path id="XMLID_294_" class="st5" d="M620.4,355.2c-0.7,1.5-1.2,2.7,1.9,2.7c2,0.2,2.9-1.9,3.7-3.8c5.9-13,11.7-26.1,17.5-39.1
			c0.4-0.9,1.2-1.9,0.1-2.6c-1-0.7-2.2-0.2-2.9,0.6c-3.5,4.4-7.6,7.9-13.5,9c-1.4,0.3-2.5,2-2,3.5c0.5,1.7,2,0.3,3.1,0.2
			c0.9-0.1,1.7-0.4,2.6-0.6c0.9-0.3,1.8-1.4,2.7-0.4c0.7,0.9-0.3,1.9-0.6,2.7C628.8,336.6,624.6,345.9,620.4,355.2z"/>
		<path id="XMLID_295_" class="st5" d="M471.8,430.1c-0.6,1.7-1.1,3.2,1.5,3.2c2.7,0,3.5-2,4.2-4c1.2-3.4,2.3-6.9,3.6-10.3
			c3.2-8.9,6.5-17.7,9.8-26.5c0.2-0.7,0.5-1.3-0.1-1.9c-0.7-0.7-1.5-0.4-2.2-0.1c-1,0.4-1.6,1.1-2.2,1.9c-2,2.7-4.6,4.8-7.8,6.2
			c-1.2,0.6-2.5,0.6-3.7,1c-1.8,0.5-2.8,1.9-2.4,3.6c0.5,1.7,2,0.6,3.1,0.4c1.2-0.2,2.3-0.7,3.4-1c0.7-0.2,1.5-0.8,2.2-0.1
			c0.7,0.7,0.1,1.5-0.2,2.2C478,413.1,474.9,421.6,471.8,430.1z"/>
		<path id="XMLID_296_" class="st5" d="M541,406.4c-2.1,5.2-4.3,10.4-6.4,15.6c-0.5,1.4-1.2,2.8,0.9,2.8c2.7-0.1,3.9-1.7,4.6-3.6
			c4.9-11.9,9.8-23.9,14.6-35.8c0.4-1,1-2.2-0.1-3c-1.2-1-2.2,0.1-3.1,0.9c-0.6,0.5-1,1.2-1.5,1.8c-2.5,2.9-5.6,5-9.3,5.9
			c-0.7,0.2-1.4,0.2-2,0.5c-1.3,0.6-2,1.8-1.6,3.2c0.5,1.5,1.8,0.8,2.8,0.5c1.3-0.4,2.6-0.9,3.9-1.3c0.6-0.2,1.3-0.9,1.9-0.1
			c0.4,0.5-0.1,1.1-0.3,1.7C544,399.1,542.5,402.8,541,406.4z"/>
		<path id="XMLID_297_" class="st5" d="M645.2,295.1c5.5,0.5,15.2-5.3,17.2-10.5c0.6-1.5,0.1-3-1.1-3.7c-1.3-0.8-1.7,0.9-2.3,1.7
			c-2,2.7-3.9,5.4-7.2,6.8c-1.7,0.7-3.3,1.4-5,0.2c-1.7-1.3-1.5-3.1-1.2-4.9c0.6-4,2.2-7.8,3.8-11.5c1-2.3,2-4.5,3-6.8
			c0.9-1.9-0.1-3.6-1.4-4.4c-1.7-1-1.9,1.2-2.5,2.1c-0.7,1-1.2,2.1-1.7,3.1c-3.2,6.7-6.1,13.5-6.7,19.5
			C640,292.9,641.4,294.7,645.2,295.1z"/>
		<path id="XMLID_298_" class="st5" d="M437.4,454.1c-1.2-0.9-2.2,0.1-3.1,0.8c-0.5,0.4-0.8,0.9-1.1,1.4c-2.4,3.2-5.6,5.3-9.5,6.1
			c-1.8,0.4-3.7,1.2-3.2,3.1c0.6,2,2.6,0.7,4.1,0.6c1.6-0.1,3.3-2.6,4.4-1.2c1,1.3-0.7,3.4-1,5.2c-0.1,0.4-0.3,0.7-0.5,1.1
			c-2.3,6.7-4.6,13.4-6.9,20.1c-0.5,1.5-0.1,2.3,1.6,2.3c1.5,0,2.7-0.4,3.3-2c0.9-2.4,1.9-4.7,2.7-7.1c3.1-9.1,6.2-18.2,9.3-27.3
			C437.8,456.1,438.4,454.9,437.4,454.1z"/>
		<path id="XMLID_299_" class="st5" d="M625.5,412.2c1-0.3,1.7-0.9,2.1-1.9c4.3-9.4,8.7-18.7,13.1-28.1c1.8-3.2,3-6.6,4.7-9.8
			c0.8-1.5,0-1.9-1.4-1.8c-0.8,0.1-1.5,0.5-2.2,0.9c-3,4-6.4,7.2-11.6,7.9c-0.8,0.1-1.4,0.6-1.9,1.3c-0.6,0.8-1.3,1.7-0.7,2.7
			c0.6,0.9,1.6,0.2,2.4,0c1-0.2,1.9-0.6,2.8-0.9c0.8-0.2,1.6-1.2,2.4-0.4c0.8,0.8-0.2,1.6-0.5,2.4c-3.9,8.4-7.8,16.8-11.6,25.2
			c-0.3,0.7-1.2,1.6-0.3,2.4C623.7,412.9,624.7,412.5,625.5,412.2z"/>
		<path id="XMLID_300_" class="st5" d="M350,407.8c-2.3,0.2-4.5,0.9-6.5,1.8c-1.8,0.8-3.3,2-2,4.3c1.4,2.5,2.5,0,3.5-0.4
			c2.4-1.1,4.8-1.6,7,0c2.1,1.5,2.3,3.9,1.9,6.2c-0.6,3.6-1,7.3-2.2,10.7c-1.3,3.5-0.6,6.3,2,9.3c3.9-7.6,6.2-15.2,5.9-23.4
			C359.3,410.2,356.1,407.3,350,407.8z"/>
		<path id="XMLID_301_" class="st5" d="M513.2,479.5c2.3-0.3,3.6-1.4,4.4-3.4c1.8-4.6,3.7-9.1,5.6-13.6c2.6-6.4,5.2-12.7,7.8-19.1
			c0.3-0.9,0.9-2-0.2-2.7c-1-0.6-1.9,0-2.6,0.7c-0.4,0.3-0.7,0.7-1,1.1c-2.6,3.3-5.9,5.5-10,6.4c-0.8,0.2-1.6,0.3-2.1,1
			c-0.5,0.7-1.1,1.6-0.6,2.4c0.5,0.8,1.4,0.5,2.2,0.3c1.2-0.4,2.4-0.8,3.6-1.2c0.7-0.3,1.4-1,2.1-0.2c0.5,0.6,0,1.3-0.2,2
			c-0.2,0.6-0.4,1.1-0.6,1.7c-3,7.5-6.1,15-9.2,22.4C511.8,478.4,511.4,479.5,513.2,479.5z"/>
		<path id="XMLID_302_" class="st5" d="M571,470.6c1.4-0.1,2.6-0.5,3.3-2c1.2-2.7,2.5-5.3,3.7-8c3.9-8.7,7.8-17.4,11.7-26.1
			c0.4-0.8,0.9-1.6,0.1-2.4c-0.6-0.6-1.4-0.5-1.9,0c-3.9,4.2-8.3,7.4-13.9,9.1c-0.8,0.2-1.4,1.2-1.2,2.2c0.4,1.3,1.4,0.6,2.2,0.6
			c1.2,0,2.3-0.3,3.4-0.9c0.7-0.4,1.5-1,2.2-0.4c0.9,0.8-0.1,1.6-0.4,2.3c-3.4,7.8-6.9,15.5-10.3,23.2
			C569.5,469.3,568.7,470.5,571,470.6z"/>
		<path id="XMLID_303_" class="st5" d="M403.3,458.6c-1.2,0.1-2,0.6-2.7,1.6c-2.7,4-6.5,6.2-11,7.5c-0.6,0.2-1.2,0.3-1.6,0.6
			c-0.9,0.7-1.6,1.7-1.1,2.8c0.5,1.1,1.6,0.5,2.4,0.3c1.2-0.3,2.5-0.7,3.7-1c0.9-0.3,1.8-1.3,2.7-0.4c0.9,0.9,0.2,2.1-0.1,3.1
			c-1.1,3.8-2.4,7.5-3.6,11.3c-0.5,1.7,1.2,4.6,3.6,4.8c0.1,0,0.1-0.7,0.3-1.2c1.5-4.5,3.1-9.1,4.6-13.6c1.5-4.6,2.8-9.2,4.2-13.8
			C405.1,458.9,404.6,458.5,403.3,458.6z"/>
		<path id="XMLID_304_" class="st5" d="M566.4,484.9c-0.8-0.7-1.7-0.1-2.5,0.3c-0.6,0.3-1.1,0.9-1.5,1.4c-2.3,2.9-5.1,4.8-8.8,5.6
			c-1.3,0.3-2.4,1-3.2,2c-0.3,0.4-0.7,0.8-0.5,1.3c0.2,0.7,0.9,0.7,1.5,0.7c1.6,0,3.1-0.7,4.5-1.3c0.5-0.2,1.1-0.8,1.6-0.3
			c0.7,0.6,0.1,1.2-0.2,1.9c-1,2.2-1.9,4.3-2.9,6.5c-2.2,4.9-4.5,9.9-6.7,14.8c-0.5,1.2-1.3,2.5,1,2.7c1.6-0.2,2.7-0.9,3.4-2.5
			c4.6-10.3,9.2-20.6,13.8-31C566.3,486.3,567.2,485.6,566.4,484.9z"/>
		<path id="XMLID_305_" class="st5" d="M445.3,504c-4.5,0.4-8,2.7-11.1,5.7c-0.8,0.8-2.4,1.8-0.9,3.1c1.3,1.2,2.5,0.3,3.5-0.9
			c1.5-1.9,3.4-3.3,5.8-3.8c3.9-0.7,5.4,0.7,5,4.6c-0.1,1.1-0.1,2.2-0.4,3.2c-0.5,1.8,0.2,2.9,2,3.2c1.9,0.3,2.5-0.9,2.8-2.3
			c0.4-1.9,0.6-3.9,0.9-5.8C452.9,505.2,451.1,503.5,445.3,504z"/>
		<path id="XMLID_306_" class="st5" d="M476.4,499.2c-2.9,3.6-6.1,6.8-11.1,7.6c-1,0.1-2,0.8-2.5,1.9c-0.2,0.5-0.5,1.1,0.1,1.6
			c0.4,0.4,0.9,0.5,1.3,0.2c1.3-1,3-0.6,4.5-1.1c0.6-0.4,1.3-1.2,2.1-0.7c1,0.7,0.1,1.6-0.2,2.3c-1.4,3.6-2.8,7.3-4.1,10.9
			c-0.4,1.1-0.6,2.1,1.1,2.3c1.5,0.6,2.7-0.1,3.1-1.4c0.6-1.9,1.5-3.6,2.2-5.4c1.9-5,3.5-10.2,6-15c0.5-0.9,0.7-2,0.3-2.8
			C478.4,498.5,477.3,498.7,476.4,499.2z"/>
		<polygon id="XMLID_307_" class="st5" points="476.4,499.2 476.4,499.2 476.4,499.2 		"/>
		<path id="XMLID_308_" class="st5" d="M621.6,476.3c-0.8-0.6-1.8-0.3-2.4,0.4c-3.1,3.6-7,6-11.6,7.2c-1.1,0.3-1.9,1.3-1.5,2.5
			c0.4,1.2,1.5,0.4,2.3,0.4c1.2-0.1,2.4-0.2,3.2-1.2c2.6-0.7,2,0.7,1.4,2.2c-0.2,0.5-0.8,0.9-1,1.5c-0.1,0.5-0.4,1.2,0.7,1
			c4.8-2.4,6.7-7,8.7-11.5C621.8,477.8,622.6,477,621.6,476.3z"/>
		<path id="XMLID_309_" class="st5" d="M335.4,344.9c-1.8-0.2-3.7,0.1-3.9,2.2c-0.7,5.8-0.5,11.6,0.6,17.4c0.1-0.9,0.1-1.8,0.4-2.6
			c1.6-4.8,2.6-9.8,3.7-14.8C336.5,346.2,336.9,345.1,335.4,344.9z"/>
		<path id="XMLID_310_" class="st5" d="M615.6,229.2c2.4,0.1,4.4-1.5,4.2-3.3c-0.2-1.7-1.6-2.6-3-3.3c-0.7-0.3-3.2,3.8-3.1,5.2
			C613.7,229.2,614.8,229.2,615.6,229.2z"/>
		<path id="XMLID_311_" class="st5" d="M370.1,463.8c1.2,2.4,2.8,3.9,4.2,5.5c0.4,0.4,0.8,1,1.5,0.6c0.5-0.4,0.4-1.1,0.2-1.6
			C375,465.7,373.2,464.3,370.1,463.8z"/>
		<path id="XMLID_312_" class="st5" d="M660.7,427.8c-1.3,0.4-2.2,1.2-2.5,2.6c-0.1,0.7,0.4,1,1.2,1c1.4-0.4,1.7-1.6,2.1-2.8
			C661.7,428,661.4,427.6,660.7,427.8z"/>
		<path id="XMLID_315_" class="st5" d="M373.2,322.4c4-0.1,8.6-3,12.3-7.6c6-7.6,8.9-16.6,10.7-26c0.9-4.3,1.7-8.7,0.8-13.2
			c-0.7-3.6-2.8-5.8-6.3-6.7c-4.6-1.2-8.6,0.5-12.3,2.9c-6,4-8.9,10.1-11.4,16.5c-3.2,8.4-5.6,17-4.6,26.2
			C363.1,320.2,365.4,322.4,373.2,322.4z M367.8,309.6c1.6-10.6,3.4-21.2,9.5-30.5c1.3-2.1,3.1-3.5,5.3-4.6c4.7-2.2,8.8-0.2,8.7,5
			c-0.2,12.3-3.4,23.9-10.6,34.2c-1.4,1.9-3.4,3-5.6,3.6c-4,1.1-6.9-0.9-7.2-5C367.8,311.4,367.8,310.5,367.8,309.6z"/>
		<path id="XMLID_316_" class="st5" d="M426.2,377.5c-0.3,1-1.4,2.2,0,2.9c1.1,0.6,2.6,0.3,3.6-0.7c0.8-0.8,1.2-1.8,1.5-2.9
			c1.8-6,3.7-12,5.6-18c2.3-7.2,4.7-14.2,6.9-21.5c1-3.3,0.5-3.7-2.9-2.7h0c-2.3,5-6.2,7.9-11.6,8.9c-1.3,0.2-2.4,0.8-3.1,2
			c-0.3,0.6-0.7,1.2-0.2,1.9c0.4,0.5,1.1,0.5,1.6,0.3c1.7-0.5,3.4-1.1,5.1-1.7c0.9-0.3,1.9-0.9,2.8-0.1c0.8,0.8,0.2,1.7,0,2.5
			C432.3,358.1,429.3,367.8,426.2,377.5z"/>
		<path id="XMLID_317_" class="st5" d="M388.7,403.9c-1.1-0.6-2.1,0.2-2.8,1.1c-1.3,1.5-2.5,3.2-4,4.4c-2.4,1.9-5.1,3.4-8.2,3.8
			c-1.3,0.2-2.4,0.8-2,2.3c0.4,1.6,1.8,0.9,2.7,0.6c1.7-0.4,3.4-1,5.1-1.6c2-0.7,2.7,0,2.1,1.9c-0.5,1.7-1.2,3.3-1.7,5
			c-1.9,6.7-3.7,13.5-5.8,20.2c-1.6,5.1-1.8,5.1,3.3,4.8c0,0,0,0,0,0c-0.3-2.2,1.2-3.9,1.7-5.9c1.7-6.3,3.2-12.7,5.3-19
			c1.7-5,3.3-10.1,4.4-15.2C388.9,405.5,389.9,404.5,388.7,403.9z"/>
	</g>
</g>
<g id="Layer_3">
	<g id="XMLID_392_">
		<g id="XMLID_418_">
			<path id="XMLID_51_" class="st6" d="M142.3,358c-1.6,0-3.1-1.1-3.4-2.7L128,306.6l-11.3,48.8c-0.4,1.6-1.8,2.7-3.4,2.7H83
				c-1.5,0-2.9-1-3.4-2.5l-35-117.6c-0.3-1.1-0.1-2.2,0.5-3.1s1.7-1.4,2.8-1.4h41.8c1.6,0,3,1.1,3.4,2.7l10.8,43.6l10.3-43.6
				c0.4-1.6,1.8-2.7,3.4-2.7h31.5c1.6,0,3,1.1,3.4,2.7l10.2,43.8l11.4-43.9c0.4-1.5,1.8-2.6,3.4-2.6h29.5c1.1,0,2.1,0.5,2.8,1.4
				c0.7,0.9,0.9,2,0.6,3.1l-34.3,117.6c-0.4,1.5-1.8,2.5-3.4,2.5H142.3z"/>
			<path id="XMLID_46_" d="M207.2,236.9l-34.3,117.6h-30.6l-14.2-63.7l-14.8,63.7H83L48,236.9h41.8l14.3,57.6l13.6-57.6h31.5
				l13.4,57.6l15-57.6H207.2 M207.2,229.9h-29.5c-3.2,0-6,2.2-6.8,5.2l-7.9,30.1l-7-30c-0.7-3.2-3.6-5.4-6.8-5.4h-31.5
				c-3.2,0-6.1,2.2-6.8,5.4l-7,29.5l-7.4-29.6c-0.8-3.1-3.6-5.3-6.8-5.3H48c-2.2,0-4.3,1-5.6,2.8c-1.3,1.8-1.7,4.1-1.1,6.2l35,117.6
				c0.9,3,3.6,5,6.7,5h30.3c3.3,0,6.1-2.2,6.8-5.4l7.9-33.8l7.5,33.7c0.7,3.2,3.6,5.5,6.8,5.5h30.6c3.1,0,5.8-2.1,6.7-5l34.3-117.6
				c0.6-2.1,0.2-4.4-1.1-6.2C211.5,230.9,209.4,229.9,207.2,229.9L207.2,229.9z"/>
		</g>
		<g id="XMLID_405_">
			<path id="XMLID_116_" class="st6" d="M271,360.5c-19.2,0-34.7-6.1-46.3-18.3c-11.5-12.1-17.3-27.2-17.3-45
				c0-18.4,5.7-34.1,17-46.9c11.4-12.8,26.7-19.3,45.6-19.3c18.3,0,33.3,6.1,44.6,18.2c11.3,12,17,28.5,17,49c0,1.6,0,3.9-0.1,6.8
				c0,1.9-1.6,3.4-3.5,3.4h-68.9c0.4,4.9,1.4,8.7,2.9,11.1c1.6,2.5,5,3.8,10.1,3.8c7.5,0,11.5-3.6,12.9-11.5
				c0.3-1.7,1.8-2.9,3.4-2.9c0.1,0,0.2,0,0.3,0l39.7,2.9c1,0.1,1.9,0.6,2.5,1.4c0.6,0.8,0.8,1.8,0.6,2.8
				c-2.5,12.3-8.9,22.9-19.1,31.5C302.1,356.1,288.2,360.5,271,360.5z M281.9,278.3c-0.5-6.1-1.9-8.8-3.2-10
				c-2.2-2.1-4.9-3.1-8.3-3.1c-4.9,0-10.5,1.6-11.5,13.1H281.9z"/>
			<path id="XMLID_105_" d="M270.1,234.5c17.3,0,31.4,5.7,42.1,17.1c10.7,11.4,16,27,16,46.6c0,1.6,0,3.9-0.1,6.7h-72.6
				c0.1,7.4,1.3,12.9,3.6,16.5c2.3,3.6,6.6,5.4,13,5.4c9.2,0,14.7-4.8,16.3-14.5l39.7,2.9c-2.3,11.6-8.3,21.4-18,29.6
				c-9.6,8.1-22.7,12.2-39.1,12.2c-18.3,0-32.8-5.7-43.7-17.2c-10.9-11.5-16.3-25.7-16.3-42.6c0-17.6,5.4-32.4,16.1-44.5
				C237.8,240.5,252.2,234.5,270.1,234.5 M255.4,281.8h30.2c-0.1-7.9-1.5-13.3-4.4-16c-2.9-2.7-6.4-4.1-10.7-4.1
				C260.4,261.7,255.4,268.4,255.4,281.8 M270.1,227.5c-19.9,0-36.1,6.9-48.2,20.5C210,261.4,204,277.9,204,297.2
				c0,18.7,6.1,34.7,18.2,47.4c12.2,12.8,28.6,19.4,48.8,19.4c18,0,32.7-4.7,43.6-13.9c10.8-9.1,17.7-20.4,20.3-33.5
				c0.4-2-0.1-4-1.3-5.6c-0.3-0.3-0.5-0.6-0.8-0.9c1.3-1.2,2.2-3,2.3-5c0.1-3,0.1-5.2,0.1-6.9c0-21.4-6-38.7-17.9-51.4
				C305.2,234,289.4,227.5,270.1,227.5L270.1,227.5z M263.1,274.8c1.5-6.1,5.1-6.1,7.4-6.1c2.4,0,4.3,0.7,5.8,2.2c0.1,0.1,1,1,1.6,4
				H263.1L263.1,274.8z M263.1,311.9h18.3c-1.3,6.5-4.5,7.9-9.3,7.9c-2.1,0-5.9-0.3-7.1-2.1C264.4,316.6,263.6,314.9,263.1,311.9
				L263.1,311.9z"/>
		</g>
		<g id="XMLID_393_">
			<path id="XMLID_91_" class="st6" d="M409.4,360.5c-14.2,0-25.7-5.1-34.1-15.1c-1.1,3-2.1,6.4-2.9,10c-0.4,1.6-1.8,2.7-3.4,2.7
				h-24c-1.9,0-3.5-1.6-3.5-3.5V196.7c0-1.9,1.6-3.5,3.5-3.5h41.9c1.9,0,3.5,1.6,3.5,3.5v43.6c6.2-6.2,14.3-9.3,24.3-9.3
				c9.7,0,18.2,2.8,25,8.4c6.8,5.5,11.8,13.4,15.1,23.4c3.2,9.8,4.8,20.1,4.8,30.9c0,19.6-4.1,35.7-12.3,47.8
				C438.8,354.1,426.1,360.5,409.4,360.5z M399.1,266.9c-2.1,0-4.1,0.9-5.9,2.8c-1.8,1.9-2.8,5-2.8,9v31.9c0,13.9,6.2,13.9,8.9,13.9
				c3.2,0,5.5-1.4,7.2-4.5c1.4-2.5,3.1-8.8,3.1-24.2c0-17.6-2.1-23.1-3.4-24.8C404.3,268.2,402,266.9,399.1,266.9z"/>
			<path id="XMLID_85_" d="M386.9,196.7v54.3c5.8-10.9,15.1-16.4,27.8-16.4c9,0,16.6,2.5,22.8,7.6c6.3,5.1,10.9,12.4,14,21.8
				c3.1,9.4,4.6,19.4,4.6,29.8c0,19-3.9,34.3-11.7,45.9c-7.8,11.6-19.5,17.4-35,17.4c-15.3,0-26.9-6.2-34.9-18.6
				c-2.3,4.6-4.1,10-5.5,16.2h-24V196.7H386.9 M399.3,328.1c4.5,0,7.9-2.1,10.3-6.3c2.4-4.2,3.6-12.9,3.6-26
				c0-14.3-1.4-23.2-4.1-26.9c-2.7-3.7-6-5.5-10-5.5c-3.1,0-5.9,1.3-8.4,3.9c-2.5,2.6-3.7,6.4-3.7,11.5v31.9
				C386.9,322.3,391.1,328.1,399.3,328.1 M386.9,189.7H345c-3.9,0-7,3.1-7,7v157.9c0,3.9,3.1,7,7,7h24c3.3,0,6.1-2.3,6.8-5.4
				c0.3-1.4,0.7-2.8,1-4.1c8.5,7.9,19.4,11.9,32.5,11.9c17.9,0,31.6-6.9,40.8-20.5c8.6-12.7,12.9-29.5,12.9-49.8
				c0-11.1-1.7-21.8-4.9-31.9c-3.5-10.7-8.9-19.1-16.2-25.1c-7.5-6.1-16.7-9.2-27.2-9.2c-7.9,0-15,1.9-20.8,5.6v-36.4
				C393.9,192.8,390.8,189.7,386.9,189.7L386.9,189.7z M399.3,321.1c-2,0-5.4,0-5.4-10.4v-31.9c0-3.1,0.6-5.4,1.8-6.6
				c1.5-1.6,2.6-1.8,3.3-1.8c1.2,0,2.7,0.3,4.4,2.7c0.3,0.4,2.7,4.2,2.7,22.7c0,16.1-1.9,21.1-2.7,22.5
				C402.2,320.6,400.9,321.1,399.3,321.1L399.3,321.1z"/>
		</g>
	</g>
	<g id="XMLID_104_">
		<g id="XMLID_385_">
			<path id="XMLID_45_" d="M583.1,494.3c-15.3,0-27.8-4.7-37.3-14.1c-9.5-9.3-14.2-22.3-14.2-38.6c0-16.1,4.5-29.3,13.4-39.3
				c9-10,21.6-15.1,37.6-15.1c14.9,0,26.5,3.9,34.6,11.5c8.1,7.6,12.7,17.9,13.8,30.4c0,0.5-0.1,1.1-0.5,1.5s-0.9,0.7-1.4,0.7
				c0,0-31.3,1.5-31.3,1.5c-0.5,0-1-0.2-1.4-0.6c-0.4-0.4-0.6-0.9-0.6-1.4c0-6.1-1.2-10.6-3.6-13.1c-2.4-2.6-5.2-3.8-8.4-3.8
				c-3.4,0-13.8,0-13.8,27.2c0,10.4,1.3,17.5,3.7,21c2.4,3.4,5.6,5,9.9,5c4.9,0,11.6-1.5,12.9-14.7c0.1-1,1-1.8,2-1.8
				c0,0,0.1,0,0.1,0l30.6,1.7c0.6,0,1.1,0.3,1.4,0.7c0.4,0.4,0.5,1,0.5,1.5c-1.5,12.8-6.7,22.7-15.6,29.5
				C606.7,490.8,595.8,494.3,583.1,494.3z"/>
			<path id="XMLID_36_" class="st7" d="M582.6,389.2c14.4,0,25.5,3.7,33.3,11c7.7,7.3,12.1,17,13.1,29.2l-31.2,1.5
				c0-6.7-1.4-11.5-4.2-14.5c-2.8-3-6.1-4.5-9.9-4.5c-10.5,0-15.8,9.7-15.8,29.2c0,10.9,1.4,18.3,4.1,22.2c2.7,3.9,6.6,5.9,11.5,5.9
				c8.8,0,13.8-5.5,14.8-16.6l30.6,1.7c-1.4,12.3-6.4,21.7-14.8,28.2c-8.4,6.5-18.8,9.8-31.1,9.8c-14.8,0-26.7-4.5-35.8-13.5
				c-9.1-9-13.7-21.4-13.7-37.2c0-15.7,4.3-28.3,12.9-37.9C555.2,394,567.2,389.2,582.6,389.2 M582.6,385.2
				c-16.5,0-29.7,5.3-39.1,15.8c-9.3,10.3-14,24-14,40.6c0,16.9,5,30.3,14.8,40.1c9.8,9.7,22.8,14.6,38.7,14.6
				c13.1,0,24.4-3.6,33.5-10.7c9.3-7.2,14.8-17.6,16.3-30.9c0.1-1.1-0.2-2.2-0.9-3c-0.7-0.8-1.7-1.4-2.8-1.4l-30.6-1.7
				c-0.1,0-0.1,0-0.2,0c-2,0-3.8,1.6-4,3.6c-1.1,11.5-6.4,12.9-10.9,12.9c-3.6,0-6.3-1.3-8.3-4.2c-1.5-2.2-3.4-7.4-3.4-19.9
				c0-25.2,8.9-25.2,11.8-25.2c2.7,0,4.9,1,6.9,3.2c2.1,2.2,3.1,6.2,3.1,11.8c0,1.1,0.4,2.1,1.2,2.9c0.7,0.7,1.7,1.1,2.8,1.1
				c0.1,0,0.1,0,0.2,0l31.2-1.5c1.1-0.1,2.1-0.5,2.8-1.4c0.7-0.8,1.1-1.9,1-3c-1.1-13.1-5.9-23.7-14.4-31.7
				C610.2,389.3,598.1,385.2,582.6,385.2L582.6,385.2z"/>
		</g>
		<g id="XMLID_378_">
			<path id="XMLID_34_" d="M640.1,492.7c-1.1,0-2-0.9-2-2v-100c0-1.1,0.9-2,2-2h31.4c1.1,0,2,0.9,2,2v100c0,1.1-0.9,2-2,2H640.1z"/>
			<path id="XMLID_31_" class="st7" d="M671.5,390.7v100h-31.4v-100H671.5 M671.5,386.7h-31.4c-2.2,0-4,1.8-4,4v100c0,2.2,1.8,4,4,4
				h31.4c2.2,0,4-1.8,4-4v-100C675.5,388.5,673.7,386.7,671.5,386.7L671.5,386.7z"/>
		</g>
		<g id="XMLID_364_">
			<path id="XMLID_131_" d="M712.5,494.3c-10.1,0-17.8-2.5-22.9-7.3c-5.2-4.9-7.8-10.6-7.8-16.9c0-8.6,4.3-15.6,12.6-20.8
				c4.8-3,11.5-5.2,20.3-6.8l-28.8-2.5c-0.6-0.1-1.1-0.4-1.5-0.8s-0.4-1.1-0.3-1.7c4.4-16.5,19.3-24.8,44.3-24.8
				c6.7,0,12.9,0.6,18.5,1.8c5.8,1.3,10.4,3.3,13.8,6c3.5,2.8,5.8,5.7,7,8.9c1.2,3.1,1.8,8.7,1.8,17.1v29.7c0,5.4,0.8,10,2.3,13.7
				c0.3,0.6,0.2,1.3-0.2,1.9s-1,0.9-1.7,0.9h-30.3c-0.9,0-1.7-0.6-1.9-1.5c-0.4-1.8-0.7-3.7-0.9-5.7
				C730.9,491.3,722.7,494.3,712.5,494.3z M735,458.1c-10.9,1.4-16.4,4.6-16.4,9.7c0,2.3,0.7,4.7,6.1,4.7c3,0,5.4-0.8,7.5-2.4
				c1.3-1,2.8-3.7,2.8-10.7V458.1z M727.5,434.4c-8.3,0-9.9,3.7-10.3,6.4c-0.1,0.6-0.5,1.1-1,1.4c5.5-0.9,11.8-1.6,18.9-2
				c0-1.7-0.3-3.8-1.5-4.6C732.2,434.8,730.2,434.4,727.5,434.4z"/>
			<path id="XMLID_123_" class="st7" d="M728.5,414.7c6.5,0,12.6,0.6,18,1.8c5.5,1.2,9.8,3.1,13,5.6c3.2,2.5,5.3,5.2,6.4,8.1
				c1.1,2.8,1.6,8.3,1.6,16.3v29.7c0,5.7,0.8,10.5,2.5,14.5h-30.3c-0.7-3.2-1.1-6.6-1.1-10.4c-5.7,8-14.4,11.9-26.1,11.9
				c-9.6,0-16.8-2.2-21.5-6.7c-4.8-4.5-7.1-9.6-7.1-15.5c0-7.9,3.9-14.2,11.7-19.1c7.8-4.9,21.6-7.8,41.5-8.8v-1.7
				c0-3.3-0.8-5.4-2.4-6.5c-1.6-1.1-4-1.6-7.1-1.6c-7.3,0-11.4,2.7-12.3,8.1l-29.1-2.5C690.3,422.5,704.4,414.7,728.5,414.7
				 M724.8,474.5c3.4,0,6.3-0.9,8.7-2.8c2.4-1.9,3.6-6,3.6-12.3v-3.6c-13.6,1.3-20.4,5.3-20.4,11.9
				C716.7,472.3,719.4,474.5,724.8,474.5 M728.5,410.7c-26,0-41.6,8.9-46.3,26.3c-0.3,1.1-0.1,2.4,0.6,3.3c0.7,1,1.8,1.6,2.9,1.7
				l16.7,1.4c-3.5,1.2-6.6,2.5-9.1,4.1c-9,5.6-13.6,13.2-13.6,22.5c0,6.9,2.8,13.1,8.4,18.4c5.5,5.2,13.7,7.8,24.3,7.8
				c9.2,0,16.9-2.3,22.9-6.9c0.1,0.8,0.3,1.5,0.5,2.3c0.4,1.8,2,3.1,3.9,3.1h30.3c1.3,0,2.6-0.7,3.3-1.8c0.7-1.1,0.9-2.5,0.4-3.7
				c-1.4-3.5-2.2-7.9-2.2-13v-29.7c0-8.7-0.6-14.4-1.9-17.8c-1.3-3.5-3.9-6.8-7.7-9.8c-3.7-2.9-8.6-5.1-14.6-6.4
				C741.7,411.3,735.3,410.7,728.5,410.7L728.5,410.7z M719.5,439.8c0.6-1.6,2.3-3.4,8-3.4c3,0,4.4,0.6,4.9,0.9
				c0.1,0.1,0.3,0.4,0.5,1.1C728,438.8,723.5,439.2,719.5,439.8L719.5,439.8z M724.8,470.5c-4.1,0-4.1-1.3-4.1-2.7
				c0-4.2,6-6.4,12.3-7.4c-0.1,6.2-1.6,7.8-2,8.2C729.3,469.9,727.3,470.5,724.8,470.5L724.8,470.5z"/>
		</g>
		<g id="XMLID_353_">
			<path id="XMLID_62_" d="M817.8,494.3c-22.8,0-37.2-8.1-42.7-24c-0.2-0.6-0.1-1.2,0.2-1.7s0.9-0.9,1.4-0.9l25.1-3.1
				c0.1,0,0.2,0,0.3,0c0.9,0,1.7,0.6,1.9,1.5c1.2,4.4,6.3,6.6,15.2,6.6c8.2,0,10.4-1.5,10.4-2.4c0-0.1,0-0.6-1.2-1.1
				c-1-0.4-3.6-1.1-10.8-2c-17.2-2.2-27.7-5.6-32.1-10.5c-4.4-4.8-6.7-10.3-6.7-16.3c0-8.3,3.8-15.1,11.3-20.1
				c7.2-4.9,16.8-7.4,28.3-7.4c20.5,0,33.8,7,39.5,20.8c0.2,0.6,0.2,1.2-0.1,1.7c-0.3,0.5-0.8,0.9-1.4,1l-23.4,4
				c4.3,0.7,7.6,1.4,10,2.1c5.1,1.5,9.5,4.3,13.1,8.4c3.7,4.1,5.5,9.2,5.5,15c0,8.8-4.1,15.9-12.1,21.1
				C841.8,491.7,831.1,494.3,817.8,494.3z M809.7,435.8c0.2,1.1,2.4,1.9,5.9,2.3c5.9,0.6,10.9,1.2,15.1,1.8
				c-0.2-0.2-0.3-0.4-0.4-0.6c-1.9-3.7-5.9-5.5-12.3-5.5c-3.8,0-5.8,0.6-6.7,1.1C810.2,435.3,809.9,435.7,809.7,435.8z"/>
			<path id="XMLID_57_" class="st7" d="M818.4,414.7c19.7,0,32.3,6.5,37.7,19.6l-24.1,4.2c-2.2-4.4-6.9-6.6-14.1-6.6
				c-3.4,0-5.9,0.4-7.6,1.3c-1.7,0.9-2.5,1.7-2.5,2.5c0,2.4,2.6,3.9,7.7,4.5c13.3,1.4,22.3,2.7,27.1,4.2c4.7,1.4,8.8,4,12.1,7.8
				c3.4,3.8,5,8.3,5,13.6c0,8.2-3.7,14.6-11.1,19.4c-7.4,4.8-17.7,7.2-30.7,7.2c-22,0-35.6-7.5-40.8-22.6l25.1-3.1
				c1.4,5.4,7.1,8.1,17.1,8.1c8.2,0,12.4-1.5,12.4-4.4c0-1.3-0.8-2.3-2.4-3c-1.6-0.7-5.4-1.4-11.3-2.2c-16.5-2.1-26.8-5.4-30.9-9.9
				c-4.1-4.5-6.1-9.4-6.1-14.9c0-7.6,3.5-13.8,10.4-18.5C798.1,417,807.2,414.7,818.4,414.7 M818.4,410.7c-12,0-21.9,2.6-29.5,7.8
				c-8,5.5-12.1,12.8-12.1,21.8c0,6.5,2.4,12.4,7.2,17.6c2,2.2,5,4.1,9.1,5.7l-16.6,2.1c-1.2,0.1-2.3,0.8-2.9,1.9
				c-0.6,1-0.8,2.3-0.4,3.4c5.8,16.8,20.8,25.3,44.6,25.3c13.8,0,24.8-2.6,32.9-7.8c8.6-5.5,13-13.2,13-22.8c0-6.3-2-11.8-6-16.3
				c-3.8-4.3-8.5-7.3-13.9-8.9l13.1-2.3c1.2-0.2,2.2-0.9,2.8-2c0.6-1.1,0.7-2.3,0.2-3.5C853.7,418.1,839.8,410.7,818.4,410.7
				L818.4,410.7z M814.8,436c0.8-0.1,1.8-0.2,3.1-0.2c3.5,0,5.8,0.6,7.4,1.3c-2.9-0.4-6-0.7-9.4-1C815.4,436.1,815.1,436,814.8,436
				L814.8,436z M819.2,470.5c-6.2,0-10.3-1.1-12.2-3.2c3.1,0.6,6.5,1.1,10.3,1.6c3.8,0.5,6.2,0.9,7.7,1.2
				C823.7,470.4,821.9,470.5,819.2,470.5L819.2,470.5z"/>
		</g>
		<g id="XMLID_109_">
			<path id="XMLID_76_" d="M904.4,494.3c-22.8,0-37.2-8.1-42.7-24c-0.2-0.6-0.1-1.2,0.2-1.7s0.9-0.9,1.4-0.9l25.1-3.1
				c0.1,0,0.2,0,0.3,0c0.9,0,1.7,0.6,1.9,1.5c1.2,4.4,6.3,6.6,15.2,6.6c8.2,0,10.4-1.5,10.4-2.4c0-0.1,0-0.6-1.2-1.1
				c-1-0.4-3.6-1.1-10.8-2c-17.2-2.2-27.7-5.6-32.1-10.5c-4.4-4.8-6.7-10.3-6.7-16.3c0-8.3,3.8-15.1,11.3-20.1
				c7.2-4.9,16.8-7.4,28.3-7.4c20.5,0,33.8,7,39.5,20.8c0.2,0.6,0.2,1.2-0.1,1.7c-0.3,0.5-0.8,0.9-1.4,1l-23.4,4
				c4.3,0.7,7.6,1.4,10,2.1c5.1,1.5,9.5,4.3,13.1,8.4c3.7,4.1,5.5,9.2,5.5,15c0,8.8-4.1,15.9-12.1,21.1
				C928.4,491.7,917.7,494.3,904.4,494.3z M896.3,435.8c0.2,1.1,2.4,1.9,5.9,2.3c5.9,0.6,10.9,1.2,15.1,1.8
				c-0.2-0.2-0.3-0.4-0.4-0.6c-1.9-3.7-5.9-5.5-12.3-5.5c-3.8,0-5.8,0.6-6.7,1.1C896.9,435.3,896.5,435.7,896.3,435.8z"/>
			<path id="XMLID_66_" class="st7" d="M905,414.7c19.7,0,32.3,6.5,37.7,19.6l-24.1,4.2c-2.2-4.4-6.9-6.6-14.1-6.6
				c-3.4,0-5.9,0.4-7.6,1.3c-1.7,0.9-2.5,1.7-2.5,2.5c0,2.4,2.6,3.9,7.7,4.5c13.3,1.4,22.3,2.7,27.1,4.2c4.7,1.4,8.8,4,12.1,7.8
				c3.4,3.8,5,8.3,5,13.6c0,8.2-3.7,14.6-11.1,19.4c-7.4,4.8-17.7,7.2-30.7,7.2c-22,0-35.6-7.5-40.8-22.6l25.1-3.1
				c1.4,5.4,7.1,8.1,17.1,8.1c8.2,0,12.4-1.5,12.4-4.4c0-1.3-0.8-2.3-2.4-3c-1.6-0.7-5.4-1.4-11.3-2.2c-16.5-2.1-26.8-5.4-30.9-9.9
				c-4.1-4.5-6.1-9.4-6.1-14.9c0-7.6,3.5-13.8,10.4-18.5C884.7,417,893.8,414.7,905,414.7 M905,410.7c-12,0-21.9,2.6-29.5,7.8
				c-8,5.5-12.1,12.8-12.1,21.8c0,6.5,2.4,12.4,7.2,17.6c2,2.2,5,4.1,9.1,5.7l-16.6,2.1c-1.2,0.1-2.3,0.8-2.9,1.9
				c-0.6,1-0.8,2.3-0.4,3.4c5.8,16.8,20.8,25.3,44.6,25.3c13.8,0,24.8-2.6,32.9-7.8c8.6-5.5,13-13.2,13-22.8c0-6.3-2-11.8-6-16.3
				c-3.8-4.3-8.5-7.3-13.9-8.9l13.1-2.3c1.2-0.2,2.2-0.9,2.8-2c0.6-1.1,0.7-2.3,0.2-3.5C940.3,418.1,926.4,410.7,905,410.7
				L905,410.7z M901.4,436c0.8-0.1,1.8-0.2,3.1-0.2c3.5,0,5.8,0.6,7.4,1.3c-2.9-0.4-6-0.7-9.4-1C902,436.1,901.7,436,901.4,436
				L901.4,436z M905.8,470.5c-6.2,0-10.3-1.1-12.2-3.2c3.1,0.6,6.5,1.1,10.3,1.6c3.8,0.5,6.2,0.9,7.7,1.2
				C910.4,470.4,908.5,470.5,905.8,470.5L905.8,470.5z"/>
		</g>
	</g>
	<g id="XMLID_49_">
		<g id="XMLID_50_">
			
				<radialGradient id="XMLID_30_" cx="503.9987" cy="354.1151" r="104.1445" gradientTransform="matrix(-0.4226 -0.9063 0.725 -0.3381 460.2479 930.6175)" gradientUnits="userSpaceOnUse">
				<stop  offset="0.1576" style="stop-color:#0E8C9F"/>
				<stop  offset="0.203" style="stop-color:#0B7180"/>
				<stop  offset="0.2641" style="stop-color:#08535E"/>
				<stop  offset="0.3319" style="stop-color:#063941"/>
				<stop  offset="0.4065" style="stop-color:#042429"/>
				<stop  offset="0.4911" style="stop-color:#021417"/>
				<stop  offset="0.5912" style="stop-color:#01080A"/>
				<stop  offset="0.7221" style="stop-color:#000202"/>
				<stop  offset="1" style="stop-color:#000000"/>
			</radialGradient>
			<path id="XMLID_100_" class="st8" d="M490.9,460.8c-24.2,0-46.3-8.4-62.1-23.6c-17.3-16.6-26.4-40.2-26.4-68.2
				c0-67,52.9-121.5,117.9-121.5c27.1,0,49.3,8,64.3,23.2c13.6,13.8,20.9,32.8,20.9,54.9c0,27.7-13.4,52.7-36.7,68.6
				c-11,7.4-24.9,12-36.4,12c-11.3,0-17.2-6.5-18.1-19.9c-0.4-5.4,0-11.1,0.7-18.1c-18.5,27.9-37,38-47.9,38
				c-7.5,0-15.1-7.6-15.1-24.6c0-23,8.5-45,24.1-62c11.6-12.5,32.4-22.7,46.3-22.7c7.3,0,12,1.3,15,2.6c3.1-2.8,7.9-6,12.5-6.9
				c0.3-0.1,0.6-0.1,0.8-0.1c1.4,0,2.2,0.8,2.5,1.2c0.7,0.9,0.7,2.2,0.2,3.8l-0.1,0.2l-0.1,0.2c-9.3,14.2-16.6,51.8-16.6,74.5
				c0,12.4,1,17.8,10.5,17.8c17.5,0,42-23.4,42-61.4c0-32-18.8-69.3-71.7-69.3c-58.2,0-95.8,41.9-95.8,106.9
				c0,48.4,29.3,79.7,74.5,79.7c35.3,0,52.1-8.1,69.1-22.1c3.8-3.3,5.5-3.7,6.5-3.7c1.5,0,2.7,1.1,2.7,2.7c0,1.9-0.8,3.6-4.9,7.8
				C555.3,445.2,524.6,460.8,490.9,460.8z M514.7,310.1c-13.9,0-24.7,8.6-31.9,25.4c-5.2,11.9-7.5,22.7-7.5,35.2
				c0,10.3,1.7,15.5,4.9,15.5c7.2,0,23.5-12.3,39.1-46c1.6-3.2,3.2-9,4.9-15.1c1.1-4,2.3-8.2,3.5-12
				C525.2,311.6,520.6,310.1,514.7,310.1z"/>
			<path id="XMLID_95_" class="st7" d="M520.4,249.4c56.8,0,83.2,35,83.2,76.1c0,28.2-14.3,52.3-35.8,67
				c-11.3,7.6-24.8,11.7-35.3,11.7c-11.3,0-15.4-7.1-16.1-18c-0.5-7.1,0.3-14.5,1.8-26.6c-20.5,34.5-41.2,44.7-50.9,44.7
				c-6.9,0-13.1-7.9-13.1-22.6c0-22.6,8.4-44.2,23.5-60.6c11.5-12.4,31.7-22.1,44.8-22.1c7.7,0,12.5,1.5,15.4,3
				c2.3-2.3,7.4-6.3,12.5-7.4c0.2,0,0.3,0,0.4,0c1.1,0,1.3,1,0.8,2.3c-9.5,14.5-16.9,52.3-16.9,75.6c0,11.2,0.5,19.8,12.5,19.8
				c18.9,0,44-24.6,44-63.4c0-38.6-25.1-71.3-73.7-71.3c-56.8,0-97.8,40.9-97.8,108.9c0,53,33.5,81.7,76.5,81.7
				c34.8,0,52.5-7.9,70.4-22.6c2.7-2.3,4.4-3.2,5.2-3.2c0.5,0,0.7,0.3,0.7,0.7c0,1-0.3,2.3-4.4,6.3c-13.6,13.7-43.8,29.4-77.3,29.4
				c-46.6,0-86.5-31.5-86.5-89.8C404.4,303.2,456.1,249.4,520.4,249.4 M480.2,388.2c9.5,0,26.4-15.7,40.9-47.2
				c2.8-5.8,5.6-19,9-28.7c-2.8-2.3-8.4-4.3-15.4-4.3c-15.1,0-26.4,9.4-33.8,26.6c-5.1,11.7-7.7,22.8-7.7,36
				C473.3,383.7,475.8,388.2,480.2,388.2 M520.4,245.4c-66.1,0-119.9,55.4-119.9,123.5c0,28.6,9.3,52.7,27,69.7
				c16.2,15.6,38.8,24.1,63.5,24.1c34.2,0,65.5-15.9,80.1-30.6c4.1-4.1,5.5-6.4,5.5-9.2c0-2.7-2-4.7-4.7-4.7c-2.1,0-4.4,1.2-7.8,4.2
				c-16.7,13.7-33.2,21.6-67.8,21.6c-44.1,0-72.5-30.5-72.5-77.7c0-63.7,36.8-104.9,93.8-104.9c51.5,0,69.7,36.3,69.7,67.3
				c0,16.7-5,32.3-14.1,43.8c-7.6,9.6-17.5,15.6-26,15.6c-7.1,0-8.5-2.7-8.5-15.8c0-22.5,7.1-59.5,16.2-73.4l0.3-0.4l0.2-0.5
				c0.9-2.7,0.2-4.5-0.5-5.6c-0.9-1.3-2.4-2-4.1-2c-0.4,0-0.7,0-1.1,0.1l-0.1,0l-0.1,0c-5.2,1-9.9,4.3-12.5,6.6
				c-3.2-1.2-7.9-2.3-14.6-2.3c-14.4,0-35.8,10.5-47.7,23.4c-15.9,17.3-24.6,39.8-24.6,63.4c0,18.4,8.6,26.6,17.1,26.6
				c10.5,0,27.7-8.8,45.2-32.7c-0.3,3.9-0.3,7.5-0.1,11c1,14.4,7.8,21.7,20.1,21.7c11.9,0,26.3-4.7,37.6-12.4
				c11.4-7.8,20.8-18.1,27.2-29.8c6.9-12.5,10.3-26.1,10.3-40.5c0-22.6-7.4-42.1-21.4-56.3C570.8,253.7,548,245.4,520.4,245.4
				L520.4,245.4z M480.2,384.2c-0.3,0-0.8,0-1.4-1.5c-0.7-1.6-1.5-5-1.5-12c0-12.2,2.3-22.8,7.3-34.4c6.9-16.1,17.1-24.2,30.1-24.2
				c4.3,0,8.1,0.9,10.6,2.1c-1.1,3.4-2.1,7-3,10.5c-1.7,6-3.3,11.7-4.7,14.7l0,0l0,0C503.2,370.3,487.1,384.2,480.2,384.2
				L480.2,384.2z"/>
		</g>
	</g>
</g>
</svg>
