<?xml version="1.0" encoding="utf-8"?>
<!-- Generator: Adobe Illustrator 19.0.0, SVG Export Plug-In . SVG Version: 6.00 Build 0)  -->
<svg version="1.1" id="Layer_1" xmlns="http://www.w3.org/2000/svg" xmlns:xlink="http://www.w3.org/1999/xlink" x="0px" y="0px"
	 viewBox="0 0 24 24" style="enable-background:new 0 0 24 24;" xml:space="preserve">
<style type="text/css">
	.st0{fill:#FFFFFF;}
</style>
<path id="XMLID_70_" class="st0" d="M12,21c-0.6,0-1-0.4-1-1s0.4-1,1-1c1.9,0,3.6-0.7,4.9-2s2.1-3.1,2.1-5c0-1.9-0.7-3.6-2-4.9
	C15.6,5.7,13.9,5,12,5c-1.9,0-3.6,0.7-4.9,2C5.7,8.4,5,10.1,5,12c0,0.6-0.4,1-1,1s-1-0.4-1-1c0-2.4,0.9-4.7,2.6-6.4S9.6,3,12,3
	c2.4,0,4.7,0.9,6.4,2.6S21,9.6,21,12c0,2.4-0.9,4.7-2.6,6.4C16.7,20.1,14.4,21,12,21z"/>
<path id="XMLID_121_" class="st0" d="M13,13H8c-0.6,0-1-0.4-1-1s0.4-1,1-1h3V7c0-0.6,0.4-1,1-1s1,0.4,1,1V13z"/>
</svg>
