<?xml version="1.0" encoding="utf-8"?>
<!-- Generator: Adobe Illustrator 19.0.0, SVG Export Plug-In . SVG Version: 6.00 Build 0)  -->
<svg version="1.1" id="Layer_1" xmlns="http://www.w3.org/2000/svg" xmlns:xlink="http://www.w3.org/1999/xlink" x="0px" y="0px"
	 viewBox="-467 269 24 24" style="enable-background:new -467 269 24 24;" xml:space="preserve">
<path d="M-458.7,285.9l-4.5-4.5c-0.4-0.4-0.4-1,0-1.4l4.6-4.6l1.4,1.4l-3.9,3.9l3.8,3.8L-458.7,285.9z"/>
<path d="M-451.4,285.9l-1.4-1.4l3.9-3.9l-3.8-3.8l1.4-1.4l4.5,4.5c0.2,0.2,0.3,0.4,0.3,0.7s-0.1,0.5-0.3,0.7L-451.4,285.9z"/>
<path d="M-456.5,289c-0.1,0-0.1,0-0.2,0c-0.5-0.1-0.9-0.6-0.8-1.2l2.8-14.1c0.1-0.5,0.6-0.9,1.2-0.8c0.5,0.1,0.9,0.6,0.8,1.2
	l-2.8,14.1C-455.7,288.7-456.1,289-456.5,289z"/>
</svg>
