<?xml version="1.0" encoding="utf-8"?>
<!-- Generator: Adobe Illustrator 19.0.0, SVG Export Plug-In . SVG Version: 6.00 Build 0)  -->
<svg version="1.1" id="Layer_1" xmlns="http://www.w3.org/2000/svg" xmlns:xlink="http://www.w3.org/1999/xlink" x="0px" y="0px"
	 viewBox="0 0 24 24" style="enable-background:new 0 0 24 24;" xml:space="preserve">
<style type="text/css">
	.st0{fill:#FFFFFF;}
</style>
<path id="XMLID_121_" class="st0" d="M8.3,16.9l-4.5-4.5c-0.4-0.4-0.4-1,0-1.4l4.6-4.6l1.4,1.4l-3.9,3.9l3.8,3.8L8.3,16.9z"/>
<path id="XMLID_70_" class="st0" d="M15.6,16.9l-1.4-1.4l3.9-3.9l-3.8-3.8l1.4-1.4l4.5,4.5c0.2,0.2,0.3,0.4,0.3,0.7
	s-0.1,0.5-0.3,0.7L15.6,16.9z"/>
<path id="XMLID_69_" class="st0" d="M10.5,20c-0.1,0-0.1,0-0.2,0c-0.5-0.1-0.9-0.6-0.8-1.2l2.8-14.1c0.1-0.5,0.6-0.9,1.2-0.8
	c0.5,0.1,0.9,0.6,0.8,1.2l-2.8,14.1C11.3,19.7,10.9,20,10.5,20z"/>
</svg>
