<?xml version="1.0" encoding="utf-8"?>
<!-- Generator: Adobe Illustrator 19.0.0, SVG Export Plug-In . SVG Version: 6.00 Build 0)  -->
<svg version="1.1" id="Layer_1" xmlns="http://www.w3.org/2000/svg" xmlns:xlink="http://www.w3.org/1999/xlink" x="0px" y="0px"
	 viewBox="0 0 24 24" style="enable-background:new 0 0 24 24;" xml:space="preserve">
<path id="XMLID_121_" d="M16,20H8c-0.6,0-1-0.4-1-1V9c0-0.6,0.4-1,1-1s1,0.4,1,1v9h6V9c0-0.6,0.4-1,1-1s1,0.4,1,1v10
	C17,19.6,16.6,20,16,20z"/>
<rect id="XMLID_70_" x="7" y="5" width="10" height="2"/>
<path id="XMLID_69_" d="M14,6h-4C9.4,6,9,5.6,9,5s0.4-1,1-1h4c0.6,0,1,0.4,1,1S14.6,6,14,6z"/>
</svg>
