<?xml version="1.0" encoding="utf-8"?>
<!-- Generator: Adobe Illustrator 19.0.0, SVG Export Plug-In . SVG Version: 6.00 Build 0)  -->
<svg version="1.1" id="Layer_1" xmlns="http://www.w3.org/2000/svg" xmlns:xlink="http://www.w3.org/1999/xlink" x="0px" y="0px"
	 viewBox="-467 269 24 24" style="enable-background:new -467 269 24 24;" xml:space="preserve">
<path d="M-448,289h-14v-15c0-0.6,0.4-1,1-1s1,0.4,1,1v13h10v-12h-7c-0.6,0-1-0.4-1-1s0.4-1,1-1h9V289z"/>
<path d="M-453,279h-5c-0.3,0-0.5-0.2-0.5-0.5s0.2-0.5,0.5-0.5h5c0.3,0,0.5,0.2,0.5,0.5S-452.7,279-453,279z"/>
<path d="M-454,281h-4c-0.3,0-0.5-0.2-0.5-0.5s0.2-0.5,0.5-0.5h4c0.3,0,0.5,0.2,0.5,0.5S-453.7,281-454,281z"/>
</svg>
