<?xml version="1.0" encoding="utf-8"?>
<!-- Generator: Adobe Illustrator 19.0.0, SVG Export Plug-In . SVG Version: 6.00 Build 0)  -->
<svg version="1.1" id="Layer_1" xmlns="http://www.w3.org/2000/svg" xmlns:xlink="http://www.w3.org/1999/xlink" x="0px" y="0px"
	 viewBox="0 0 24 24" style="enable-background:new 0 0 24 24;" xml:space="preserve">
<style type="text/css">
	.st0{fill:#FFFFFF;}
</style>
<path id="XMLID_125_" class="st0" d="M12,20.3c-0.3,0-0.7-0.2-0.9-0.5c-0.8-1.3-4.8-8-4.8-10.6c0-3,2.5-5.5,5.7-5.5s5.7,2.5,5.7,5.5
	c0,2.6-4,9.3-4.8,10.6C12.7,20.1,12.3,20.3,12,20.3z M12,5.7c-2,0-3.7,1.6-3.7,3.5c0,1.3,2,5.2,3.7,8.1c1.7-2.9,3.7-6.8,3.7-8.1
	C15.7,7.3,14,5.7,12,5.7z"/>
<g id="XMLID_124_">
	<circle id="XMLID_70_" class="st0" cx="12.1" cy="9" r="0.7"/>
	<path id="XMLID_121_" class="st0" d="M12.1,10.7c-0.9,0-1.7-0.8-1.7-1.7s0.8-1.7,1.7-1.7c0.9,0,1.7,0.8,1.7,1.7S13,10.7,12.1,10.7z
		 M12.1,8.7c-0.2,0-0.3,0.1-0.3,0.3s0.1,0.3,0.3,0.3s0.3-0.1,0.3-0.3S12.2,8.7,12.1,8.7z"/>
</g>
</svg>
