<?xml version="1.0" encoding="utf-8"?>
<!-- Generator: Adobe Illustrator 19.0.0, SVG Export Plug-In . SVG Version: 6.00 Build 0)  -->
<svg version="1.1" id="Layer_1" xmlns="http://www.w3.org/2000/svg" xmlns:xlink="http://www.w3.org/1999/xlink" x="0px" y="0px"
	 viewBox="-467 269 24 24" style="enable-background:new -467 269 24 24;" xml:space="preserve">
<path d="M-455,289.3c-0.3,0-0.7-0.2-0.9-0.5c-0.8-1.3-4.8-8-4.8-10.6c0-3,2.5-5.5,5.7-5.5s5.7,2.5,5.7,5.5c0,2.6-4,9.3-4.8,10.6
	C-454.3,289.1-454.7,289.3-455,289.3z M-455,274.7c-2,0-3.7,1.6-3.7,3.5c0,1.3,2,5.2,3.7,8.1c1.7-2.9,3.7-6.8,3.7-8.1
	C-451.3,276.3-453,274.7-455,274.7z"/>
<g>
	<circle id="XMLID_1_" cx="-454.9" cy="278" r="0.7"/>
	<path d="M-454.9,279.7c-0.9,0-1.7-0.8-1.7-1.7s0.8-1.7,1.7-1.7c0.9,0,1.7,0.8,1.7,1.7S-454,279.7-454.9,279.7z M-454.9,277.7
		c-0.2,0-0.3,0.1-0.3,0.3s0.1,0.3,0.3,0.3s0.3-0.1,0.3-0.3S-454.8,277.7-454.9,277.7z"/>
</g>
</svg>
