<?xml version="1.0" encoding="utf-8"?>
<!-- Generator: Adobe Illustrator 19.0.0, SVG Export Plug-In . SVG Version: 6.00 Build 0)  -->
<svg version="1.1" id="Layer_1" xmlns="http://www.w3.org/2000/svg" xmlns:xlink="http://www.w3.org/1999/xlink" x="0px" y="0px"
	 viewBox="0 0 24 24" style="enable-background:new 0 0 24 24;" xml:space="preserve">
<path id="XMLID_121_" d="M13,20h-1c-1.9,0-3.7-0.7-5.1-2.1c-1.4-1.4-2.1-3.2-2.1-5.1c0-1.9,0.7-3.7,2.1-5.1L7.6,7L9,8.5L8.3,9.2
	c-1,1-1.5,2.3-1.5,3.7s0.5,2.7,1.5,3.7c1,1,2.3,1.5,3.7,1.5h1V20z"/>
<path id="XMLID_70_" d="M18.2,13.8c-0.6,0-1-0.4-1-1c0-1.4-0.5-2.7-1.5-3.7c-0.4-0.4-0.4-1,0-1.4s1-0.4,1.4,0
	c1.4,1.4,2.1,3.2,2.1,5.1C19.2,13.4,18.7,13.8,18.2,13.8z"/>
<path id="XMLID_69_" d="M12,12c-0.6,0-1-0.4-1-1V5c0-0.6,0.4-1,1-1s1,0.4,1,1v6C13,11.6,12.6,12,12,12z"/>
</svg>
