<?xml version="1.0" encoding="utf-8"?>
<!-- Generator: Adobe Illustrator 19.0.0, SVG Export Plug-In . SVG Version: 6.00 Build 0)  -->
<svg version="1.1" id="Layer_1" xmlns="http://www.w3.org/2000/svg" xmlns:xlink="http://www.w3.org/1999/xlink" x="0px" y="0px"
	 viewBox="0 0 24 24" style="enable-background:new 0 0 24 24;" xml:space="preserve">
<style type="text/css">
	.st0{fill:#FFFFFF;}
</style>
<path id="XMLID_70_" class="st0" d="M9.2,13.7c-2.6,0-4.7-2.1-4.7-4.7s2.1-4.7,4.7-4.7s4.7,2.1,4.7,4.7S11.8,13.7,9.2,13.7z
	 M9.2,6.3C7.7,6.3,6.5,7.5,6.5,9s1.2,2.7,2.7,2.7s2.7-1.2,2.7-2.7S10.7,6.3,9.2,6.3z"/>
<path id="XMLID_121_" class="st0" d="M18.5,19.7c-0.3,0-0.5-0.1-0.7-0.3l-6.7-6.7c-0.4-0.4-0.4-1,0-1.4s1-0.4,1.4,0l6.7,6.7
	c0.4,0.4,0.4,1,0,1.4C19,19.6,18.8,19.7,18.5,19.7z"/>
</svg>
