<?xml version="1.0" encoding="utf-8"?>
<!-- Generator: Adobe Illustrator 19.0.0, SVG Export Plug-In . SVG Version: 6.00 Build 0)  -->
<svg version="1.1" id="Layer_1" xmlns="http://www.w3.org/2000/svg" xmlns:xlink="http://www.w3.org/1999/xlink" x="0px" y="0px"
	 viewBox="0 0 24 24" style="enable-background:new 0 0 24 24;" xml:space="preserve">
<style type="text/css">
	.st0{fill:#FFFFFF;}
</style>
<path id="XMLID_69_" class="st0" d="M18,18H6c-0.6,0-1-0.4-1-1V8c0-0.6,0.4-1,1-1h11.5c0.6,0,1,0.4,1,1c0,0.4-0.2,0.7-0.5,0.9
	c-0.5,0.4-3.4,3-5.4,4.8c-0.4,0.4-1,0.3-1.4-0.1L7,9.2V16h10v-4h2v5C19,17.6,18.6,18,18,18z M9.5,9l2.4,2.5c1.2-1.1,2.1-1.9,2.8-2.5
	H9.5z"/>
</svg>
