<?xml version="1.0" encoding="utf-8"?>
<!-- Generator: Adobe Illustrator 19.0.0, SVG Export Plug-In . SVG Version: 6.00 Build 0)  -->
<svg version="1.1" id="Layer_1" xmlns="http://www.w3.org/2000/svg" xmlns:xlink="http://www.w3.org/1999/xlink" x="0px" y="0px"
	 viewBox="0 0 24 24" style="enable-background:new 0 0 24 24;" xml:space="preserve">
<g id="XMLID_133_">
	<circle id="XMLID_129_" cx="13.7" cy="5.1" r="1.1"/>
	<path id="XMLID_130_" d="M13.7,6.8c-0.9,0-1.6-0.7-1.6-1.6s0.7-1.6,1.6-1.6c0.9,0,1.6,0.7,1.6,1.6S14.6,6.8,13.7,6.8z M13.7,4.5
		c-0.4,0-0.6,0.3-0.6,0.6s0.3,0.6,0.6,0.6s0.6-0.3,0.6-0.6S14.1,4.5,13.7,4.5z"/>
</g>
<g id="XMLID_128_">
	<circle id="XMLID_124_" cx="8" cy="10.9" r="1.1"/>
	<path id="XMLID_125_" d="M8,12.5c-0.9,0-1.6-0.7-1.6-1.6S7.1,9.2,8,9.2s1.6,0.7,1.6,1.6S8.9,12.5,8,12.5z M8,10.2
		c-0.4,0-0.6,0.3-0.6,0.6s0.3,0.6,0.6,0.6s0.6-0.3,0.6-0.6S8.4,10.2,8,10.2z"/>
</g>
<g id="XMLID_123_">
	<circle id="XMLID_28_" cx="16" cy="18.9" r="1.1"/>
	<path id="XMLID_70_" d="M16,20.5c-0.9,0-1.6-0.7-1.6-1.6c0-0.9,0.7-1.6,1.6-1.6s1.6,0.7,1.6,1.6C17.6,19.8,16.9,20.5,16,20.5z
		 M16,18.2c-0.4,0-0.6,0.3-0.6,0.6s0.3,0.6,0.6,0.6s0.6-0.3,0.6-0.6S16.4,18.2,16,18.2z"/>
</g>
<path id="XMLID_69_" d="M15.4,18.8c-0.1,0-0.3,0-0.4-0.1l-7.8-7.8l6.1-6.1c0.2-0.2,0.5-0.2,0.7,0s0.2,0.5,0,0.7l-5.4,5.4l7.1,7.1
	c0.2,0.2,0.2,0.5,0,0.7C15.7,18.7,15.6,18.8,15.4,18.8z"/>
</svg>
