<?xml version="1.0" encoding="utf-8"?>
<!-- Generator: Adobe Illustrator 19.0.0, SVG Export Plug-In . SVG Version: 6.00 Build 0)  -->
<svg version="1.1" id="Layer_1" xmlns="http://www.w3.org/2000/svg" xmlns:xlink="http://www.w3.org/1999/xlink" x="0px" y="0px"
	 viewBox="0 0 24 24" style="enable-background:new 0 0 24 24;" xml:space="preserve">
<path id="XMLID_69_" d="M19,19h-3c-0.6,0-1-0.4-1-1s0.4-1,1-1h2v-7H6v7h7c0.6,0,1,0.4,1,1s-0.4,1-1,1H5c-0.6,0-1-0.4-1-1V9
	c0-0.6,0.4-1,1-1h14c0.6,0,1,0.4,1,1v9C20,18.6,19.6,19,19,19z"/>
<path id="XMLID_70_" d="M16,9c-0.6,0-1-0.4-1-1V7H9v1c0,0.6-0.4,1-1,1S7,8.6,7,8V5h10v3C17,8.6,16.6,9,16,9z"/>
</svg>
