<?xml version="1.0" encoding="utf-8"?>
<!-- Generator: Adobe Illustrator 19.0.0, SVG Export Plug-In . SVG Version: 6.00 Build 0)  -->
<svg version="1.1" id="Layer_1" xmlns="http://www.w3.org/2000/svg" xmlns:xlink="http://www.w3.org/1999/xlink" x="0px" y="0px"
	 viewBox="-467 269 24 24" style="enable-background:new -467 269 24 24;" xml:space="preserve">
<path d="M-448,288h-3c-0.6,0-1-0.4-1-1s0.4-1,1-1h2v-7h-12v7h5c0.6,0,1,0.4,1,1s-0.4,1-1,1h-6c-0.6,0-1-0.4-1-1v-9c0-0.6,0.4-1,1-1
	h14c0.6,0,1,0.4,1,1v9C-447,287.6-447.4,288-448,288z"/>
<path d="M-451,278c-0.6,0-1-0.4-1-1v-1h-6v1c0,0.6-0.4,1-1,1s-1-0.4-1-1v-3h10v3C-450,277.6-450.4,278-451,278z"/>
</svg>
