<?xml version="1.0" encoding="utf-8"?>
<!-- Generator: Adobe Illustrator 19.0.0, SVG Export Plug-In . SVG Version: 6.00 Build 0)  -->
<svg version="1.1" id="Layer_1" xmlns="http://www.w3.org/2000/svg" xmlns:xlink="http://www.w3.org/1999/xlink" x="0px" y="0px"
	 viewBox="-164.9 885.5 1202.9 370" style="enable-background:new -164.9 885.5 1202.9 370;" xml:space="preserve">
<style type="text/css">
	.st0{fill:#3058A0;}
	.st1{fill:#005900;}
	.st2{display:none;}
	.st3{fill:#F9EADC;}
	.st4{fill:#D5BA45;}
	.st5{opacity:0.7;}
	.st6{opacity:0.8;}
	.st7{fill:#330C0C;}
	.st8{opacity:0.5;}
	.st9{fill:#4C4C4C;}
</style>
<circle id="XMLID_40_" class="st0" cx="1717" cy="996.7" r="72.3"/>
<circle id="XMLID_20_" class="st1" cx="1533" cy="996.7" r="72.3"/>
<g id="Layer_2" class="st2">
	
		<image style="display:inline;overflow:visible;opacity:0.31;enable-background:new    ;" width="350" height="350" id="XMLID_21_" xlink:href="901F43D7.png"  transform="matrix(0.8229 0 0 0.8229 -1407.5128 268.8172)">
	</image>
</g>
<rect x="-242" y="3325.6" class="st3" width="1092.2" height="624.1"/>
<g>
	<g id="XMLID_31_">
		<path id="XMLID_32_" class="st4" d="M-105.1,3724.3l-10-10l114.4-114.4l-39.8-39.8l9-9l89.5,89.6l-9,9l-39.8-39.8L-105.1,3724.3z"
			/>
	</g>
	<g id="XMLID_29_" class="st5">
		<path id="XMLID_30_" class="st4" d="M52.2,3714.3l-10,10l-114.4-114.4l-39.8,39.8l-9-9l89.5-89.6l9,9l-39.8,39.8L52.2,3714.3z"/>
	</g>
	<polygon id="XMLID_28_" class="st4" points="5,3687.3 -68.3,3687.3 -62.9,3681.9 -0.4,3681.9 	"/>
</g>
<g>
	<g id="XMLID_59_">
		<path id="XMLID_60_" class="st1" d="M-61.3,1164.4l-12.1-12.1L65,1013.8l-48.1-48.1l10.9-10.9l108.3,108.3l-10.9,10.9l-48.1-48.1
			L-61.3,1164.4z"/>
	</g>
	<g id="XMLID_57_" class="st6">
		<path id="XMLID_58_" class="st1" d="M128.9,1152.3l-12.1,12.1l-138.4-138.4l-48.1,48.1l-10.9-10.9L27.7,954.9l10.9,10.9
			l-48.1,48.1L128.9,1152.3z"/>
	</g>
	<polygon id="XMLID_56_" class="st1" points="72.1,1119.6 -16.8,1119.6 -10.2,1113.1 65.6,1113.1 	"/>
</g>
<text transform="matrix(1 0 0 1 96.9561 3637.6619)" style="fill:#636363; font-family:'NotoSans-Light'; font-size:72px;">ΑΛΕΞΑΝΤΕΡ ΤΣΑΠΟ</text>
<text transform="matrix(1 0 0 1 92.9563 3690.6814)" class="st4" style="font-family:'NotoSans-Light'; font-size:34.7758px;">ΔΟΜΗΣΗ - ΑΝΑΚΑΙΝΙΣΗ - ΔΙΑΚΟΣΜΗΣΗ</text>
<text transform="matrix(1 0 0 1 96.9561 3787.4919)" style="fill:#636363; font-family:'NotoSans-Light'; font-size:21px;">693-652-7160</text>
<text transform="matrix(1 0 0 1 546.4421 3787.4919)" style="fill:#636363; font-family:'NotoSans-Light'; font-size:21px;">tsapoalexanter.gr</text>
<rect x="917.5" y="3325.6" class="st7" width="1092.2" height="624.1"/>
<g>
	<g id="XMLID_36_">
		<path id="XMLID_37_" class="st4" d="M1054.4,3724.3l-10-10l114.4-114.4L1119,3560l9-9l89.6,89.6l-9,9l-39.8-39.8L1054.4,3724.3z"
			/>
	</g>
	<g id="XMLID_34_" class="st5">
		<path id="XMLID_35_" class="st4" d="M1211.7,3714.3l-10,10l-114.4-114.4l-39.8,39.8l-9-9l89.5-89.6l9,9l-39.8,39.8L1211.7,3714.3z
			"/>
	</g>
	<polygon id="XMLID_33_" class="st4" points="1164.5,3687.3 1091.2,3687.3 1096.6,3681.9 1159.1,3681.9 	"/>
</g>
<text transform="matrix(1 0 0 1 1256.4128 3637.6619)" style="fill:#FFFFFF; font-family:'NotoSans-Light'; font-size:72px;">ΑΛΕΞΑΝΤΕΡ ΤΣΑΠΟ</text>
<text transform="matrix(1 0 0 1 1252.4131 3690.6814)" class="st4" style="font-family:'NotoSans-Light'; font-size:34.7758px;">ΔΟΜΗΣΗ - ΑΝΑΚΑΙΝΙΣΗ - ΔΙΑΚΟΣΜΗΣΗ</text>
<text transform="matrix(1 0 0 1 1256.4128 3787.4919)" style="fill:#FFFFFF; font-family:'NotoSans-Light'; font-size:21px;">693-652-7160</text>
<text transform="matrix(1 0 0 1 1705.8989 3787.4919)" style="fill:#FFFFFF; font-family:'NotoSans-Light'; font-size:21px;">tsapoalexanter.gr</text>
<path class="st3" d="M848.2,3254.3H-240c-1.1,0-2-0.9-2-2v-620.1c0-1.1,0.9-2,2-2H848.2c1.1,0,2,0.9,2,2v620.1
	C850.2,3253.4,849.4,3254.3,848.2,3254.3z"/>
<g>
	<g id="XMLID_13_">
		<path id="XMLID_14_" class="st4" d="M227.6,2909.9l-10-10L332,2785.5l-39.8-39.8l9-9l89.5,89.6l-9,9l-39.8-39.8L227.6,2909.9z"/>
	</g>
	<g id="XMLID_11_" class="st5">
		<path id="XMLID_12_" class="st4" d="M384.8,2899.9l-10,10l-114.4-114.4l-39.8,39.8l-9-9l89.5-89.6l9,9l-39.8,39.8L384.8,2899.9z"
			/>
	</g>
	<polygon id="XMLID_10_" class="st4" points="337.6,2872.9 264.4,2872.9 269.8,2867.6 332.2,2867.6 	"/>
</g>
<text transform="matrix(1 0 0 1 6.4423 3010.5181)" style="fill:#636363; font-family:'NotoSans-Light'; font-size:72px;">ΑΛΕΞΑΝΤΕΡ ΤΣΑΠΟ</text>
<text transform="matrix(1 0 0 1 2.4423 3063.5376)" class="st4" style="font-family:'NotoSans-Light'; font-size:34.7758px;">ΔΟΜΗΣΗ - ΑΝΑΚΑΙΝΙΣΗ - ΔΙΑΚΟΣΜΗΣΗ</text>
<text transform="matrix(1 0 0 1 6.4423 3157.0488)" style="fill:#636363; font-family:'NotoSans-Light'; font-size:21px;">693-652-7160</text>
<text transform="matrix(1 0 0 1 462.4422 3157.0488)" style="fill:#636363; font-family:'NotoSans-Light'; font-size:21px;">tsapoalexanter.gr</text>
<path class="st7" d="M2010.8,3254.3H922.6c-1.1,0-2-0.9-2-2v-620.1c0-1.1,0.9-2,2-2h1088.2c1.1,0,2,0.9,2,2v620.1
	C2012.8,3253.4,2012,3254.3,2010.8,3254.3z"/>
<g>
	<g id="XMLID_18_">
		<path id="XMLID_19_" class="st4" d="M1390.2,2909.9l-10-10l114.4-114.4l-39.8-39.8l9-9l89.6,89.6l-9,9l-39.8-39.8L1390.2,2909.9z"
			/>
	</g>
	<g id="XMLID_16_" class="st5">
		<path id="XMLID_17_" class="st4" d="M1547.4,2899.9l-10,10L1423,2795.5l-39.8,39.8l-9-9l89.5-89.6l9,9l-39.8,39.8L1547.4,2899.9z"
			/>
	</g>
	<polygon id="XMLID_15_" class="st4" points="1500.2,2872.9 1427,2872.9 1432.4,2867.6 1494.8,2867.6 	"/>
</g>
<text transform="matrix(1 0 0 1 1169.0424 3010.5181)" style="fill:#FFFFFF; font-family:'NotoSans-Light'; font-size:72px;">ΑΛΕΞΑΝΤΕΡ ΤΣΑΠΟ</text>
<text transform="matrix(1 0 0 1 1165.0424 3063.5376)" class="st4" style="font-family:'NotoSans-Light'; font-size:34.7758px;">ΔΟΜΗΣΗ - ΑΝΑΚΑΙΝΙΣΗ - ΔΙΑΚΟΣΜΗΣΗ</text>
<text transform="matrix(1 0 0 1 1169.0424 3157.0488)" style="fill:#FFFFFF; font-family:'NotoSans-Light'; font-size:21px;">693-652-7160</text>
<text transform="matrix(1 0 0 1 1625.0421 3157.0488)" style="fill:#FFFFFF; font-family:'NotoSans-Light'; font-size:21px;">tsapoalexanter.gr</text>
<path class="st3" d="M-245.8,4745H842.4c1.1,0,2-0.9,2-2v-620.1c0-1.1-0.9-2-2-2H-245.8c-1.1,0-2,0.9-2,2V4743
	C-247.8,4744.1-246.9,4745-245.8,4745z"/>
<g class="st8">
	<g id="XMLID_8_">
		<path id="XMLID_9_" class="st4" d="M-338.4,4792.2l-41.5-41.5l474.8-474.8l-165-165l37.3-37.3l371.5,371.5l-37.3,37.3l-165-165
			L-338.4,4792.2z"/>
	</g>
	<g id="XMLID_5_" class="st5">
		<path id="XMLID_7_" class="st4" d="M314.2,4750.7l-41.5,41.5l-474.8-474.8l-165,165l-37.3-37.3l371.5-371.5l37.3,37.3l-165,165
			L314.2,4750.7z"/>
	</g>
	<polygon id="XMLID_1_" class="st4" points="118.3,4638.7 -185.6,4638.7 -163.3,4616.4 95.9,4616.4 	"/>
</g>
<rect x="-247.8" y="4745" class="st9" width="1129.1" height="91.5"/>
<rect x="-247.8" y="3999" class="st9" width="1092.2" height="121.8"/>
<rect x="-404.4" y="3999" class="st9" width="156.6" height="867.8"/>
<text transform="matrix(1 0 0 1 20.6343 4459.8799)" style="fill:#636363; font-family:'NotoSans-Light'; font-size:72px;">ΑΛΕΞΑΝΤΕΡ ΤΣΑΠΟ</text>
<text transform="matrix(1 0 0 1 199.1253 4716.3096)" style="fill:#636363; font-family:'NotoSans-Light'; font-size:34.7758px;">ΔΟΜΗΣΗ - ΑΝΑΚΑΙΝΙΣΗ - ΔΙΑΚΟΣΜΗΣΗ</text>
<text transform="matrix(1 0 0 1 -209.8503 4165.8384)" style="fill:#636363; font-family:'NotoSans-Light'; font-size:24px;">tsapoalexanter.gr</text>
<text transform="matrix(1 0 0 1 251.7921 4531.6523)" style="fill:#636363; font-family:'NotoSans-Light'; font-size:25px;">693 6527160</text>
<g>
	<path class="st0" d="M210.1,1128.8l8.2,24.2v3.3h-23.1v-3.3l8.3-24.1H210.1z M212.5,1151.4l-4.7-14.4c-0.1-0.2-0.2-0.5-0.3-1
		c-0.1-0.5-0.3-1-0.4-1.5c-0.1-0.5-0.2-0.8-0.2-1c0,0.2-0.1,0.5-0.2,1c-0.1,0.5-0.2,1-0.4,1.5c-0.1,0.5-0.2,0.9-0.3,1.1l-4.7,14.3
		H212.5z"/>
	<path class="st0" d="M246.9,1142.5c0,2.8-0.5,5.3-1.4,7.4c-0.9,2.1-2.4,3.7-4.3,4.9c-1.9,1.2-4.4,1.8-7.3,1.8s-5.4-0.6-7.3-1.8
		c-1.9-1.2-3.4-2.8-4.3-4.9c-0.9-2.1-1.4-4.6-1.4-7.4c0-2.8,0.5-5.3,1.4-7.4s2.4-3.7,4.3-4.9s4.4-1.7,7.4-1.7c3,0,5.4,0.6,7.3,1.7
		c1.9,1.2,3.3,2.8,4.3,4.9C246.5,1137.2,246.9,1139.7,246.9,1142.5z M227,1142.5c0,2.9,0.5,5.1,1.6,6.8c1.1,1.6,2.9,2.5,5.3,2.5
		c2.5,0,4.3-0.8,5.3-2.5c1.1-1.6,1.6-3.9,1.6-6.8c0-2.9-0.5-5.1-1.6-6.8c-1.1-1.6-2.8-2.5-5.3-2.5s-4.2,0.8-5.3,2.5
		C227.5,1137.4,227,1139.7,227,1142.5z"/>
	<path class="st0" d="M264.2,1156.2l-6.6-21.5h-0.2c0,0.5,0.1,1.3,0.1,2.3c0.1,1,0.1,2.1,0.2,3.3c0.1,1.2,0.1,2.2,0.1,3.1v12.7h-5.2
		v-27.4h7.9l6.5,20.9h0.1l6.9-20.9h7.9v27.4h-5.4v-12.9c0-0.9,0-1.9,0.1-3c0-1.1,0.1-2.2,0.1-3.2s0.1-1.8,0.1-2.3h-0.2l-7,21.4
		H264.2z"/>
	<path class="st0" d="M311.2,1156.2h-5.8v-11.8h-10.8v11.8h-5.8v-27.4h5.8v10.7h10.8v-10.7h5.8V1156.2z"/>
	<path class="st0" d="M316.1,1156.2v-4.6l8.8-9.8l-8.6-8.6v-4.4h18.6v4.8h-8.2c-0.7,0-1.4,0-2.1,0s-1.4-0.1-2.1-0.2l8.5,8.4
		l-8.9,9.8c1.8-0.2,3.5-0.2,5.3-0.2h8.7v4.8H316.1z"/>
	<path class="st0" d="M363.2,1156.2h-5.8v-11.8h-10.8v11.8h-5.8v-27.4h5.8v10.7h10.8v-10.7h5.8V1156.2z"/>
	<path class="st0" d="M377.7,1148.3v-4.7h10v4.7H377.7z"/>
	<path class="st0" d="M419.1,1156.2l-2-6.5h-10l-2,6.5h-6.2l9.7-27.5h7.1l9.7,27.5H419.1z M415.7,1144.9l-2-6.4
		c-0.1-0.4-0.3-1-0.5-1.6c-0.2-0.7-0.4-1.3-0.6-2c-0.2-0.7-0.4-1.3-0.5-1.8c-0.1,0.5-0.3,1.1-0.5,1.9s-0.4,1.5-0.6,2.1
		c-0.2,0.7-0.3,1.2-0.4,1.4l-2,6.4H415.7z"/>
	<path class="st0" d="M453,1156.2h-7.4l-11.9-20.7h-0.2c0.1,1.3,0.1,2.6,0.2,3.9s0.1,2.6,0.2,3.9v12.9h-5.2v-27.4h7.3l11.9,20.5h0.1
		c-0.1-1.3-0.1-2.5-0.2-3.8c-0.1-1.3-0.1-2.5-0.1-3.8v-12.9h5.2V1156.2z"/>
	<path class="st0" d="M476.7,1156.2l-2-6.5h-10l-2,6.5h-6.2l9.7-27.5h7.1l9.7,27.5H476.7z M473.3,1144.9l-2-6.4
		c-0.1-0.4-0.3-1-0.5-1.6c-0.2-0.7-0.4-1.3-0.6-2c-0.2-0.7-0.4-1.3-0.5-1.8c-0.1,0.5-0.3,1.1-0.5,1.9s-0.4,1.5-0.6,2.1
		c-0.2,0.7-0.3,1.2-0.4,1.4l-2,6.4H473.3z"/>
	<path class="st0" d="M508.3,1156.2h-6.6l-7.2-11.5l-2.5,1.8v9.8h-5.8v-27.4h5.8v12.5c0.4-0.5,0.8-1.1,1.1-1.6
		c0.4-0.5,0.8-1.1,1.1-1.6l7.4-9.3h6.4l-9.5,12.1L508.3,1156.2z"/>
	<path class="st0" d="M528.5,1156.2l-2-6.5h-10l-2,6.5h-6.2l9.7-27.5h7.1l9.7,27.5H528.5z M525.2,1144.9l-2-6.4
		c-0.1-0.4-0.3-1-0.5-1.6c-0.2-0.7-0.4-1.3-0.6-2c-0.2-0.7-0.4-1.3-0.5-1.8c-0.1,0.5-0.3,1.1-0.5,1.9s-0.4,1.5-0.6,2.1
		c-0.2,0.7-0.3,1.2-0.4,1.4l-2,6.4H525.2z"/>
	<path class="st0" d="M548.5,1156.2H536v-3.3l3.3-1.5v-17.7l-3.3-1.5v-3.3h12.5v3.3l-3.3,1.5v17.7l3.3,1.5V1156.2z"/>
	<path class="st0" d="M577.4,1156.2H570l-11.9-20.7H558c0.1,1.3,0.1,2.6,0.2,3.9s0.1,2.6,0.2,3.9v12.9h-5.2v-27.4h7.3l11.9,20.5h0.1
		c-0.1-1.3-0.1-2.5-0.2-3.8c-0.1-1.3-0.1-2.5-0.1-3.8v-12.9h5.2V1156.2z"/>
	<path class="st0" d="M594.5,1156.2h-12.5v-3.3l3.3-1.5v-17.7l-3.3-1.5v-3.3h12.5v3.3l-3.3,1.5v17.7l3.3,1.5V1156.2z"/>
	<path class="st0" d="M597.2,1156.2v-4.6l8.8-9.8l-8.6-8.6v-4.4H616v4.8h-8.2c-0.7,0-1.4,0-2.1,0s-1.4-0.1-2.1-0.2l8.5,8.4l-8.9,9.8
		c1.8-0.2,3.5-0.2,5.3-0.2h8.7v4.8H597.2z"/>
	<path class="st0" d="M644.3,1156.2h-5.8v-11.8h-10.8v11.8h-5.8v-27.4h5.8v10.7h10.8v-10.7h5.8V1156.2z"/>
	<path class="st0" d="M658.9,1148.3v-4.7h10v4.7H658.9z"/>
	<path class="st0" d="M695.9,1128.8l8.2,24.2v3.3h-23.1v-3.3l8.3-24.1H695.9z M698.2,1151.4l-4.7-14.4c-0.1-0.2-0.2-0.5-0.3-1
		c-0.1-0.5-0.3-1-0.4-1.5c-0.1-0.5-0.2-0.8-0.2-1c0,0.2-0.1,0.5-0.2,1c-0.1,0.5-0.2,1-0.4,1.5c-0.1,0.5-0.2,0.9-0.3,1.1l-4.7,14.3
		H698.2z"/>
	<path class="st0" d="M718.9,1156.2h-12.5v-3.3l3.3-1.5v-17.7l-3.3-1.5v-3.3h12.5v3.3l-3.3,1.5v17.7l3.3,1.5V1156.2z"/>
	<path class="st0" d="M740.3,1156.2l-2-6.5h-10l-2,6.5h-6.2l9.7-27.5h7.1l9.7,27.5H740.3z M736.9,1144.9l-2-6.4
		c-0.1-0.4-0.3-1-0.5-1.6c-0.2-0.7-0.4-1.3-0.6-2c-0.2-0.7-0.4-1.3-0.5-1.8c-0.1,0.5-0.3,1.1-0.5,1.9s-0.4,1.5-0.6,2.1
		c-0.2,0.7-0.3,1.2-0.4,1.4l-2,6.4H736.9z"/>
	<path class="st0" d="M772,1156.2h-6.6l-7.2-11.5l-2.5,1.8v9.8H750v-27.4h5.8v12.5c0.4-0.5,0.8-1.1,1.1-1.6c0.4-0.5,0.8-1.1,1.1-1.6
		l7.4-9.3h6.4l-9.5,12.1L772,1156.2z"/>
	<path class="st0" d="M799.5,1142.5c0,2.8-0.5,5.3-1.4,7.4c-0.9,2.1-2.4,3.7-4.3,4.9c-1.9,1.2-4.4,1.8-7.3,1.8s-5.4-0.6-7.3-1.8
		c-1.9-1.2-3.4-2.8-4.3-4.9c-0.9-2.1-1.4-4.6-1.4-7.4c0-2.8,0.5-5.3,1.4-7.4s2.4-3.7,4.3-4.9s4.4-1.7,7.4-1.7c3,0,5.4,0.6,7.3,1.7
		c1.9,1.2,3.3,2.8,4.3,4.9C799,1137.2,799.5,1139.7,799.5,1142.5z M779.5,1142.5c0,2.9,0.5,5.1,1.6,6.8c1.1,1.6,2.9,2.5,5.3,2.5
		c2.5,0,4.3-0.8,5.3-2.5c1.1-1.6,1.6-3.9,1.6-6.8c0-2.9-0.5-5.1-1.6-6.8c-1.1-1.6-2.8-2.5-5.3-2.5s-4.2,0.8-5.3,2.5
		C780.1,1137.4,779.5,1139.7,779.5,1142.5z"/>
	<path class="st0" d="M802.8,1156.2v-4.6l8.8-9.8l-8.6-8.6v-4.4h18.6v4.8h-8.2c-0.7,0-1.4,0-2.1,0s-1.4-0.1-2.1-0.2l8.5,8.4
		l-8.9,9.8c1.8-0.2,3.5-0.2,5.3-0.2h8.7v4.8H802.8z"/>
	<path class="st0" d="M839.1,1156.2l-6.6-21.5h-0.2c0,0.5,0.1,1.3,0.1,2.3c0.1,1,0.1,2.1,0.2,3.3c0.1,1.2,0.1,2.2,0.1,3.1v12.7h-5.2
		v-27.4h7.9l6.5,20.9h0.1l6.9-20.9h7.9v27.4h-5.4v-12.9c0-0.9,0-1.9,0.1-3c0-1.1,0.1-2.2,0.1-3.2s0.1-1.8,0.1-2.3h-0.2l-7,21.4
		H839.1z"/>
	<path class="st0" d="M886,1156.2h-5.8v-11.8h-10.8v11.8h-5.8v-27.4h5.8v10.7h10.8v-10.7h5.8V1156.2z"/>
	<path class="st0" d="M891,1156.2v-4.6l8.8-9.8l-8.6-8.6v-4.4h18.6v4.8h-8.2c-0.7,0-1.4,0-2.1,0s-1.4-0.1-2.1-0.2l8.5,8.4l-8.9,9.8
		c1.8-0.2,3.5-0.2,5.3-0.2h8.7v4.8H891z"/>
	<path class="st0" d="M938.1,1156.2h-5.8v-11.8h-10.8v11.8h-5.8v-27.4h5.8v10.7h10.8v-10.7h5.8V1156.2z"/>
</g>
<text transform="matrix(1 0 0 1 199.1257 2392.2378)"><tspan x="0" y="0" class="st0" style="font-family:'NotoSans-Bold'; font-size:38.3115px;">ΔΟΜΗΣΗ </tspan><tspan x="183.1" y="0" class="st0" style="font-family:'NotoSans-Bold'; font-size:38.3115px;">-</tspan><tspan x="195.5" y="0" class="st0" style="font-family:'NotoSans-Bold'; font-size:38.3115px;"> ΑΝΑΚΑΙΝΙΣΗ </tspan><tspan x="464.3" y="0" class="st0" style="font-family:'NotoSans-Bold'; font-size:38.3115px;">-</tspan><tspan x="476.6" y="0" class="st0" style="font-family:'NotoSans-Bold'; font-size:38.3115px;"> ΔΙΑΚΟΣΜΗΣΗ</tspan></text>
<path class="st0" d="M531.3,992.1c12.5-0.4,20,6.8,25.7,16.5c8.9,15.5,11.3,31.8,3.9,48.5c-6.9,15.6-21.8,21.5-38.5,17.8
	c-14.5-3.2-22.2-13.1-27.1-25.1c-2.4-5.8-2.4-13.4,1.5-20.2c3.6-6.5,5-14.2,8.6-20.8C510.3,999.7,520.1,990.8,531.3,992.1z
	 M512.3,1030.8c-0.9,7.6,2.5,13.9,6.9,19.2c3.3,3.9,7.6,8.2,12.2,9.4c8.5,2.2,18.4-7.7,19.2-18.2c1.1-14.1-3.4-26.7-12.4-37.4
	c-2.5-3-6.4-5-11.1-2.2C515.8,1008.2,513.4,1019.2,512.3,1030.8z"/>
<path class="st0" d="M425.6,1075.2c-0.7-0.1-1.3-0.6-1.5-1.3c-1.1-2.6-1.6-5.2-1.7-7.8c-0.2-6.6,0.5-13.3,0-19.8
	c-0.6-8.5-1.6-17.1-3.3-25.4c-3-15-2.6-16.9,12-21c12.2-3.4,24.8-5.4,37.2-8.1c4-0.9,7.8-2.6,11.8-3c5.9-0.5,9.8,4.9,7.8,10.6
	c-2.1,6.4-4.6,12.7-7,19c-6.4,16.8-12.6,33.5-13.5,51.7c-0.1,1.3-1.1,2.5-2.1,3.8c-0.7,0.8-2,0.9-2.7,0.1c-1.1-1.2-2.2-2.4-2.3-3.7
	c-0.3-12,0.1-24.1-0.2-36.1c-0.1-5.5-1-11-2.1-16.5c-0.3-1.7-2.3-3.6-4-4.4c-8.3-4.3-19.1,0.6-20.5,9.7c-1.2,7.3-1.4,14.7-2.1,22
	c-0.8,8.5-1.4,17.1-2.4,25.6c-0.2,1.3-1.2,2.5-2,3.8C427,1075,426.3,1075.3,425.6,1075.2L425.6,1075.2z"/>
<path class="st0" d="M410.2,1066.4c0.7,2.8,0.5,5.8-0.8,8.4c-0.4,0.7-0.8,1.3-1.3,1.4c-2.1,0.4-5-0.8-6.8-2.3
	c-2.4-1.9-4.3-4.6-5.9-7.3c-6.7-11.1-20.5-13.4-30.3-4.8c-4.6,4.1-8.6,8.9-13.3,12.9c-2,1.7-5.5,3.6-7.3,2.9c-3.6-1.4-3.6-5.2-2-8.7
	c4.3-9.4,8.5-18.8,12.7-28.2c5.7-12.6,11.4-25.3,17.3-37.9c1.1-2.3,2.3-4.9,4.3-6.4c2.6-2,6.5-4.6,9-3.9c2.6,0.7,5,4.7,6,7.8
	c3.6,11.4,6.7,23.1,9.9,34.6C404.6,1045.4,407.3,1055.8,410.2,1066.4z M377.3,1050.3c10.5-0.1,13.5-2.8,12.3-13.4
	c-0.7-6-2.5-12-4.7-17.6c-2.3-6-6.3-6.5-9.8-1c-3.4,5.3-5.7,11.3-8,17.2C363.1,1045.4,366.6,1050.4,377.3,1050.3z"/>
<path class="st0" d="M737.2,1066.4c0.7,2.8,0.5,5.8-0.8,8.4c-0.4,0.7-0.8,1.3-1.3,1.4c-2.1,0.4-5-0.8-6.8-2.3
	c-2.4-1.9-4.3-4.6-5.9-7.3c-6.7-11.1-20.5-13.4-30.3-4.8c-4.6,4.1-8.6,8.9-13.3,12.9c-2,1.7-5.5,3.6-7.3,2.9c-3.6-1.4-3.6-5.2-2-8.7
	c4.3-9.4,8.5-18.8,12.7-28.2c5.7-12.6,11.4-25.3,17.3-37.9c1.1-2.3,2.3-4.9,4.3-6.4c2.6-2,6.5-4.6,9-3.9c2.6,0.7,5,4.7,6,7.8
	c3.6,11.4,6.7,23.1,9.9,34.6C731.6,1045.4,734.3,1055.8,737.2,1066.4z M704.3,1050.3c10.5-0.1,13.5-2.8,12.3-13.4
	c-0.7-6-2.5-12-4.7-17.6c-2.3-6-6.3-6.5-9.8-1c-3.4,5.3-5.7,11.3-8,17.2C690.1,1045.4,693.6,1050.4,704.3,1050.3z"/>
<path class="st0" d="M816.4,1067.6c0.7,2.8,0.5,5.8-0.8,8.4c-0.4,0.7-0.8,1.3-1.3,1.4c-2.1,0.4-5-0.8-6.8-2.3
	c-2.4-1.9-4.8-5.3-5.8-8.5c-3.3-10.6-3.4-12.9-6-22.5c-1.4-5.3-4.6-26.8-7.4-26.5c-9,1.1-21.7,41.8-22.3,43.6
	c-2,5.8-3.3,10.8-8,14.8c-2,1.7-5.5,3.6-7.3,2.9c-3.6-1.4-3.6-5.2-2-8.7c4.3-9.4,8.5-18.8,12.7-28.2c5.7-12.6,11.4-25.3,17.3-37.9
	c1.1-2.3,2.3-4.9,4.3-6.4c2.6-2,6.5-4.6,9-3.9c2.6,0.7,5,4.7,6,7.8c3.6,11.4,6.7,23.1,9.9,34.6
	C810.8,1046.6,813.5,1057,816.4,1067.6z"/>
<path class="st0" d="M315.9,1066.7c5,0,10-0.1,15,0.1c0.2,0,0.5,0.1,0.7,0.2c1.6,0.8,1.6,3.1,0.1,4c-0.3,0.2-0.6,0.3-0.9,0.5
	c-0.9,0.4-2,0.1-3,0.2c-15.1,1.4-30.1,2.9-45.2,4.3c-1.8,0.2-3.7,0.3-5.4-0.1c-6-1.2-7.6-4.1-4.2-9.1c3.8-5.5,8.2-10.7,12.9-15.5
	c4.5-4.7,9.6-8.9,14.7-13c3.2-2.6,3-4.6,0.1-7.2c-5.8-5.1-11.8-10-17-15.6c-2.2-2.4-3.9-7-3.1-9.9c0.7-2.5,5-5.3,8-5.6
	c13.7-1.5,27.4-2.4,41.2-3.2c5.5-0.3,11,8.8,8.2,13.6c-0.6,1.1-2.9,2.1-4.3,1.8c-7.2-1.3-14.3-3.4-21.5-4.5c-3.1-0.5-6.7,0-9.7,1.2
	c-4.4,1.7-4.5,4.5-1,7.9c4.1,3.9,8.4,7.8,12.4,11.8c5.2,5.1,5.6,8.4,0.5,13.8c-4.3,4.6-9.3,8.6-14,12.9c-0.9,0.8-2,1.4-2.6,2.4
	c-1.2,1.7-3.2,4-2.7,5.3c0.5,1.5,3.3,3,5.2,3.1"/>
<path class="st0" d="M610,1066.7c5,0,10-0.1,15,0.1c0.2,0,0.5,0.1,0.7,0.2c1.6,0.8,1.6,3.1,0.1,4c-0.3,0.2-0.6,0.3-0.9,0.5
	c-0.9,0.4-2,0.1-3,0.2c-15.1,1.4-30.1,2.9-45.2,4.3c-1.8,0.2-3.7,0.3-5.4-0.1c-6-1.2-7.6-4.1-4.2-9.1c3.8-5.5,8.2-10.7,12.9-15.5
	c4.5-4.7,9.6-8.9,14.7-13c3.2-2.6,3-4.6,0.1-7.2c-5.8-5.1-11.8-10-17-15.6c-2.2-2.4-3.9-7-3.1-9.9c0.7-2.5,5-5.3,8-5.6
	c13.7-1.5,27.4-2.4,41.2-3.2c5.5-0.3,11,8.8,8.2,13.6c-0.6,1.1-2.9,2.1-4.3,1.8c-7.2-1.3-14.3-3.4-21.5-4.5c-3.1-0.5-6.7,0-9.7,1.2
	c-4.4,1.7-4.5,4.5-1,7.9c4.1,3.9,8.4,7.8,12.4,11.8c5.2,5.1,5.6,8.4,0.5,13.8c-4.3,4.6-9.3,8.6-14,12.9c-0.9,0.8-2,1.4-2.6,2.4
	c-1.2,1.7-3.2,4-2.7,5.3c0.5,1.5,3.3,3,5.2,3.1"/>
<path class="st0" d="M225.8,1076c-0.7-0.4-3-10.6-3.1-15.9c-0.2-13.8,0.3-27.5,0.8-41.3c0.2-4-1.8-5-5-5c-5.6,0.1-11.2,0.8-16.8,0.6
	c-2.5-0.1-6.7-1.5-6.9-3c-0.9-4.3-1.3-9.4,3.9-12c2.1-1.1,4.6-1.7,6.9-1.8c17-1.1,33.9-2,50.9-2.9c1.4-0.1,2.8,0,4.2,0
	c3.8,0,8.9-0.3,9.1,4.4c0.2,5-5,5-9,5.6c-4.5,0.6-9.1,1.2-13.5,2.3c-5.5,1.4-7,6.2-7.9,11c-3.4,18.2-6.5,36.4-9.8,54.6
	c-0.2,1.2-1.2,3.3-1.6,3.5S226.4,1076.4,225.8,1076z"/>
<path class="st0" d="M825.8,1068.7c1.4-1.3,5.3-2.4,6.7-2.4c1.3,0,4.8,2.3,5.2,4.7c0.4,2.4-2.9,6.3-5.9,6.3c-3,0-5.2-0.9-5.9-2.4
	S824.4,1070,825.8,1068.7z"/>
</svg>
