<?xml version="1.0" encoding="utf-8"?>
<!-- Generator: Adobe Illustrator 19.0.0, SVG Export Plug-In . SVG Version: 6.00 Build 0)  -->
<svg version="1.1" id="Layer_1" xmlns="http://www.w3.org/2000/svg" xmlns:xlink="http://www.w3.org/1999/xlink" x="0px" y="0px"
	 viewBox="0 0 246 402.7" style="enable-background:new 0 0 246 402.7;" xml:space="preserve">
<style type="text/css">
	.st0{fill:#B3B3B3;}
	.st1{fill:#FFFFFF;}
	.st2{stroke:#B3B3B3;stroke-width:0.75;stroke-miterlimit:10;}
	.st3{fill:#4D4D4D;stroke:#B3B3B3;stroke-width:0.15;stroke-miterlimit:10;}
	.st4{fill:url(#XMLID_89_);}
	.st5{fill:url(#XMLID_90_);}
	.st6{fill:url(#XMLID_91_);}
	.st7{fill:url(#XMLID_92_);}
	.st8{fill:url(#XMLID_93_);}
	.st9{fill:url(#XMLID_94_);}
</style>
<g id="XMLID_4_">
	<path id="XMLID_22_" d="M59,389.5c-14,0-25.4-11.4-25.4-25.4V41.4C33.6,27.4,45,16,59,16h128.4c14,0,25.4,11.4,25.4,25.4V364
		c0,14-11.4,25.4-25.4,25.4H59z"/>
	<path id="XMLID_19_" class="st0" d="M187.4,16.8c13.6,0,24.7,11,24.7,24.7V364c0,13.6-11,24.7-24.7,24.7H59
		c-13.6,0-24.7-11-24.7-24.7V41.4c0-13.6,11-24.7,24.7-24.7H187.4 M187.4,15.3H59c-14.4,0-26.2,11.7-26.2,26.2V364
		c0,14.4,11.7,26.2,26.2,26.2h128.4c14.4,0,26.2-11.7,26.2-26.2V41.4C213.6,27,201.9,15.3,187.4,15.3L187.4,15.3z"/>
</g>
<path id="XMLID_5_" class="st1" d="M205.2,351.2H41c-2.1,0-3.9-1.7-3.9-3.9V49.9c0-2.1,1.7-3.9,3.9-3.9h164.3c2.1,0,3.9,1.7,3.9,3.9
	v297.4C209.1,349.4,207.3,351.2,205.2,351.2z"/>
<path id="XMLID_2_" class="st2" d="M135.9,376.9h-25.3c-3.8,0-6.9-3.1-6.9-6.9v0c0-3.8,3.1-6.9,6.9-6.9h25.3c3.8,0,6.9,3.1,6.9,6.9
	v0C142.7,373.8,139.6,376.9,135.9,376.9z"/>
<path id="XMLID_6_" class="st3" d="M129.7,35.5h-18.9c-0.9,0-1.6-0.7-1.6-1.6l0,0c0-0.9,0.7-1.6,1.6-1.6h18.9c0.9,0,1.6,0.7,1.6,1.6
	l0,0C131.3,34.7,130.5,35.5,129.7,35.5z"/>
<circle id="XMLID_3_" class="st3" cx="135.3" cy="33.9" r="1.6"/>
<g id="XMLID_7_">
	<linearGradient id="XMLID_89_" gradientUnits="userSpaceOnUse" x1="214.341" y1="110.1667" x2="213.591" y2="110.1667">
		<stop  offset="0" style="stop-color:#000000"/>
		<stop  offset="0.4926" style="stop-color:#FFFFFF"/>
		<stop  offset="1" style="stop-color:#000000"/>
	</linearGradient>
	<polygon id="XMLID_18_" class="st4" points="214.3,123.8 213.6,124.8 213.6,95.5 214.3,96.5 	"/>
	<linearGradient id="XMLID_90_" gradientUnits="userSpaceOnUse" x1="213.966" y1="124.8333" x2="213.966" y2="95.5">
		<stop  offset="0" style="stop-color:#808080"/>
		<stop  offset="6.857881e-002" style="stop-color:#A3A3A3"/>
		<stop  offset="0.1486" style="stop-color:#C4C4C4"/>
		<stop  offset="0.2309" style="stop-color:#DEDEDE"/>
		<stop  offset="0.3153" style="stop-color:#F0F0F0"/>
		<stop  offset="0.4032" style="stop-color:#FBFBFB"/>
		<stop  offset="0.5" style="stop-color:#FFFFFF"/>
		<stop  offset="0.624" style="stop-color:#FCFCFC"/>
		<stop  offset="0.7103" style="stop-color:#F3F3F3"/>
		<stop  offset="0.7851" style="stop-color:#E4E4E4"/>
		<stop  offset="0.8533" style="stop-color:#CECECE"/>
		<stop  offset="0.9171" style="stop-color:#B2B2B2"/>
		<stop  offset="0.9768" style="stop-color:#8F8F8F"/>
		<stop  offset="1" style="stop-color:#808080"/>
	</linearGradient>
	<polygon id="XMLID_17_" class="st5" points="213.6,95.5 213.6,124.8 214.3,123.8 214.3,96.5 213.6,95.5 	"/>
</g>
<g id="XMLID_9_">
	
		<linearGradient id="XMLID_91_" gradientUnits="userSpaceOnUse" x1="173.9583" y1="93.0104" x2="173.2083" y2="93.0104" gradientTransform="matrix(-1 0 0 -1 206.0833 198.3333)">
		<stop  offset="0" style="stop-color:#000000"/>
		<stop  offset="0.4926" style="stop-color:#FFFFFF"/>
		<stop  offset="1" style="stop-color:#000000"/>
	</linearGradient>
	<polygon id="XMLID_26_" class="st6" points="32.1,96.6 32.9,96 32.9,114.7 32.1,114 	"/>
	<linearGradient id="XMLID_92_" gradientUnits="userSpaceOnUse" x1="32.5" y1="95.9583" x2="32.5" y2="114.6875">
		<stop  offset="0" style="stop-color:#808080"/>
		<stop  offset="6.857881e-002" style="stop-color:#A3A3A3"/>
		<stop  offset="0.1486" style="stop-color:#C4C4C4"/>
		<stop  offset="0.2309" style="stop-color:#DEDEDE"/>
		<stop  offset="0.3153" style="stop-color:#F0F0F0"/>
		<stop  offset="0.4032" style="stop-color:#FBFBFB"/>
		<stop  offset="0.5" style="stop-color:#FFFFFF"/>
		<stop  offset="0.624" style="stop-color:#FCFCFC"/>
		<stop  offset="0.7103" style="stop-color:#F3F3F3"/>
		<stop  offset="0.7851" style="stop-color:#E4E4E4"/>
		<stop  offset="0.8533" style="stop-color:#CECECE"/>
		<stop  offset="0.9171" style="stop-color:#B2B2B2"/>
		<stop  offset="0.9768" style="stop-color:#8F8F8F"/>
		<stop  offset="1" style="stop-color:#808080"/>
	</linearGradient>
	<polygon id="XMLID_25_" class="st7" points="32.9,96 32.1,96.6 32.1,114 32.9,114.7 32.9,96 	"/>
</g>
<g id="XMLID_10_">
	
		<linearGradient id="XMLID_93_" gradientUnits="userSpaceOnUse" x1="173.9583" y1="66.8438" x2="173.2083" y2="66.8438" gradientTransform="matrix(-1 0 0 -1 206.0833 198.3333)">
		<stop  offset="0" style="stop-color:#000000"/>
		<stop  offset="0.4926" style="stop-color:#FFFFFF"/>
		<stop  offset="1" style="stop-color:#000000"/>
	</linearGradient>
	<polygon id="XMLID_13_" class="st8" points="32.1,122.8 32.9,122.1 32.9,140.9 32.1,140.2 	"/>
	<linearGradient id="XMLID_94_" gradientUnits="userSpaceOnUse" x1="32.5" y1="122.125" x2="32.5" y2="140.8542">
		<stop  offset="0" style="stop-color:#808080"/>
		<stop  offset="6.857881e-002" style="stop-color:#A3A3A3"/>
		<stop  offset="0.1486" style="stop-color:#C4C4C4"/>
		<stop  offset="0.2309" style="stop-color:#DEDEDE"/>
		<stop  offset="0.3153" style="stop-color:#F0F0F0"/>
		<stop  offset="0.4032" style="stop-color:#FBFBFB"/>
		<stop  offset="0.5" style="stop-color:#FFFFFF"/>
		<stop  offset="0.624" style="stop-color:#FCFCFC"/>
		<stop  offset="0.7103" style="stop-color:#F3F3F3"/>
		<stop  offset="0.7851" style="stop-color:#E4E4E4"/>
		<stop  offset="0.8533" style="stop-color:#CECECE"/>
		<stop  offset="0.9171" style="stop-color:#B2B2B2"/>
		<stop  offset="0.9768" style="stop-color:#8F8F8F"/>
		<stop  offset="1" style="stop-color:#808080"/>
	</linearGradient>
	<polygon id="XMLID_12_" class="st9" points="32.9,122.1 32.1,122.8 32.1,140.2 32.9,140.9 32.9,122.1 	"/>
</g>
</svg>
