<?xml version="1.0" encoding="utf-8"?>
<!-- Generator: Adobe Illustrator 19.0.0, SVG Export Plug-In . SVG Version: 6.00 Build 0)  -->
<svg version="1.1" id="Layer_1" xmlns="http://www.w3.org/2000/svg" xmlns:xlink="http://www.w3.org/1999/xlink" x="0px" y="0px"
	 viewBox="-467 269 24 24" style="enable-background:new -467 269 24 24;" xml:space="preserve">
<path d="M-455,290c-0.6,0-1-0.4-1-1s0.4-1,1-1c1.9,0,3.6-0.7,4.9-2s2.1-3.1,2.1-5c0-1.9-0.7-3.6-2-4.9c-1.3-1.3-3.1-2.1-5-2.1
	c-1.9,0-3.6,0.7-4.9,2c-1.3,1.3-2.1,3.1-2.1,5c0,0.6-0.4,1-1,1s-1-0.4-1-1c0-2.4,0.9-4.7,2.6-6.4s4-2.6,6.4-2.6
	c2.4,0,4.7,0.9,6.4,2.6s2.6,4,2.6,6.4c0,2.4-0.9,4.7-2.6,6.4C-450.3,289.1-452.6,290-455,290z"/>
<path d="M-454,282h-5c-0.6,0-1-0.4-1-1s0.4-1,1-1h3v-4c0-0.6,0.4-1,1-1s1,0.4,1,1V282z"/>
</svg>
