<?xml version="1.0" encoding="utf-8"?>
<!-- Generator: Adobe Illustrator 19.0.0, SVG Export Plug-In . SVG Version: 6.00 Build 0)  -->
<svg version="1.1" id="Layer_1" xmlns="http://www.w3.org/2000/svg" xmlns:xlink="http://www.w3.org/1999/xlink" x="0px" y="0px"
	 viewBox="-467 269 24 24" style="enable-background:new -467 269 24 24;" xml:space="preserve">
<path d="M-451,289h-8c-0.6,0-1-0.4-1-1v-10c0-0.6,0.4-1,1-1s1,0.4,1,1v9h6v-9c0-0.6,0.4-1,1-1s1,0.4,1,1v10
	C-450,288.6-450.4,289-451,289z"/>
<rect x="-460" y="274" width="10" height="2"/>
<path d="M-453,275h-4c-0.6,0-1-0.4-1-1s0.4-1,1-1h4c0.6,0,1,0.4,1,1S-452.4,275-453,275z"/>
</svg>
