<?xml version="1.0" encoding="utf-8"?>
<!-- Generator: Adobe Illustrator 19.0.0, SVG Export Plug-In . SVG Version: 6.00 Build 0)  -->
<svg version="1.1" id="Layer_1" xmlns="http://www.w3.org/2000/svg" xmlns:xlink="http://www.w3.org/1999/xlink" x="0px" y="0px"
	 viewBox="-467 269 24 24" style="enable-background:new -467 269 24 24;" xml:space="preserve">
<path d="M-454,289h-1c-1.9,0-3.7-0.7-5.1-2.1c-1.4-1.4-2.1-3.2-2.1-5.1c0-1.9,0.7-3.7,2.1-5.1l0.7-0.7l1.4,1.4l-0.7,0.7
	c-1,1-1.5,2.3-1.5,3.7s0.5,2.7,1.5,3.7c1,1,2.3,1.5,3.7,1.5h1V289z"/>
<path d="M-448.8,282.8c-0.6,0-1-0.4-1-1c0-1.4-0.5-2.7-1.5-3.7c-0.4-0.4-0.4-1,0-1.4s1-0.4,1.4,0c1.4,1.4,2.1,3.2,2.1,5.1
	C-447.8,282.4-448.3,282.8-448.8,282.8z"/>
<path d="M-455,281c-0.6,0-1-0.4-1-1v-6c0-0.6,0.4-1,1-1s1,0.4,1,1v6C-454,280.6-454.4,281-455,281z"/>
</svg>
