<?xml version="1.0" encoding="utf-8"?>
<!-- Generator: Adobe Illustrator 19.0.0, SVG Export Plug-In . SVG Version: 6.00 Build 0)  -->
<svg version="1.1" id="Layer_1" xmlns="http://www.w3.org/2000/svg" xmlns:xlink="http://www.w3.org/1999/xlink" x="0px" y="0px"
	 viewBox="-467 269 24 24" style="enable-background:new -467 269 24 24;" xml:space="preserve">
<path d="M-457.8,282.7c-2.6,0-4.7-2.1-4.7-4.7s2.1-4.7,4.7-4.7s4.7,2.1,4.7,4.7S-455.2,282.7-457.8,282.7z M-457.8,275.3
	c-1.5,0-2.7,1.2-2.7,2.7s1.2,2.7,2.7,2.7s2.7-1.2,2.7-2.7S-456.3,275.3-457.8,275.3z"/>
<path d="M-448.5,288.7c-0.3,0-0.5-0.1-0.7-0.3l-6.7-6.7c-0.4-0.4-0.4-1,0-1.4s1-0.4,1.4,0l6.7,6.7c0.4,0.4,0.4,1,0,1.4
	C-448,288.6-448.2,288.7-448.5,288.7z"/>
</svg>
