<?xml version="1.0" encoding="utf-8"?>
<!-- Generator: Adobe Illustrator 19.0.0, SVG Export Plug-In . SVG Version: 6.00 Build 0)  -->
<svg version="1.1" id="Layer_1" xmlns="http://www.w3.org/2000/svg" xmlns:xlink="http://www.w3.org/1999/xlink" x="0px" y="0px"
	 viewBox="-467 269 24 24" style="enable-background:new -467 269 24 24;" xml:space="preserve">
<g>
	<circle id="XMLID_3_" cx="-453.3" cy="274.1" r="1.1"/>
	<path d="M-453.3,275.8c-0.9,0-1.6-0.7-1.6-1.6s0.7-1.6,1.6-1.6c0.9,0,1.6,0.7,1.6,1.6S-452.4,275.8-453.3,275.8z M-453.3,273.5
		c-0.4,0-0.6,0.3-0.6,0.6s0.3,0.6,0.6,0.6s0.6-0.3,0.6-0.6S-452.9,273.5-453.3,273.5z"/>
</g>
<g>
	<circle id="XMLID_2_" cx="-459" cy="279.9" r="1.1"/>
	<path d="M-459,281.5c-0.9,0-1.6-0.7-1.6-1.6s0.7-1.6,1.6-1.6s1.6,0.7,1.6,1.6S-458.1,281.5-459,281.5z M-459,279.2
		c-0.4,0-0.6,0.3-0.6,0.6s0.3,0.6,0.6,0.6s0.6-0.3,0.6-0.6S-458.6,279.2-459,279.2z"/>
</g>
<g>
	<circle id="XMLID_1_" cx="-451" cy="287.9" r="1.1"/>
	<path d="M-451,289.5c-0.9,0-1.6-0.7-1.6-1.6c0-0.9,0.7-1.6,1.6-1.6s1.6,0.7,1.6,1.6C-449.4,288.8-450.1,289.5-451,289.5z
		 M-451,287.2c-0.4,0-0.6,0.3-0.6,0.6s0.3,0.6,0.6,0.6s0.6-0.3,0.6-0.6S-450.6,287.2-451,287.2z"/>
</g>
<path d="M-451.6,287.8c-0.1,0-0.3,0-0.4-0.1l-7.8-7.8l6.1-6.1c0.2-0.2,0.5-0.2,0.7,0s0.2,0.5,0,0.7l-5.4,5.4l7.1,7.1
	c0.2,0.2,0.2,0.5,0,0.7C-451.3,287.7-451.4,287.8-451.6,287.8z"/>
</svg>
